<?xml version="1.0" encoding="utf-8"?>
<!-- Generator: Adobe Illustrator 16.0.0, SVG Export Plug-In . SVG Version: 6.00 Build 0)  -->
<!DOCTYPE svg PUBLIC "-//W3C//DTD SVG 1.1//EN" "http://www.w3.org/Graphics/SVG/1.1/DTD/svg11.dtd">
<svg version="1.1" id="Layer_1" xmlns="http://www.w3.org/2000/svg" xmlns:xlink="http://www.w3.org/1999/xlink" x="0px" y="0px"
	 width="210px" height="62.917px" viewBox="0 0 210 62.917" enable-background="new 0 0 210 62.917" xml:space="preserve">
<g>
	<g>
		<path fill="#FFFFFF" d="M91.523,23.175c-3.092,0-6.058,1.69-8.896,5.073c-1.867-3.342-4.502-5.014-7.904-5.014
			c-2.587,0-5.232,1.4-7.934,4.198v-3.653h-5.31v27.782h5.31V31.39c1.185-1.33,2.239-2.256,3.165-2.78
			c0.922-0.522,1.938-0.784,3.048-0.784c1.982,0,3.373,0.609,4.171,1.825c0.797,1.219,1.195,3.369,1.195,6.448v15.46h5.338V31.39
			c1.905-2.296,3.957-3.443,6.154-3.443c1.712,0,3.023,0.614,3.938,1.841c0.914,1.228,1.372,3,1.372,5.315v16.456h5.309V35.163
			c0-4.046-0.841-7.057-2.521-9.028C96.273,24.161,94.129,23.175,91.523,23.175"/>
		<path fill="#FFFFFF" d="M119.589,23.232c-4.123,0-7.551,1.354-10.282,4.063c-2.731,2.706-4.099,6.095-4.099,10.159
			c0,4.027,1.353,7.387,4.056,10.072c2.702,2.688,6.065,4.031,10.094,4.031c4.16,0,7.61-1.322,10.354-3.971
			c2.74-2.646,4.113-5.974,4.113-9.98c0-4.126-1.354-7.553-4.056-10.283C127.066,24.596,123.671,23.232,119.589,23.232
			 M125.934,43.872c-1.662,1.703-3.797,2.552-6.399,2.552c-2.627,0-4.777-0.842-6.447-2.521c-1.672-1.68-2.51-3.85-2.51-6.508
			c0-2.678,0.817-4.881,2.45-6.613c1.636-1.73,3.724-2.597,6.271-2.597c2.625,0,4.805,0.866,6.533,2.597
			c1.729,1.732,2.596,3.916,2.596,6.555C128.427,39.991,127.596,42.173,125.934,43.872"/>
		<path fill="#FFFFFF" d="M144.458,29.664l-0.291,0.483v-6.372h-5.34v27.782h5.34V37.032c0-2.314,0.625-4.317,1.881-6.008
			c1.254-1.693,2.736-2.538,4.449-2.538c1.573,0,3.285,0.905,5.133,2.717l2.8-4.833c-2.177-2.093-4.269-3.138-6.271-3.138
			C149.593,23.234,147.025,25.376,144.458,29.664"/>
		<path fill="#FFFFFF" d="M170.409,15.985c0.807-1.146,2.252-1.723,4.332-1.723c0.776,0,1.594,0.162,2.45,0.483V9.369
			c-1.521-0.36-2.83-0.543-3.938-0.543c-2.563,0-4.769,1.1-6.604,3.292c-1.838,2.193-2.758,5.526-2.758,9.996v1.661h-3.851v4.953
			h3.851v22.829h5.312V28.729h4.782v-4.953H169.2v-1.661C169.2,19.177,169.604,17.132,170.409,15.985"/>
		<path fill="#FFFFFF" d="M198.646,28.261c-0.75-1.562-1.846-2.789-3.281-3.686c-1.439-0.896-2.996-1.343-4.668-1.343
			c-3.014,0-5.707,1.357-8.078,4.075v-3.533h-5.426v27.781h5.426V31.72c1.748-2.6,3.879-3.896,6.387-3.896
			c1.965,0,3.363,0.609,4.201,1.827c0.834,1.219,1.252,3.247,1.252,6.085v15.823h5.311V35.673
			C199.77,32.292,199.395,29.821,198.646,28.261"/>
	</g>
	<path fill="#FFFFFF" d="M28.229,15.83c-11.791,0-21.351,9.559-21.351,21.353c0,11.791,9.56,21.349,21.351,21.349
		c11.792,0,21.353-9.559,21.353-21.349C49.58,25.389,40.021,15.83,28.229,15.83 M28.229,54.473c-9.549,0-17.292-7.742-17.292-17.292
		c0-8.085,5.549-14.874,13.047-16.766v5.922h8.647v-5.883c7.417,1.947,12.891,8.697,12.891,16.727
		C45.521,46.731,37.779,54.473,28.229,54.473"/>
	<path fill="#FFFFFF" d="M28.305,32.843c-2.396,0-4.339,1.941-4.339,4.34c0,2.395,1.941,4.338,4.339,4.338s4.34-1.943,4.34-4.338
		C32.645,34.782,30.702,32.843,28.305,32.843"/>
</g>
</svg>
