<?xml version="1.0" encoding="utf-8"?>
<!-- Generator: Adobe Illustrator 16.0.0, SVG Export Plug-In . SVG Version: 6.00 Build 0)  -->
<!DOCTYPE svg PUBLIC "-//W3C//DTD SVG 1.1//EN" "http://www.w3.org/Graphics/SVG/1.1/DTD/svg11.dtd">
<svg version="1.1" id="Layer_1" xmlns="http://www.w3.org/2000/svg" xmlns:xlink="http://www.w3.org/1999/xlink" x="0px" y="0px"
	 width="210px" height="219.501px" viewBox="0 -45.334 210 219.501" enable-background="new 0 -45.334 210 219.501"
	 xml:space="preserve">
<g>
	<g>
		<g>
			<path fill="#011B26" d="M173.477,81.96c-1.436-9.625,0.08-19.42-0.869-29.07c0.039-0.464,0.027-0.94-0.067-1.445
				c-0.129-0.687-0.861-0.708-1.279-0.35c-0.148,0.009-0.3,0.025-0.445,0.025c-2.024,0-4.967-0.425-6.875,0.514
				c-2.641,1.301-4.62,0.972-7.396,1.224c-3.182,0.289-6.363,0.573-9.547,0.847c-13.299,1.153-26.604,0.306-39.922,1.011
				c-6.28,0.334-12.579,0.323-18.842,0.916c-6.363,0.606-12.799,1.269-19.182,1.64c-0.943,0.053-1.888,0.274-2.833,0.312
				c-0.128-0.122-0.297-0.016-0.525-0.016h-6.065c-0.826,0-1.531-0.326-2.225-0.702c-2.604,0.094-5.209-0.152-7.811-0.372
				c-1.654-0.14-4.021-0.598-6.102-0.534c-0.089,0.368,0.059,0.762,0.558,0.84c1.407,0.22,2.777,0.317,4.204,0.381
				c2.056,0.092,4.992-0.532,6.925,0.309c0.097,0.042,0.189,0.063,0.285,0.103c-1.924,0.003-3.849-0.002-5.771-0.002
				c-2.231,0-4.061,0.06-5.707,0.428c-0.043-0.006-0.077-0.025-0.124-0.025c-0.121,0-0.226,0.026-0.32,0.064
				c-0.006-0.144-0.021-0.286-0.063-0.419c-0.433-1.351-1.589-1.083-2.586-0.449c-0.796,0.505-1.327,1.137-1.815,1.928
				c-0.505,0.82-1.09,1.547-1.717,2.237c-0.264,0.655-0.495,1.286-0.705,1.823c-0.146,0.375-0.283,0.753-0.423,1.128
				c0.21,2.505-0.066,4.999-0.228,7.503c0.079,5.328-0.448,10.681-0.448,15.981v52c0,4.469,0.9,8.843,1.095,13.303
				c0.169,3.826-0.117,7.671,0.614,11.454c0.15,0.785,1.172,0.709,1.521,0.174c10.239,2.022,20.879,3.864,31.255,4.78
				c5.522,0.487,11.193,0.054,16.738,0.295c6.32,0.272,12.602,0.958,18.934,1.006c11.299,0.083,22.521-1.469,33.736-2.715
				c10.609-1.178,21.429-0.026,31.984-1.762c0.293-0.049,0.454-0.214,0.532-0.412c0.038,0.002,0.076-0.01,0.116-0.014
				c-0.005,0.669,0.804,1.259,1.33,0.622c0.747-0.902,1.515-1.584,2.136-2.264c0.199-2.438,0.317-4.873,0.378-7.308
				c-0.085,0.102-0.162,0.211-0.247,0.31c-0.105-0.321-0.186-0.646-0.276-0.97c0.048-1.961,0.103-3.921,0.158-5.88
				c0.116,0.074,0.249,0.126,0.395,0.134c-0.012-0.991-0.029-1.983-0.059-2.975c-0.103,0.23-0.196,0.465-0.28,0.706
				c0.102-3.747,0.189-7.494,0.189-11.247c0-9.675-0.135-19.304,0.496-28.965C176.874,99.341,174.755,90.532,173.477,81.96z
				 M170.409,63.13c0.451-0.275,0.496-0.974,0.133-1.308c0.105-0.093,0.199-0.21,0.247-0.377c0.036-0.124,0.08-0.244,0.118-0.366
				c-0.356-0.538-0.563-1.178-0.595-1.874c0.325-0.681,0.677-1.355,0.974-2.018c0.157,3.499,0.131,7.012,0.094,10.528
				c-0.283,0.755-0.566,1.512-0.844,2.276c-0.015-0.245-0.025-0.491-0.039-0.735C170.386,67.34,170.807,65.086,170.409,63.13z
				 M171.343,72.567c0,2.201,0.034,4.397,0.149,6.585c0.023,0.464,0.059,0.926,0.095,1.39c-0.158,0.707-0.259,1.426-0.31,2.256
				c-0.021-0.281-0.036-0.563-0.055-0.844c-0.175-2.547-0.317-5.096-0.454-7.645C170.949,73.723,171.147,73.146,171.343,72.567z
				 M54.147,58.711c0.489,0,0.979,0,1.47,0c5.996,0,11.992,0.141,17.961-0.456c12.158-1.216,24.288-1.583,36.487-2.195
				c11.843-0.594,23.675,0.322,35.511-0.673c5.086-0.428,10.112-0.995,15.201-0.889c2.058,0.041,4.018-1.53,6.048-1.725
				c1.316-0.125,2.673-0.042,3.993-0.042c0.046,0,0.103,0,0.156-0.003c0.01,0.089,0.014,0.18,0.022,0.269
				c-0.151,1.518-0.976,3.212-1.55,4.454c-0.654,1.418-1.416,2.749-1.665,4.281c-9.262,0.473-18.597,2.489-27.726,3.845
				c-2.33,0.345-4.633,0.846-6.921,1.395c-2.992,0.719-6.392,0.317-9.443,0.397c-6.093,0.16-12.165,0.766-18.206,1.538
				c-10.767,1.375-21.465,1.836-32.311,1.523c-5.263-0.153-10.465-0.854-15.735-0.979c-2.842-0.069-5.609-0.608-8.428-0.873
				c-0.985-0.092-1.968-0.119-2.948-0.131c-0.231-0.257-0.596-0.405-0.992-0.23c-0.187,0.081-0.376,0.152-0.567,0.215
				c-0.077,0-0.153-0.003-0.229-0.005c-1.208,0.606-2.853,0.439-4.062-0.412c-0.099-0.018-0.202-0.031-0.3-0.054
				c0.021-0.047,0.036-0.095,0.055-0.14c-0.786-0.651-1.338-1.862-1.347-3.126C38.557,56.426,47.716,58.711,54.147,58.711z
				 M37.671,63.406c0.109,0.123,0.243,0.215,0.39,0.261c-0.181,0.181-0.349,0.364-0.502,0.551c-0.021-0.217-0.04-0.434-0.061-0.647
				C37.556,63.514,37.615,63.462,37.671,63.406z M171.224,164.771c-0.07-0.006-0.136-0.021-0.216-0.008
				c-10.899,1.793-22.137,0.658-33.113,1.877c-10.7,1.189-21.396,2.537-32.172,2.542c-11.422,0.007-22.871-1.048-34.305-1.239
				c-4.713-0.077-9.842-1.285-14.554-1.868c-5.916-0.735-11.792-1.774-17.639-2.929c-0.144-0.028-0.272-0.014-0.391,0.021
				c-0.554-3.803-0.129-7.756-0.297-11.578c-0.175-3.962-0.699-7.824-0.699-11.8V87.791c0-3.58,0.07-7.183,0.114-10.786
				c-1.16-0.95-1.655-2.665-1.14-4.082c0.236-0.647,0.629-1.161,1.116-1.546c-0.005-0.319-0.004-0.638-0.013-0.955
				c0.154,0.192,0.377,0.331,0.658,0.425c0.025,0.024,0.056,0.042,0.083,0.065c0.849-0.389,1.852-0.457,2.81-0.163
				c0.053,0.015,0.077,0.023,0.11,0.033c0.071,0.01,0.142,0.025,0.213,0.034c0.333,0.041,0.667,0.075,1.003,0.094
				c0.275-0.138,0.519-0.308,0.704-0.513c0.236-0.065,0.462-0.129,0.678-0.193c2.951,0.188,5.922,0.247,8.851,0.552
				c5.697,0.594,11.502,0.751,17.222,1.149c10.804,0.754,21.486-0.069,32.241-0.973c5.543-0.465,11.027-1.376,16.591-1.737
				c5.29-0.342,10.694,0.246,15.849-0.991c5.48-1.315,11.207-1.937,16.772-2.809c5.604-0.876,11.401-1.854,17.088-2.095
				c0.305,1.41,0.011,3.298,0.03,4.573c0.029,1.847,0.197,3.698,0.302,5.543c0.015,0.213,0.023,0.426,0.038,0.639
				c-0.114,0.369-0.228,0.737-0.333,1.111c-0.127,0.45,0.118,0.771,0.45,0.914c0.196,3.423,0.398,6.845,0.633,10.269
				c0.568,8.208,0.419,16.412,0.911,24.614c0.38,6.324,0.538,12.669,0.589,19.02c-0.154,0.264-0.311,0.525-0.479,0.785
				c-0.337,0.526,0.027,1.026,0.496,1.158C171.476,142.878,171.23,153.845,171.224,164.771z M171.427,85.198
				c0.172,0.189,0.438,0.269,0.691,0.248c0.257,1.865,0.554,3.723,0.857,5.579c-0.391,1.035-0.767,2.079-1.161,3.124
				C171.712,91.167,171.596,88.185,171.427,85.198z M172.625,118.697c0.321,0.412,1.006,0.544,1.316-0.052
				c0.105-0.199,0.196-0.403,0.292-0.604c-0.062-1.326-0.119-2.654-0.165-3.982c-0.452,1.258-0.884,2.52-1.472,3.664
				c-0.076-3.163-0.172-6.325-0.299-9.488c0.409,0.418,1.205,0.429,1.321-0.292c0.077-0.497,0.191-0.976,0.322-1.448
				c0.003-1.414,0.012-2.828,0.03-4.242c-0.747,1.364-1.375,2.785-1.734,4.351c-0.143-3.753-0.256-7.497-0.381-11.24
				c0.394,0.301,1.117,0.257,1.355-0.36c0.094-0.241,0.191-0.479,0.289-0.719c0.722,4.542,1.319,9.102,1.18,13.778
				c-0.166,5.57-0.309,11.146-0.438,16.724c-0.526,0.89-1.008,1.783-1.471,2.68C172.738,124.543,172.693,121.621,172.625,118.697z
				 M172.794,130.797c0.483-0.812,0.931-1.643,1.375-2.477c-0.155,7.111-0.288,14.228-0.38,21.34c-0.271-0.3-0.643-0.32-0.95-0.16
				C172.848,143.265,172.85,137.031,172.794,130.797z M172.839,164.82c0.002-4.534,0.014-9.062,0.024-13.593
				c0.499,1.235,0.653,2.969,0.867,4.482c-0.029,2.785-0.065,5.571-0.081,8.351c0,0.029,0.014,0.049,0.014,0.073
				C173.378,164.372,173.093,164.601,172.839,164.82z"/>
		</g>
		<g>
			<path fill="#011B26" d="M36.986,82.929c0,0-1.078-14.018,15.365-13.209l-14.286-1.887L36.986,82.929z"/>
		</g>
		<g>
			<path fill="#011B26" d="M70.713,61.871c-0.809-0.639-1.963,0.5-1.143,1.143c0.419,0.331-3.709,0.759-3.684,0.759
				c-1.405-0.024-2.758-0.316-4.122-0.627c-0.623-0.141-1.424-0.213-2.249-0.298c0.705-0.425,0.283-1.701-0.641-1.454
				c-1.289,0.344-2.756-0.15-3.861,0.747c-0.426,0.347-0.235,1.01,0.163,1.27c1.357,0.886,2.97,0.642,4.507,0.891
				c2.427,0.395,4.605,1.062,7.092,1.105c1.516,0.025,3.142-0.007,4.278-1.103C71.829,63.558,71.41,62.419,70.713,61.871z"/>
		</g>
		<g>
			<path fill="#011B26" d="M144.808,57.59c-1.038-0.105-1.027,1.515,0,1.617c-0.837,1.013-1.878,1.591-3.123,1.735
				c-0.818,0.189-1.64,0.354-2.467,0.495c-1.797,0.333-3.763,0.555-5.597,0.701c-0.798,0.075-1.589,0.026-2.375-0.144
				c-1.069-0.083-1.038-0.475,0.083-1.17c1.398-0.134,2.602,0.073,3.991-0.298c1.005-0.27,0.577-1.83-0.431-1.559
				c-1.83,0.49-5.849-0.544-6.578,2.114c-0.72,2.609,3.917,2.716,5.309,2.676c3.617-0.105,9.643-0.442,12.478-2.907
				C147.785,59.379,146.52,57.761,144.808,57.59z"/>
		</g>
		<g>
			<g>
				<path fill="#011B26" d="M63.053,60.267l1.401-6.463c0.477-2.153,0.938-4.309,1.441-6.455l1.479-6.443
					c0.5-2.148,0.972-4.301,1.495-6.442l3.083-12.857c1.004-4.292,2.122-8.556,3.19-12.831C76.214,4.5,77.38,0.248,78.496-4.016
					c1.119-4.264,2.286-8.514,3.351-12.792l1.627-6.407c0.548-2.135,1.043-4.283,1.566-6.424l1.549-6.427l1.496-6.44l0.24-1.036
					l0.5,0.953l6.526,12.437l6.453,12.475l6.412,12.496c2.15,4.156,4.235,8.348,6.34,12.529l6.295,12.555l6.2,12.603
					c2.075,4.195,4.087,8.425,6.134,12.635c2.045,4.21,4.021,8.458,6.034,12.687l-0.145,0.072
					c-2.208-4.128-4.455-8.239-6.633-12.382c-2.177-4.147-4.39-8.274-6.535-12.433l-6.47-12.465l-6.375-12.514
					c-2.116-4.174-4.255-8.339-6.327-12.537l-6.258-12.572L94.261-29.6l-6.144-12.63l0.739-0.084l-1.672,6.396l-1.619,6.411
					c-0.532,2.139-1.093,4.27-1.601,6.415l-1.54,6.429c-1.047,4.28-1.992,8.586-2.984,12.881c-0.995,4.295-1.94,8.601-2.979,12.885
					c-1.043,4.281-2.038,8.576-3.146,12.841l-3.251,12.813c-0.534,2.138-1.117,4.265-1.673,6.396l-1.687,6.393
					c-0.554,2.133-1.149,4.255-1.728,6.384l-1.767,6.374L63.053,60.267z"/>
			</g>
			<g>
				<g>
					<path fill="#071C26" d="M63.053,62.287C69.115,34.3,76.397,6.665,83.446-21.086c1.333-5.251,2.579-10.529,3.803-15.806
						c0.269-1.161,0.539-2.321,0.808-3.482c0.277-1.196,0.198-1.271,0.79-0.143c1.14,2.172,2.278,4.344,3.418,6.514
						c3.876,7.389,7.218,14.795,11.025,22.22c12.163,23.707,23.525,47.562,34.934,71.63c0-1.349,0-2.696,0-4.043
						c0,0.743-45.63-90.107-51.334-100.055c0,1.347,0,2.695,0,4.043c1.141-0.029,1.141-0.056,1.141-0.085c0-1.347,0-2.694,0-4.042
						c-2.282,8.47-23.962,102.935-25.39,102.582c0.284,0.071-0.136,3.96,0.206,4.043c1.427,0.353,23.689-94.112,25.904-102.582
						c0.105-0.404-0.047-4.033,0.051-4.042c-0.246,0.028-0.467,0.056-0.714,0.084c-0.006,0.001-0.149,3.708,0.014,4.043
						c4.839,9.949,49.626,100.799,51.109,100.055c0.205-0.102,0.166-3.701,0.005-4.043C127.58,31.32,115.529,7.059,103.159-17.061
						c-3.834-7.474-7.71-14.925-11.613-22.364c-0.908-1.729-1.813-3.458-2.721-5.188c-0.713-1.36-0.588-0.568-0.835,0.496
						c-0.354,1.525-0.707,3.05-1.061,4.577c-1.176,5.066-2.392,10.128-3.672,15.171c-6.986,27.498-14.193,54.883-20.2,82.614
						C62.772,59.538,63.332,61.008,63.053,62.287z"/>
				</g>
			</g>
		</g>
	</g>
	<g>
		<g>
			<g>
				<g>
					<path fill="#011B26" d="M151.494,143.101c-1.918-13.712-16.969-12.417-26.613-13.004c-5.102-0.343-10.628-0.579-16.475-0.662
						c-2.922-0.062-5.924-0.157-8.994-0.13c-3.067,0.007-6.204-0.031-9.393,0.042c-6.377,0.134-12.966,0.256-19.663,0.396
						l-2.516,0.063l-1.262,0.032c-0.552,0.063-1.117,0.058-1.649,0.234c-2.189,0.534-3.94,2.007-5.214,3.652
						c-2.489,3.385-3.401,7.652-3.263,11.539c0.082,2.115,0.452,4.017,1.106,5.902c0.646,1.858,1.567,3.621,2.839,5.083
						c1.103,1.261,2.458,2.811,4.067,3.309c0.68,0.259,1.385,0.927,2.115,0.927h9.089c4.861,0,9.676-0.284,14.352,0.009
						c6.377,0.388,12.541,0.551,18.385,0.655c5.847,0.095,11.373-0.048,16.473-0.35c5.104-0.236,9.776-0.714,13.921-1.033
						c1.037-0.079,2.034,0.329,3.002,0.253c0.073-0.002,0.156,0.466,0.229,0.466c0,0,0.338,0,0.341,0
						C149.754,160.484,152.593,150.947,151.494,143.101z M144.305,133.231c1.574,0.457,2.794,1.64,3.694,2.823
						c0.104,0.137,0.187,0.272,0.28,0.41c-1.468-2.033-3.387-3.33-5.503-3.481l0.396,0.005
						C143.557,133.059,143.908,133.077,144.305,133.231z"/>
				</g>
			</g>
			<g>
				<path fill="#011B26" d="M71.56,99.774c0.056-2.021-0.112-3.985-0.056-5.949c0.056-2.189,0.224-4.321,0.336-6.511
					c0.112-2.918,0.223-5.891,0.279-8.867c0-0.784,0.114-1.458,1.124-1.401c1.009,0.056,1.067,0.674,1.009,1.571
					c-0.223,2.974-0.336,5.949-0.503,8.923c-0.226,4.378-0.451,8.755-0.618,13.076c-0.224,5.164-0.394,10.328-0.673,15.49
					c-0.113,2.074-0.394,4.154-0.618,6.174c-0.225,1.739-0.393,3.423-0.786,5.107c-0.28,1.346-0.728,2.693-1.29,3.984
					c-0.618,1.291-3.423,1.347-4.209,0.112c-1.515-2.243-1.74-4.882-2.076-7.407c-0.45-3.762-0.84-7.464-1.011-11.225
					c-0.112-3.367,0.225-6.79,0.338-10.213c0.056-3.032,0-6.062,0.056-9.093c0-0.955,0.167-1.909,0.167-2.863
					c0.056-3.48,0.112-6.961,0.169-10.495c0-0.842-0.169-1.74-0.113-2.583c0.057-0.45-0.056-1.346,0.786-1.346
					c0.842,0,0.842,0.841,0.842,1.235c0,4.937-0.113,9.877-0.169,14.758c0,2.809,0,5.556-0.056,8.308
					c-0.056,4.208-0.448,8.418-0.167,12.572c0.279,4.545,0.279,9.09,1.571,13.58c0.28,0.954,0.169,2.133,0.842,3.029
					c0.28,0.283,0.561,0.562,0.785,0.844c0.282-0.281,0.673-0.506,0.785-0.844c0.618-2.188,1.46-4.377,1.74-6.621
					c0.562-3.984,0.73-7.97,1.065-12.01c0.057-0.674,0-1.348,0-2.021h-0.056C71.224,106.004,71.448,102.859,71.56,99.774z"/>
				<path fill="#011B26" d="M80.485,86.755c0.056,2.245,0.056,4.431,0.113,6.622c0,1.123,0.112,2.245,0.112,3.422
					c0,4.21,0,8.475,0.055,12.741c0.057,3.03,0.337,6.116,0.45,9.204c0.112,3.646,0.169,7.35,0.337,10.998
					c0.056,0.955-0.45,1.35-1.179,1.35c-0.336,0-1.01-0.562-0.953-0.785c0.672-3.48,0-6.961-0.058-10.386
					c0-2.3-0.168-12.064-0.224-13.694c-0.112-3.588-0.055-7.183-0.055-10.829c0-1.796,0.112-3.647,0.055-5.443
					c0-1.348-0.28-2.693-0.336-4.099c-0.113-2.132-0.113-4.264-0.169-6.396c-0.055-0.336,0-0.673-0.112-0.954
					c-0.224-0.785-0.224-1.458,0.673-1.686c0.786-0.167,1.571-0.167,1.964,0.9c0.729,2.019,1.74,4.039,2.302,6.116
					c1.066,3.816,1.907,7.688,2.805,11.561c1.291,5.388,2.638,10.774,3.873,16.164c0.73,3.364,1.236,6.789,1.853,10.155
					c0.056,0.45,0.279,0.9,0.73,1.293c0-2.527,0-5.053,0.056-7.576c0-1.293,0.223-2.639,0.223-3.986
					c0-1.514-0.223-3.029-0.223-4.545c-0.056-3.312-0.056-6.565-0.056-9.876c-0.056-4.322,0-8.643,0.056-12.91
					c0-2.243,0.057-4.433,0.223-6.677c0.057-0.394,0.619-0.786,0.899-1.179c0.281,0.393,0.73,0.785,0.73,1.122
					c0,4.208-0.223,8.417-0.223,12.627c-0.058,4.321-0.058,8.643,0,12.963c0,2.807,0.223,5.668,0.278,8.531c0,2.75,0,5.443,0,8.194
					c0,3.647,0,7.296,0,10.944c0,0.954-0.278,1.628-1.29,1.738c-0.899,0.057-1.797-0.897-1.909-1.852
					c-0.335-3.086-0.617-6.174-1.123-9.203c-0.618-3.592-1.347-7.127-2.132-10.664c-0.225-1.178-0.73-2.356-1.011-3.591
					c-0.34-1.405-0.563-2.92-0.901-4.379c-0.785-3.649-1.458-7.296-2.356-10.945c-0.618-2.694-1.46-5.333-2.19-7.913
					c-0.224-0.731-0.617-1.403-0.898-2.077c-0.113,0-0.28,0-0.393,0C80.485,83.442,80.485,85.127,80.485,86.755z"/>
				<path fill="#011B26" d="M112.589,99.547c-0.169,3.256-0.509,6.513-0.9,9.768c-0.393,3.256-0.84,6.51-1.514,9.709
					c-0.337,1.627-1.35,3.143-1.684,4.77c-0.339,1.572-1.011,2.807-2.021,3.93c-1.349,1.459-2.695,2.863-4.098,4.209
					c-0.841,0.841-1.346,0.449-2.132-0.45c-0.954-1.067-0.562-2.021-0.506-3.143c0.168-3.591,0.338-7.185,0.395-10.774
					c0.112-4.379,0.168-8.812,0.168-13.244c0.056-5.613,0-11.283,0.056-16.948c0.057-2.021,0.279-4.041,0.337-6.063
					c0.056-1.066-0.113-2.132-0.168-3.141c-0.055-1.796,0.674-2.246,2.301-1.684c3.648,1.347,6.565,3.704,7.858,7.352
					c1.009,2.975,2.074,6.229,1.683,9.652C112.42,95.452,112.699,97.472,112.589,99.547z M101.757,129.686
					c0.279,0,0.337-0.28,0.448-0.394c3.311-2.188,4.996-5.556,6.062-9.147c0.897-3.032,1.233-6.287,1.795-9.484
					c0.281-1.684,0.449-3.424,0.504-5.108c0.113-3.422,0-6.903,0.169-10.383c0.224-3.536-0.392-6.902-1.461-10.269
					c-1.067-3.424-3.534-5.332-6.845-6.343C102.205,95.621,101.98,112.626,101.757,129.686z"/>
				<path fill="#011B26" d="M119.267,93.655c1.403-0.167,2.918-0.167,4.32-0.504c0.843-0.167,1.18,0.168,1.29,0.674
					c0.06,0.561-0.11,1.29-1.008,1.346c-1.29,0.057-2.526,0.114-3.762,0.169c-0.73,0-1.009,0.281-1.009,1.011
					c-0.058,3.591-0.169,7.126-0.225,10.719c-0.114,5.612-0.17,11.224-0.281,16.836c0,1.627,0,3.312,0,4.995
					c0,0.674,0.111,1.012,1.067,1.012c1.29-0.057,2.692,0.28,3.986,0.617c0.39,0.112,0.613,0.784,0.896,1.178
					c-0.395,0.225-0.731,0.674-1.124,0.674c-1.066,0-2.075-0.168-3.142-0.281c-0.339-0.055-0.617-0.111-0.953-0.166
					c-2.752-0.281-2.696-0.281-2.584-3.145c0.112-2.525,0.112-5.051,0.227-7.576c0.055-2.525,0.223-5.109,0.223-7.633
					c0.056-3.816-0.056-7.576,0.056-11.391c0.056-3.707,0.339-7.409,0.394-11.113c0.057-3.985-0.055-7.97-0.055-11.954
					c0-0.617-0.283-1.402,0-1.74c0.391-0.504,1.176-0.952,1.849-1.011c2.021-0.112,4.044-0.056,6.007-0.112
					c0.731,0,1.349,0.112,1.404,0.952c0,0.843-0.506,1.235-1.35,1.235c-2.02,0-3.984,0-6.229,0
					C119.267,83.498,119.267,88.438,119.267,93.655z"/>
				<path fill="#011B26" d="M135.317,100.392c1.066,3.646,2.189,7.296,3.143,10.942c0.953,3.538,1.796,7.129,2.691,10.666
					c0.676,2.692,1.35,5.33,2.022,7.967c0.057,0.393,0.057,0.73,0.168,1.123c0.111,0.617,0.111,1.179-0.73,1.291
					c-0.785,0.057-1.179-0.281-1.291-1.122c-0.28-1.966-0.503-3.929-1.012-5.837c-0.897-3.646-1.964-7.242-2.971-10.83
					c-1.067-3.705-2.077-7.465-3.145-11.171c-0.618-2.075-1.348-4.04-2.3-6.117c-0.06,0.282-0.169,0.561-0.169,0.842
					c0,2.919-0.058,5.893-0.058,8.867c0,2.526,0,5.052,0.058,7.578c0,1.121,0.225,2.244,0.225,3.365c0,1.74-0.225,3.538-0.169,5.276
					c0.057,2.583,0.279,5.107,0.504,7.631c0.058,0.731,0.17,1.404-0.786,1.404c-0.896,0-1.288-0.394-1.288-1.349
					c0.056-3.029-0.057-6.061-0.169-9.035c-0.056-2.693-0.17-5.331-0.17-8.025c0-3.423,0.17-6.79,0.17-10.213
					c0-3.311-0.227-6.623-0.17-9.936c0-2.019,0.451-4.039,0.507-6.06c0.166-3.423,0.11-6.791,0.166-10.156
					c0.059-0.395,0.339-0.843,0.506-1.235c0.395,0.169,0.784,0.335,1.121,0.559c0.339,0.169,0.619,0.337,0.844,0.562
					c1.234,0.954,2.411,1.908,3.646,2.861c1.458,1.066,1.684,2.75,2.075,4.322c1.067,3.984-0.784,7.071-3.311,9.878
					c-0.054,0.111-0.223,0.224-0.394,0.336c-0.393,0.225-0.785,0.449-1.177,0.673C134.36,97.136,134.866,98.764,135.317,100.392z
					 M137.057,87.651c0.395-4.714-1.964-6.959-4.712-8.418c-0.226,4.995-0.394,9.989-0.617,14.984
					C134.026,93.825,136.832,90.12,137.057,87.651z"/>
			</g>
			<g>
				<g>
					<path fill="none" stroke="#011B26" stroke-width="0.8921" stroke-miterlimit="10" d="M17.221,112.84"/>
				</g>
			</g>
			<g>
				<g>
					<path fill="none" stroke="#011B26" stroke-width="0.8921" stroke-miterlimit="10" d="M17.221,112.84"/>
				</g>
			</g>
		</g>
		<g>
			<g>
				<defs>
					<path id="SVGID_1_" d="M151.494,142.978c-1.918-13.712-16.969-12.354-26.613-12.945c-5.102-0.341-10.628-0.546-16.475-0.628
						c-2.922-0.061-5.924-0.143-8.994-0.117c-3.067,0.01-6.204-0.024-9.393,0.049c-6.377,0.134-12.966,0.262-19.663,0.403
						l-2.516,0.062l-1.262,0.037c-0.552,0.061-1.117,0.058-1.649,0.23c-2.189,0.537-3.94,2.01-5.214,3.655
						c-2.489,3.384-3.401,7.652-3.263,11.539c0.082,2.115,0.452,4.017,1.106,5.902c0.646,1.858,1.567,3.622,2.839,5.083
						c1.103,1.262,2.458,2.686,4.067,3.185c0.68,0.259,1.385,0.805,2.115,0.805h9.089c4.861,0,9.676-0.16,14.352,0.134
						c6.377,0.386,12.541,0.61,18.385,0.718c5.847,0.092,11.373-0.019,16.473-0.319c5.104-0.236,9.776-0.699,13.921-1.016
						c1.037-0.08,2.034,0.209,3.002,0.134c0.073-0.005,0.156,0.35,0.229,0.35c0,0,0.338,0,0.341,0
						C149.754,160.238,152.593,150.825,151.494,142.978z M144.305,133.231c1.574,0.457,2.794,1.64,3.694,2.823
						c0.104,0.137,0.187,0.272,0.28,0.41c-1.468-2.033-3.387-3.33-5.503-3.481l0.396,0.005
						C143.557,133.059,143.908,133.077,144.305,133.231z"/>
				</defs>
				<clipPath id="SVGID_2_">
					<use xlink:href="#SVGID_1_"  overflow="visible"/>
				</clipPath>
				<g clip-path="url(#SVGID_2_)">
					<path fill="#012430" d="M93.94,122.205c-4.851,0.635-9.672,1.501-14.519,2.127c-5.832,0.753-10.734,0.686-15.48,4.639
						c-3.506,2.924-6.256,6.574-8.104,10.746c-2.246,5.078-2.247,9.853-3.009,15.171c-0.481,3.365,0.773,6.695,4.362,7.68
						c2.965,0.815,7.198-0.984,7.681-4.361c1.078-7.529,0.923-13.94,6.868-19.545c2.563-2.415,7.41-1.728,10.723-2.241
						c3.82-0.595,7.639-1.226,11.476-1.729c3.373-0.442,6.243-2.504,6.243-6.243C100.183,125.381,97.324,121.76,93.94,122.205z"/>
				</g>
			</g>
		</g>
		<g>
			<path fill="#FFFFFF" d="M65.723,154.121c-0.339,0.62-1.036,1.147-1.771,0.958c-0.715-0.17-1.128-0.639-1.43-1.281
				c-0.584-1.261-0.621-2.578-0.714-3.952c-0.057-0.905-0.169-1.826-0.189-2.749c-0.02-0.865,0.075-1.713,0.112-2.58
				c0.019-0.677-0.037-1.373,0.019-2.052c0.095-1.205,0.132-2.43,0.377-3.614c0.169-0.883,0.583-1.712,0.903-2.56
				c0.264-0.696,1.187-0.828,1.827-0.716c0.715,0.133,0.96,0.735,1.093,1.112c0.188,0.545,0.244,1.147,0.282,1.655
				c0.02,0.226-0.095,1.072-1.166,0.678c-0.095-0.584-0.133-0.978-0.208-1.355c-0.018-0.093-0.056-0.28-0.131-0.356
				c-0.075-0.076-0.132-0.168-0.226-0.224c-0.019-0.04-0.038-0.097-0.056-0.075c-0.114,0.018-0.321,0.168-0.359,0.301
				c-0.263,0.64-0.471,1.301-0.583,1.959c-0.189,1.016-0.321,2.051-0.414,3.105c-0.056,0.771,0,1.58-0.019,2.371
				c0,0.678-0.075,1.356-0.075,2.034s0.056,1.354,0.094,2.014c0.075,0.962,0.131,1.939,0.226,2.898
				c0.075,0.696,0.227,1.3,0.678,1.787c0.734,0.812,1.148-2.258,1.186-2.673c0.058-0.452,0.321-0.751,0.829-0.714
				c0.527,0.038,0.772,0.47,0.659,0.902c-0.131,0.509-0.245,1.036-0.376,1.544C66.155,153.064,65.986,153.609,65.723,154.121z"/>
			<path fill="#FFFFFF" d="M73.402,148.284c-0.075,1.053-0.131,2.088-0.263,3.123c-0.095,0.81-0.302,1.602-0.489,2.391
				c-0.131,0.585-0.488,1.167-1.223,1.3c-0.622,0.113-1.45-0.205-1.827-0.867c-0.168-0.28-0.281-0.621-0.338-0.921
				c-0.15-0.791-0.282-1.601-0.507-2.769h0.075c-0.095-0.584-0.207-1.148-0.244-1.733c-0.075-1.221-0.113-2.464-0.113-3.688
				c0-1.148,0.038-2.316,0.132-3.464c0.057-0.735,0.207-1.488,0.358-2.221c0.132-0.68,0.283-1.375,0.527-2.016
				c0.206-0.564,0.566-1.093,0.885-1.543c0.376-0.527,1.582-0.378,1.938-0.038c0.602,0.528,1.035,1.185,1.073,2.09
				c0.037,0.622,0.225,1.243,0.245,1.881c0.037,1.035,0,2.072,0,3.106c0,0.623,0,1.262-0.021,1.901
				C73.554,145.968,73.479,147.132,73.402,148.284z M71.577,137.139c-0.038-0.039-0.076-0.074-0.131-0.115
				c-0.038-0.037-0.095-0.092-0.132-0.168c-0.018-0.037,0,0.02-0.057,0.056c-0.507,0.472-0.696,1.13-0.828,1.845
				c-0.283,1.639-0.507,3.276-0.641,4.933c-0.095,1.394-0.038,2.787-0.038,4.161c0.226,1.486,0.434,2.954,0.658,4.423
				c0.076,0.433,0.171,0.848,0.359,1.167c0.057,0.095,0.245,0.244,0.471,0.302c-0.018-0.019-0.018-0.038-0.037-0.038
				c0.056-0.074,0.095-0.188,0.132-0.244c0.056-0.131,0.095-0.264,0.131-0.415c0.056-0.15,0.095-0.3,0.132-0.452
				c0.264-0.865,0.338-1.769,0.396-2.692c0.074-0.922,0.093-1.861,0.207-2.784c0.113-1.072,0.057-2.164,0.075-3.256
				c0.02-1.056,0.076-2.109,0.038-3.163c-0.018-0.828-0.207-1.656-0.263-2.485C72.029,137.741,71.896,137.4,71.577,137.139z"/>
			<path fill="#FFFFFF" d="M80.595,147.72c0-0.51-0.075-1.02-0.075-1.507c-0.02-1.112-0.02-2.222-0.02-3.333
				c-0.02-1.448,0-2.898,0.02-4.328c0-0.755,0.018-1.509,0.075-2.261c0.018-0.244,0.168-0.395,0.319-0.544
				c0.038-0.021,0.057-0.059,0.396-0.472c0.302,0.452,0.321,0.472,0.338,0.489c0.132,0.171,0.244,0.319,0.244,0.526
				c0,1.413-0.074,2.826-0.074,4.236c-0.019,1.45-0.019,2.898,0,4.33c0,0.96,0.074,1.922,0.095,2.881c0,0.903,0,1.826,0,2.747
				c0,1.224,0,2.448,0,3.672c0,0.677-0.415,1.018-0.885,0.962c-0.432-0.037-0.885-0.416-0.942-0.962
				c-0.114-1.017-0.208-2.052-0.376-3.067c-0.188-1.188-0.452-2.373-0.696-3.56c-0.093-0.396-0.245-0.789-0.339-1.184
				c-0.114-0.492-0.207-0.98-0.301-1.47c-0.263-1.243-0.509-2.467-0.809-3.69c-0.208-0.884-0.491-1.749-0.735-2.634
				c-0.057-0.17-0.132-0.34-0.208-0.49l0.34-0.169c0.113,0.225,0.151,0.472,0.168,0.733c0.02,0.265,0.02,0.527,0.02,0.811
				c0.019,0.734,0.019,1.467,0.038,2.221c0.02,0.376,0.037,0.752,0.037,1.13c0,1.431,0,2.861,0.02,4.273
				c0.019,1.035,0.112,2.051,0.15,3.086c0.038,1.224,0.056,2.466,0.113,3.688c0.018,0.53-0.303,0.85-0.771,0.85
				c-0.208,0-0.772-0.303-0.697-0.717c0.113-0.547,0.093-1.11,0.075-1.676c-0.038-0.584-0.094-1.167-0.094-1.732
				c-0.02-0.772-0.056-4.028-0.076-4.573c-0.036-1.225-0.019-2.432-0.019-3.653c0-0.602,0.039-1.205,0.019-1.809
				c0-0.469-0.094-0.922-0.113-1.373c-0.038-0.716-0.038-1.433-0.056-2.146c-0.019-0.057,0-0.188-0.019-0.244
				c-0.076-0.227-0.188-0.849,0.49-1.018c0.339-0.075,0.884-0.095,1.11,0.526c0.263,0.695,0.583,1.375,0.772,2.091
				c0.358,1.28,0.641,2.597,0.961,3.896c0.432,1.806,0.884,3.595,1.28,5.421c0.056,0.284,0.112,0.546,0.17,0.83
				C80.557,148.244,80.595,147.98,80.595,147.72z"/>
			<path fill="#FFFFFF" d="M88.633,154.121c-0.432,0.562-1.109,1.203-2.146,0.938c-0.321-0.095-0.509-0.3-0.772-0.488
				c-0.735-0.528-0.98-1.319-1.167-2.035c-0.095-0.377-0.113-0.771-0.208-1.147c-0.075-0.357,0.02-0.773,0.547-0.866
				c0.564-0.096,0.752,0.341,0.79,0.622c0.075,0.451,0.114,0.923,0.226,1.373c0.113,0.526,0.451,0.923,0.941,1.206
				c0.15,0.074,0.358,0.056,0.64-0.304c0.507-0.64,0.659-1.411,0.715-2.296c0.113-1.43,0.057-2.841-0.208-4.236
				c-0.056-0.263-0.149-0.545-0.282-0.829c-0.132-0.301-0.283-0.6-0.396-0.903c-0.321-0.789-0.942-1.45-1.45-2.108
				c-0.603-0.771-1.167-1.638-1.431-2.654c-0.056-0.207-0.039-0.414,0-0.601c0.036-0.169,0.075-0.357,0.094-0.527
				c0.112-0.736,0.188-1.507,0.358-2.224c0.113-0.411,0.32-0.996,0.733-1.316c0.396-0.302,1.111-0.187,1.451-0.018
				c0.829,0.375,1.167,1.127,1.224,1.956c0,0.039,0.019,0.114,0.056,0.208c0.038,0.113,0.074,0.244,0.095,0.357
				c0.038,0.188,0.038,0.395,0,0.566c-0.095,0.396-0.715,0.432-0.903,0.223c-0.113-0.148-0.169-0.301-0.226-0.469
				c-0.113-0.264-0.188-0.527-0.284-0.791c-0.075-0.244-0.167-0.489-0.282-0.695c-0.133-0.245-0.245-0.227-0.434,0.035
				c-0.188,0.228-0.282,0.49-0.338,0.793c-0.056,0.301-0.056,0.62-0.113,0.922c-0.057,0.414-0.093,0.83-0.113,1.242
				c-0.038,0.433,0.15,0.772,0.413,1.168c0.095,0.131,0.188,0.283,0.283,0.414c0.357,0.525,0.754,1.015,1.111,1.525
				c0.376,0.525,0.753,1.072,1.054,1.692c0.753,1.62,0.979,3.295,0.886,5.027c-0.039,0.582,0.018,1.185-0.039,1.75
				C89.367,152.443,89.236,153.365,88.633,154.121z"/>
			<path fill="#FFFFFF" d="M92.417,136.875c-0.64-0.02-0.922-0.228-0.884-0.773c0.019-0.166,0.564-0.507,1.337-0.526
				c0.547-0.018,1.186,0,1.62,0c0.432,0,0.847,0,1.279-0.036c0.301-0.02,0.885,0.02,0.905,0.694
				c0.036,0.735-0.642,0.773-0.885,0.773c-0.32-0.021-0.623-0.021-0.923-0.038c0,1.75-0.02,3.465,0,5.176
				c0,1.056,0.057,2.11,0.092,3.145c0.039,0.886,0.096,1.751,0.115,2.636c0.038,1.64,0.021,3.296,0.038,4.934
				c0,0.507,0.056,0.998,0.038,1.487c-0.019,0.302-0.302,0.659-0.584,0.736c-0.546,0.168-0.884-0.265-0.884-0.716
				c0.018-0.604,0.018-1.208,0.018-1.789c0.021-1.639,0.039-3.256,0.021-4.896c-0.021-1.394-0.132-2.785-0.189-4.179
				c-0.035-0.791-0.075-1.599-0.075-2.392c0-1.092,0.04-2.204,0.04-3.313c0-0.28-0.04-0.585-0.096-0.885
				C93.077,136.875,92.756,136.875,92.417,136.875z"/>
			<path fill="#FFFFFF" d="M102.526,154.42c-0.093-0.641-0.169-1.299-0.337-1.939c-0.302-1.204-0.66-2.407-0.98-3.594
				c-0.355-1.262-0.696-2.505-1.053-3.747c-0.04-0.111-0.076-0.225-0.116-0.319c0,0.47,0,0.941,0,1.412c0,0.846,0,1.692,0.021,2.542
				c0,0.376,0.075,0.752,0.075,1.128c0,0.584-0.075,1.168-0.056,1.771c0.02,0.847,0.094,1.676,0.167,2.522
				c0.021,0.075,0.021,0.151,0.021,0.225c0,0.077,0,0.169-0.038,0.266c-0.094,0.28-0.357,0.396-0.621,0.396
				c-0.546,0-0.81-0.341-0.81-0.85c0.019-0.998-0.019-1.995-0.056-3.012c-0.02-0.902-0.058-1.788-0.058-2.691
				c0-1.148,0.058-2.279,0.058-3.428c0-1.11-0.075-2.221-0.058-3.332c0-0.695,0.131-1.373,0.169-2.053
				c0.036-1.129,0.036-2.257,0.076-3.404c0-0.152,0.056-0.265,0.094-0.34c0.018-0.075,0.056-0.131,0.225-0.564
				c0.508,0.226,0.642,0.302,0.773,0.356c0.113,0.075,0.224,0.15,0.339,0.226c0.395,0.32,0.809,0.642,1.222,0.961
				c0.302,0.245,0.471,0.525,0.585,0.828c0.112,0.264,0.167,0.547,0.243,0.83c0.379,1.523-0.337,2.691-1.186,3.65
				c-0.074,0.096-0.168,0.15-0.223,0.189l-0.151,0.074c0.129,0.47,0.28,0.94,0.412,1.395c0.339,1.222,0.715,2.445,1.056,3.671
				c0.318,1.186,0.584,2.39,0.884,3.576c0.228,0.904,0.451,1.789,0.679,2.674c0.035,0.131,0.035,0.263,0.058,0.376
				c0.056,0.245,0.112,0.829-0.547,0.904C102.864,155.173,102.585,154.853,102.526,154.42z M100.1,141.318
				c0.47-0.377,0.959-1.111,0.997-1.619c0.096-1.073-0.283-1.694-0.848-2.127L100.1,141.318z"/>
			<path fill="#FFFFFF" d="M108.758,147.285c0.074-1.412,0.152-2.447,0.188-3.501c0.021-0.659-0.035-1.335-0.018-1.995
				c0.018-0.717,0.075-1.449,0.114-2.164c0.035-0.999,0.073-1.996,0.094-2.993c0.018-0.397,0.094-0.884,0.771-0.829
				c0.697,0.057,0.716,0.601,0.697,0.942c-0.074,0.996-0.115,1.974-0.171,2.971c-0.074,1.469-0.148,2.937-0.206,4.388
				c-0.076,1.734-0.133,3.464-0.227,5.196c-0.037,0.696-0.113,1.394-0.207,2.109c-0.075,0.584-0.132,1.167-0.265,1.749
				c-0.112,0.472-0.28,0.942-0.468,1.396c-0.341,0.771-1.678,0.696-2.072,0.112c-0.546-0.83-0.642-1.731-0.752-2.673
				c-0.168-1.261-0.284-2.523-0.34-3.783c-0.036-1.148,0.076-2.316,0.114-3.465c0.018-1.016,0-2.033,0.018-3.032
				c0-0.318,0.058-0.639,0.058-0.959c0.021-1.186,0.038-2.352,0.056-3.521c0-0.131-0.018-0.262-0.018-0.395
				c0-0.168-0.021-0.338,0-0.508c0-0.037,0-0.072,0-0.113c0-0.057,0-0.148,0.038-0.244c0.056-0.208,0.242-0.433,0.584-0.433
				c0.583,0,0.657,0.507,0.657,0.788c0,1.656-0.037,3.314-0.059,4.972c0,0.923,0,1.844-0.017,2.766
				c-0.019,1.396-0.13,2.806-0.057,4.199c0.094,1.489,0.132,3.014,0.527,4.461c0.056,0.188,0.056,0.376,0.093,0.563
				c0.021,0.076,0.021,0.132,0.037,0.188c0.096-0.281,0.169-0.544,0.264-0.828c0.115-0.337,0.188-0.694,0.244-1.072
				c0.171-1.317,0.245-2.652,0.359-3.989c0.02-0.095,0.02-0.208,0.02-0.303H108.758z"/>
			<path fill="#FFFFFF" d="M116.815,154.121c-0.339,0.62-1.035,1.147-1.771,0.958c-0.715-0.17-1.128-0.639-1.43-1.281
				c-0.582-1.261-0.62-2.578-0.715-3.952c-0.056-0.905-0.168-1.826-0.187-2.749c-0.021-0.865,0.074-1.713,0.109-2.58
				c0.022-0.677-0.034-1.373,0.022-2.052c0.093-1.205,0.132-2.43,0.375-3.614c0.171-0.883,0.584-1.712,0.904-2.56
				c0.265-0.696,1.185-0.828,1.826-0.716c0.716,0.133,0.958,0.735,1.092,1.112c0.188,0.545,0.245,1.147,0.283,1.655
				c0.018,0.226-0.096,1.072-1.167,0.678c-0.094-0.584-0.132-0.978-0.208-1.355c-0.019-0.093-0.057-0.28-0.131-0.356
				c-0.075-0.076-0.132-0.168-0.227-0.224c-0.019-0.04-0.036-0.097-0.057-0.075c-0.113,0.018-0.318,0.168-0.357,0.301
				c-0.264,0.64-0.469,1.301-0.583,1.959c-0.189,1.016-0.319,2.051-0.414,3.105c-0.057,0.771,0,1.58-0.019,2.371
				c0,0.678-0.074,1.356-0.074,2.034s0.055,1.354,0.093,2.014c0.075,0.962,0.132,1.939,0.225,2.898
				c0.076,0.696,0.226,1.3,0.679,1.787c0.736,0.812,1.148-2.258,1.186-2.673c0.059-0.452,0.319-0.751,0.83-0.714
				c0.525,0.038,0.771,0.47,0.659,0.902c-0.134,0.509-0.245,1.036-0.377,1.544C117.247,153.064,117.08,153.609,116.815,154.121z"/>
			<path fill="#FFFFFF" d="M120.449,136.875c-0.64-0.02-0.923-0.228-0.885-0.773c0.021-0.166,0.566-0.507,1.337-0.526
				c0.547-0.018,1.188,0,1.62,0c0.432,0,0.847,0,1.28-0.036c0.301-0.02,0.883,0.02,0.902,0.694c0.038,0.735-0.64,0.773-0.883,0.773
				c-0.322-0.021-0.623-0.021-0.924-0.038c0,1.75-0.02,3.465,0,5.176c0,1.056,0.056,2.11,0.094,3.145
				c0.038,0.886,0.094,1.751,0.114,2.636c0.035,1.64,0.02,3.296,0.035,4.934c0,0.507,0.058,0.998,0.04,1.487
				c-0.021,0.302-0.303,0.659-0.585,0.736c-0.547,0.168-0.886-0.265-0.886-0.716c0.021-0.604,0.021-1.208,0.021-1.789
				c0.02-1.639,0.039-3.256,0.02-4.896c-0.02-1.394-0.131-2.785-0.187-4.179c-0.041-0.791-0.076-1.599-0.076-2.392
				c0-1.092,0.035-2.204,0.035-3.313c0-0.28-0.035-0.585-0.093-0.885C121.107,136.875,120.788,136.875,120.449,136.875z"/>
			<path fill="#FFFFFF" d="M127.528,138.117l0.864-0.904c-0.092,1.996-0.168,3.465-0.204,4.951
				c-0.039,1.245-0.021,2.486-0.039,3.748c-0.021,1.109-0.076,2.22-0.095,3.332c0,0.489,0.059,0.976,0.074,1.487
				c0.021,1.206,0.06,2.409,0.038,3.635c0,0.262-0.318,0.753-0.715,0.753c-0.471-0.021-0.754-0.357-0.733-0.849
				c0.035-1.26,0.055-2.542,0.055-3.804c0-1.41-0.02-2.822-0.02-4.216c0-1.017,0-2.032,0.02-3.05
				c0.038-1.167,0.134-2.315,0.152-3.463c0.018-1.092-0.038-2.203-0.075-3.295c0-0.303,0.058-0.903,0.753-0.903
				c0.302,0,0.525,0.149,0.621,0.397c0.036,0.148,0.036,0.279,0.057,0.432c0.037,0.432,0.075,0.863,0.15,1.675L127.528,138.117z"/>
			<path fill="#FFFFFF" d="M135.604,148.284c-0.076,1.053-0.132,2.088-0.264,3.123c-0.094,0.81-0.302,1.602-0.488,2.391
				c-0.133,0.585-0.492,1.167-1.223,1.3c-0.624,0.113-1.451-0.205-1.829-0.867c-0.169-0.28-0.28-0.621-0.339-0.921
				c-0.151-0.791-0.281-1.601-0.508-2.769h0.073c-0.093-0.584-0.207-1.148-0.242-1.733c-0.076-1.221-0.114-2.464-0.114-3.688
				c0-1.148,0.037-2.316,0.132-3.464c0.057-0.735,0.208-1.488,0.356-2.221c0.132-0.68,0.283-1.375,0.528-2.016
				c0.208-0.564,0.563-1.093,0.884-1.543c0.376-0.527,1.582-0.378,1.938-0.038c0.602,0.528,1.034,1.185,1.072,2.09
				c0.038,0.622,0.225,1.243,0.245,1.881c0.037,1.035,0,2.072,0,3.106c0,0.623,0,1.262-0.021,1.901
				C135.756,145.968,135.68,147.132,135.604,148.284z M133.777,137.139c-0.036-0.039-0.074-0.074-0.132-0.115
				c-0.037-0.037-0.094-0.092-0.13-0.168c-0.02-0.037,0,0.02-0.058,0.056c-0.508,0.472-0.694,1.13-0.828,1.845
				c-0.281,1.639-0.508,3.276-0.641,4.933c-0.093,1.394-0.037,2.787-0.037,4.161c0.226,1.486,0.433,2.954,0.658,4.423
				c0.075,0.433,0.169,0.848,0.358,1.167c0.056,0.095,0.245,0.244,0.472,0.302c-0.021-0.019-0.021-0.038-0.04-0.038
				c0.056-0.074,0.094-0.188,0.132-0.244c0.058-0.131,0.096-0.264,0.131-0.415c0.059-0.15,0.096-0.3,0.133-0.452
				c0.262-0.865,0.34-1.769,0.396-2.692c0.073-0.922,0.093-1.861,0.207-2.784c0.114-1.072,0.059-2.164,0.075-3.256
				c0.019-1.056,0.074-2.109,0.037-3.163c-0.021-0.828-0.208-1.656-0.262-2.485C134.229,137.741,134.097,137.4,133.777,137.139z"/>
			<path fill="#FFFFFF" d="M142.794,147.72c0-0.51-0.071-1.02-0.071-1.507c-0.022-1.112-0.022-2.222-0.022-3.333
				c-0.018-1.448,0-2.898,0.022-4.328c0-0.755,0.017-1.509,0.071-2.261c0.02-0.244,0.172-0.395,0.32-0.544
				c0.038-0.021,0.059-0.059,0.395-0.472c0.304,0.452,0.321,0.472,0.341,0.489c0.132,0.171,0.245,0.319,0.245,0.526
				c0,1.413-0.074,2.826-0.074,4.236c-0.019,1.45-0.019,2.898,0,4.33c0,0.96,0.074,1.922,0.095,2.881c0,0.903,0,1.826,0,2.747
				c0,1.224,0,2.448,0,3.672c0,0.677-0.417,1.018-0.885,0.962c-0.436-0.037-0.887-0.416-0.94-0.962
				c-0.114-1.017-0.208-2.052-0.379-3.067c-0.187-1.188-0.451-2.373-0.695-3.56c-0.093-0.396-0.244-0.789-0.338-1.184
				c-0.116-0.492-0.207-0.98-0.303-1.47c-0.262-1.243-0.507-2.467-0.81-3.69c-0.207-0.884-0.488-1.749-0.735-2.634
				c-0.057-0.17-0.132-0.34-0.207-0.49l0.339-0.169c0.115,0.225,0.151,0.472,0.169,0.733c0.019,0.265,0.019,0.527,0.019,0.811
				c0.021,0.734,0.021,1.467,0.04,2.221c0.018,0.376,0.038,0.752,0.038,1.13c0,1.431,0,2.861,0.018,4.273
				c0.02,1.035,0.113,2.051,0.15,3.086c0.039,1.224,0.058,2.466,0.113,3.688c0.02,0.53-0.302,0.85-0.771,0.85
				c-0.208,0-0.772-0.303-0.695-0.717c0.112-0.547,0.094-1.11,0.073-1.676c-0.037-0.584-0.095-1.167-0.095-1.732
				c-0.019-0.772-0.056-4.028-0.074-4.573c-0.036-1.225-0.02-2.432-0.02-3.653c0-0.602,0.038-1.205,0.02-1.809
				c0-0.469-0.092-0.922-0.112-1.373c-0.037-0.716-0.037-1.433-0.058-2.146c-0.018-0.057,0-0.188-0.018-0.244
				c-0.075-0.227-0.189-0.849,0.488-1.018c0.339-0.075,0.884-0.095,1.111,0.526c0.263,0.695,0.584,1.375,0.771,2.091
				c0.357,1.28,0.642,2.597,0.962,3.896c0.433,1.806,0.884,3.595,1.279,5.421c0.056,0.284,0.113,0.546,0.168,0.83
				C142.758,148.244,142.794,147.98,142.794,147.72z"/>
		</g>
	</g>
</g>
<g>
	<g>
		<path fill="#FFFFFF" d="M88.523,12.175c-3.092,0-6.058,1.69-8.896,5.073c-1.867-3.342-4.502-5.014-7.904-5.014
			c-2.587,0-5.232,1.4-7.934,4.198v-3.653h-5.31v27.782h5.31V20.39c1.185-1.33,2.239-2.256,3.165-2.78
			c0.922-0.522,1.938-0.784,3.048-0.784c1.982,0,3.373,0.609,4.171,1.825c0.797,1.219,1.195,3.369,1.195,6.448v15.46h5.338V20.39
			c1.905-2.296,3.957-3.443,6.154-3.443c1.712,0,3.023,0.614,3.938,1.841c0.914,1.228,1.372,3,1.372,5.315v16.456h5.309V24.163
			c0-4.046-0.841-7.057-2.521-9.028C93.273,13.161,91.129,12.175,88.523,12.175"/>
		<path fill="#FFFFFF" d="M116.589,12.232c-4.123,0-7.551,1.354-10.282,4.063c-2.732,2.706-4.099,6.095-4.099,10.159
			c0,4.027,1.352,7.387,4.056,10.072c2.702,2.688,6.065,4.031,10.094,4.031c4.16,0,7.61-1.322,10.354-3.971
			c2.74-2.646,4.113-5.974,4.113-9.98c0-4.126-1.354-7.553-4.055-10.283C124.066,13.596,120.671,12.232,116.589,12.232
			 M122.934,32.872c-1.662,1.703-3.797,2.552-6.4,2.552c-2.627,0-4.777-0.842-6.447-2.521c-1.672-1.68-2.51-3.85-2.51-6.508
			c0-2.678,0.818-4.881,2.451-6.613c1.635-1.73,3.723-2.597,6.271-2.597c2.625,0,4.804,0.866,6.533,2.597
			c1.729,1.732,2.596,3.916,2.596,6.555C125.427,28.991,124.596,31.173,122.934,32.872"/>
		<path fill="#FFFFFF" d="M141.458,18.664l-0.291,0.483v-6.372h-5.34v27.782h5.34V26.032c0-2.314,0.625-4.317,1.881-6.008
			c1.254-1.693,2.736-2.538,4.449-2.538c1.573,0,3.285,0.905,5.133,2.717l2.8-4.833c-2.177-2.093-4.269-3.138-6.271-3.138
			C146.593,12.234,144.025,14.376,141.458,18.664"/>
		<path fill="#FFFFFF" d="M167.409,4.985c0.807-1.146,2.252-1.723,4.332-1.723c0.776,0,1.594,0.162,2.45,0.483v-5.376
			c-1.52-0.36-2.83-0.543-3.938-0.543c-2.563,0-4.769,1.1-6.604,3.292c-1.838,2.193-2.758,5.526-2.758,9.996v1.661h-3.851v4.953
			h3.851v22.829h5.311V17.729h4.783v-4.953H166.2v-1.661C166.2,8.177,166.604,6.132,167.409,4.985"/>
		<path fill="#FFFFFF" d="M195.646,17.261c-0.75-1.562-1.845-2.789-3.281-3.686c-1.439-0.896-2.996-1.343-4.668-1.343
			c-3.014,0-5.707,1.357-8.078,4.075v-3.533h-5.426v27.781h5.426V20.72c1.748-2.6,3.879-3.896,6.387-3.896
			c1.965,0,3.363,0.609,4.201,1.827c0.834,1.219,1.252,3.247,1.252,6.085v15.823h5.311V24.673
			C196.77,21.292,196.395,18.821,195.646,17.261"/>
	</g>
	<path fill="#FFFFFF" d="M25.229,4.83c-11.791,0-21.351,9.559-21.351,21.353c0,11.791,9.56,21.349,21.351,21.349
		c11.792,0,21.353-9.559,21.353-21.349C46.58,14.389,37.021,4.83,25.229,4.83 M25.229,43.473c-9.549,0-17.292-7.742-17.292-17.292
		c0-8.085,5.549-14.874,13.047-16.766v5.922h8.647V9.454c7.417,1.947,12.891,8.697,12.891,16.727
		C42.521,35.731,34.779,43.473,25.229,43.473"/>
	<path fill="#FFFFFF" d="M25.305,21.843c-2.396,0-4.339,1.941-4.339,4.34c0,2.395,1.941,4.338,4.339,4.338s4.34-1.943,4.34-4.338
		C29.645,23.782,27.702,21.843,25.305,21.843"/>
</g>
</svg>
