<?xml version="1.0" encoding="utf-8"?>
<!-- Generator: Adobe Illustrator 16.0.0, SVG Export Plug-In . SVG Version: 6.00 Build 0)  -->
<!DOCTYPE svg PUBLIC "-//W3C//DTD SVG 1.1//EN" "http://www.w3.org/Graphics/SVG/1.1/DTD/svg11.dtd">
<svg version="1.1" id="Layer_1" xmlns="http://www.w3.org/2000/svg" xmlns:xlink="http://www.w3.org/1999/xlink" x="0px" y="0px"
	 width="749.775px" height="161.676px" viewBox="0 0 749.775 161.676" enable-background="new 0 0 749.775 161.676"
	 xml:space="preserve">
<g>
	<g enable-background="new    ">
		<path fill="#FFFFFF" d="M30.219,19.694c-17.61,0-17.61,27.13,0,27.13c3.858,0,6.907-1.119,8.587-1.99l1.182,9.209
			c-2.738,1.12-6.658,1.866-9.769,1.866c-30.179,0-30.117-45.175,0-45.175c3.111,0,6.098,0.56,8.774,1.742l-1.058,9.146
			C36.255,20.752,34.077,19.694,30.219,19.694z"/>
		<path fill="#FFFFFF" d="M68.487,10.547c30.615,0,30.615,45.86,0,45.86C37.873,56.407,37.873,10.547,68.487,10.547z M68.487,19.694
			c-17.796,0-17.796,27.504,0,27.504C86.284,47.198,86.284,19.694,68.487,19.694z"/>
		<path fill="#FFFFFF" d="M108.685,11.294v35.593h14.125v8.898H99.787V11.294H108.685z"/>
		<path fill="#FFFFFF" d="M139.362,11.294v35.593h14.125v8.898h-23.023V11.294H139.362z"/>
		<path fill="#FFFFFF" d="M161.141,55.785V11.294h22.277v8.898H170.04v8.898h11.698v8.897H170.04v8.898h14.125v8.898h-23.024V55.785
			z"/>
		<path fill="#FFFFFF" d="M213.1,19.694c-17.61,0-17.61,27.13,0,27.13c3.858,0,6.907-1.119,8.587-1.99l1.183,9.209
			c-2.738,1.12-6.658,1.866-9.77,1.866c-30.179,0-30.117-45.175,0-45.175c3.111,0,6.098,0.56,8.773,1.742l-1.058,9.146
			C219.135,20.752,216.958,19.694,213.1,19.694z"/>
		<path fill="#FFFFFF" d="M237.305,55.785V20.192h-11.076v-8.836h31.05v8.836h-11.076v35.593H237.305z"/>
		<path fill="#FFFFFF" d="M264,55.785V11.294h8.898v44.491H264z"/>
		<path fill="#FFFFFF" d="M296.729,56.719l-18.418-45.425h10.267l5.911,14.81l3.236,9.21l3.173-8.898l5.974-15.121h10.268
			L298.721,56.72L296.729,56.719L296.729,56.719z"/>
		<path fill="#FFFFFF" d="M322.553,55.785V11.294h22.277v8.898h-13.378v8.898h11.698v8.897h-11.698v8.898h14.125v8.898h-23.024
			V55.785z"/>
		<path fill="#FFFFFF" d="M371.587,55.785V11.294h22.277v8.898h-13.379v8.898h11.697v8.897h-11.697v8.898h14.125v8.898h-23.023
			V55.785z"/>
		<path fill="#FFFFFF" d="M412.345,32.077l-12.071-20.846h10.766l6.721,12.383l6.657-12.383h10.517L422.8,32.077l14,23.708h-10.516
			L417.76,40.54l-8.588,15.245h-10.826L412.345,32.077z"/>
		<path fill="#FFFFFF" d="M442.213,55.785V11.356h17.485c17.299,0,17.236,27.441,0,27.441h-8.587v16.987L442.213,55.785
			L442.213,55.785z M458.952,30.148c5.974,0,5.974-9.956,0-9.956h-7.841v9.956H458.952z"/>
		<path fill="#FFFFFF" d="M479.736,55.785V11.294h22.275v8.898h-13.379v8.898h11.698v8.897h-11.698v8.898h14.125v8.898h-23.021
			V55.785z"/>
		<path fill="#FFFFFF" d="M533.249,55.785l-8.96-16.987h-4.294v16.987h-8.897V11.294h17.547c15.867,0,17.424,22.339,4.355,26.135
			l10.33,18.356H533.249L533.249,55.785z M519.995,30.148h7.841c6.036,0,6.036-9.956,0-9.956h-7.841V30.148z"/>
		<path fill="#FFFFFF" d="M549.242,55.785V11.294h8.896v44.491H549.242z"/>
		<path fill="#FFFFFF" d="M568.158,55.785V11.294h22.275v8.898h-13.379v8.898h11.698v8.897h-11.698v8.898h14.125v8.898h-23.021
			V55.785z"/>
		<path fill="#FFFFFF" d="M608.417,55.785h-8.897V10.36h2.364l22.463,26.135V11.356h8.961v45.362h-2.364l-22.525-25.14
			L608.417,55.785L608.417,55.785z"/>
		<path fill="#FFFFFF" d="M663.922,19.694c-17.609,0-17.609,27.13,0,27.13c3.858,0,6.907-1.119,8.588-1.99l1.183,9.209
			c-2.737,1.12-6.658,1.866-9.771,1.866c-30.179,0-30.116-45.175,0-45.175c3.111,0,6.1,0.56,8.774,1.742l-1.059,9.146
			C669.958,20.752,667.78,19.694,663.922,19.694z"/>
		<path fill="#FFFFFF" d="M680.785,55.785V11.294h22.276v8.898h-13.379v8.898h11.698v8.897h-11.698v8.898h14.125v8.898h-23.022
			V55.785z"/>
		<path fill="#FFFFFF" d="M711.214,43.589c5.104,3.609,10.642,3.733,12.693,3.547c2.614-0.187,4.854-2.054,4.604-4.479
			c-0.188-2.551-2.116-3.671-4.604-4.542c-6.97-2.552-13.191-6.099-13.191-13.565c0-7.466,5.165-13.191,12.569-13.565
			c2.303-0.124,5.352-0.124,11.076,1.867l-1.12,8.587c-4.916-1.991-7.716-1.929-9.085-1.866c-3.173,0.187-4.604,2.488-4.418,4.978
			c0.249,2.489,2.427,3.609,4.979,4.48c6.906,2.551,12.88,6.533,12.88,13.627c0,7.405-5.102,13.067-13.439,13.503
			c-2.489,0.187-8.027-0.124-14.062-3.235L711.214,43.589z"/>
	</g>
	<g enable-background="new    ">
		<path fill="#FFFFFF" d="M46.936,73.181h2.8v45.176h-9.023l0.062-24.828l-11.388,11.947L18,93.527v24.828H8.978V73.181h2.862
			L29.388,92.72L46.936,73.181z"/>
		<path fill="#FFFFFF" d="M74.502,72.247h0.933l18.73,46.108H84.146l-1.804-4.791H67.595l-1.742,4.791H55.772L74.502,72.247z
			 M79.044,105.227L75,93.652l-4.169,11.574H79.044L79.044,105.227z"/>
		<path fill="#FFFFFF" d="M100.388,73.865h8.898c0,5.911,0,11.822,0,17.734l11.2-17.734h10.392l-14.436,21.966l15.681,22.524
			h-11.014l-11.823-17.422c0,5.725,0,11.697,0,17.422h-8.898V73.865L100.388,73.865z"/>
		<path fill="#FFFFFF" d="M137.972,118.355v-44.49h8.898v44.49H137.972z"/>
		<path fill="#FFFFFF" d="M165.786,118.355h-8.898V72.932h2.365l22.463,26.134V73.928h8.96v45.362h-2.365l-22.525-25.14V118.355
			L165.786,118.355z"/>
		<path fill="#FFFFFF" d="M221.291,118.605c-29.371,0-30.864-43.994,0-45.113c5.289-0.187,9.583,1.369,10.392,1.617l-1.058,9.023
			c-1.742-0.747-4.604-1.741-9.333-1.618c-17.983,0.622-17.174,27.192,0,27.192c0.809,0,1.68-0.124,2.489-0.249V96.08h9.023v19.538
			C229.38,117.548,225.522,118.605,221.291,118.605z"/>
	</g>
	<g>
		<g opacity="0.2">
			<g>
				<g>
					<path d="M283.103,54.354l1.996,0.511l1.138,1.302l0.415,3.127l-0.465,6.684l-1.897,4.039l-2.049,4.146l-5.357,13.847
						l-4.979,11.826l-1.233,3.869l-1.208,2.066l-0.48,2.168l-1.065,1.92l-0.629,2.156l-1.622,7.57l-1.115,3.76l-0.978,4.115
						l-2.188,4.432l-1.986,1.666l-2.424,1.014l-1.628-0.807l-0.299-5.662l0.316-0.729l-0.272-0.99l0.095-3.561l0.37-2.822
						l-0.281-0.615l0.007-6.021l0.263-4.426l0.971-3.469l1.146-4.853l1.092-2.769l2.072-7.688l0.906-1.556l1.696-4.75l2.737-6.897
						l0.177-1.783l1.33-1.904l1.342-2.803l1.916-3.02l0.158-0.912l3.078-4.996l0.722-0.479l1.316-2.37l2.886-2.731l3.012-1.47
						L283.103,54.354z"/>
				</g>
				<g>
					<path d="M343.391,78.077c-8.916,20.721-9.407,18.25-14.389,27.687c-0.653,5.209-2.798,10.104-2.789,10.678
						c0.074,4.885,2.641,7.375,7.557,7.478c0.745,0.015,2.529-0.242,3.273-0.228c1.042,0.021,1.791,0.185,2.396,0.64
						c0.745,0.017,1.633-0.261,2.511-0.979c0.016,0.739,0.195,2.078,0.685,4.012c-0.3-0.154-0.603-0.312-1.057-0.618
						c0.007,0.295-0.133,0.733-0.42,1.172c-10.089,3.476-9.361,2.34-12.798,2.228c-4.933-0.16-4.975-3.299-11.217-15.433
						c-0.149-0.14-0.445-0.142-0.741-0.142c-0.445,0-0.889,0.139-1.476,0.699c-6.343,5.387-13.465,12.11-23.629,16.772
						c-1.049,0.358-0.745-0.824-3.905,2.5c-0.151-0.007-0.452-0.021-0.749-0.031c-1.349-0.058-8.394,0.044-10.437-4.297
						c-1.031-1.19-3.678-3.953-3.636-6.769c0.054-3.705,1.278-6.262,3.525-7.93c0.644-4.265,5.426-10.062,9.137-14.358
						c1.181-0.7,1.908,0.334,5.017-5.63c3.959-1.649,2.937-3.213,10.091-9.851c1.6-0.924,3.632-2.706,6.095-5.369
						c-0.293,0.021-0.583,0.043-0.583-0.094c-0.004-0.554,7.829-2.832,7.974-2.843c1.017-0.081,2.908,0.054,5.678,0.552
						c1.323,1.187,2.495,1.527,8.044,2.434c3.059-7.938,1.414-2.424,8.417-22.277c0.661-2.742,1.643-10.287,4.508-10.671
						c0.573-0.077,2.896,0.817,3.469,0.74c0.43-0.056,0.711-0.245,0.852-0.411c1.202,1.96,5.002,3.911,6.582,3.721l0.144-0.018
						C350.984,57.914,351.308,59.1,343.391,78.077z M323.418,86.953c-0.882-0.38-1.471-0.633-1.616-0.624
						c-0.729,0.043-1.456,0.366-2.326,0.987l-1.739,1.229c-2.183,0.965-6.979,4.844-14.426,11.355
						c-2.201,1.979-2.492,3.354-4.404,4.484c-12.59,11.518-18.467,21.146-18.48,22.447c-0.006,0.521,0.733,1.191,0.733,1.322
						l0.896,0.023c11.356-3.826,4.329,0.252,21.461-11.426c0.442-0.547,1.033-1.23,1.771-2.057l2.215-1.383
						c0.292-0.555,0.733-1.107,1.469-1.807c2.803-1.131,3.378-3.094,8.198-8.234c2.194-1.326,3.646-2.927,4.715-10.809
						c0.139-0.721,1.55-4.371,1.548-4.516L323.418,86.953z"/>
				</g>
				<g>
					<path d="M378.53,103.154c-7.527,0.119-12.281-0.735-14.554-2.557c-3.486,6.393-5.257,11.312-5.155,14.685
						c0.027,0.916,0.812,2.303,2.211,4.313c2.801,3.896,2.949,3.898,8.335,4.644c0.763,0.483,2.47,2.403,6.798,2.521
						c3.134,0.086,7.854-1.219,13.837-4.139c6.549-3.305,11.801-8.52,12.691-8.514c0.442,0.002,0.751,0.168,1.056,0.341
						c-0.077,1.493-0.426,3.481-1.066,5.627c-0.704,0.815-12.016,18.097-29.719,17.253c-6.6-0.309-15.569-10.003-20.047-15.572
						c-5.073-6.381-6.665-16.707-6.763-20.599c0.559-1.216,1.09-3.479,1.743-6.661c-0.042-1.654,1.754-0.365,2.916-6.164
						c2.587-1.8,0.64-3.369,5.196-7.603l2.553-2.468c1.391-2.104,3.628-5.055,6.848-8.896l4.399-3.042
						c1.566-0.928,2.387-2.271,2.618-3.88l1.154-0.108c0.58-0.054,2.549,2.002,3.279,2.098c6.564,0.558,10.076,0.91,10.221,0.896
						c6.466,1.276,15.87,8.747,16.177,14.926C404.26,100.618,380.745,103.12,378.53,103.154z M381.747,77.077l-4.116,3.139
						c-7.279,4.996-9.285,10.431-13.619,16.972c1.934,0.567,2.974,0.853,3.121,0.85c1.03-0.028,3.34-1.346,7.209-4.146
						c9.419-7.084,9.242-11.271,10.112-15.04C383.229,77.627,382.328,77.04,381.747,77.077z"/>
				</g>
				<g>
					<path d="M464.001,82.788c-0.055,1.299-0.073,3.153-0.174,5.93c-2.153,3.015-3.33,16.072-5.817,25.38
						c-0.847,2.896-1.416,7.784-1.855,14.649l-0.974,14.918c-0.092,0.894-0.03,1.797,0.038,2.879
						c0.081,1.261,0.175,2.705,0.583,4.349c-0.513-0.933-1.659-2.44-3.44-4.523c-3.401-3.946-3.997-6.291-4.369-12.188
						c-0.326-5.183-0.094-8.562,0.383-10.52c-0.495-0.727-0.966-1.094-1.412-1.104c-1.64-0.037-3.209,3.474-12.349,12.812
						c-0.835,3.612-3.432,5.394-13.323,10.83c-1.822,2.427-3.711,3.653-5.974,3.5c-0.305-0.021-4.784-2.493-6.204-6.913
						c-1.963-6.428-5.941-8.26-6.241-14.555c-0.087-1.823,0.228-4.629,1.069-8.758c1.167-0.48,2.446-1.633,3.987-3.451
						c0.389-4.188,0.7-3.848,8.208-18.799c3.229-2.988,2.198-5.703,7.603-11.76c7.297-13.303,13.032-22.381,18.118-22.769
						c1.6-0.121,3.582,1.177,6.253,4.065c3.495-0.236,2.191,2.217,9.806,4.312c-0.16-0.172,6.642,2.773,6.979,7.592
						C464.931,79.223,463.938,81.864,464.001,82.788z M444.8,83.73c-0.73,0.028-2.269,1.346-4.325,3.742
						c-3.228,2.59-7.009,8.338-17.771,24.418c-1.073,2.055-8.821,15.848-8.673,18.719c0.053,1.015,0.37,1.363,1.117,1.394
						c2.243,0.084,6.231-6.25,12.316-11.957c0.922-2.062,2.49-3.254,9.805-12.489c-0.104-1.761,4.346-11.207,6.703-13.582
						c1.43-5.414,2.284-8.144,2.435-8.146C446.312,84.389,445.83,83.689,444.8,83.73z M447.248,82.911
						c0.159,0.174,0.475,0.522,0.927,0.684c0.136-0.185,0.245-0.729,0.358-1.278C448.384,82.32,447.393,82.905,447.248,82.911z"/>
				</g>
				<g>
					<path d="M515.417,77.963c-3.484,4.131-15.31,14.705-14.225,28.357c0.029,0.393,1.189,5.666,3.488,15.85l3.517,15.939
						c0.094,1.177-0.405,4.268-1.504,9.262c-2.432,11.062-3.654,8.846-4.713,8.768c-4.078-0.309-8.446-0.443-15.111-3.199
						c-2.612-4.877-9.312-4.188-13.521-17.041c-0.566-1.688-1.669-2.479-3.467-2.555c-1.646-0.064-11.178,11.672-15.925,12.471
						c0.324-1.955,1.052-4.607,2.179-7.975c2.229-4.783,17.269-13.824,18.422-14.352c6.916-7.168,14.294-13.736,17.341-22.373
						c-0.192-2.504-0.346-6.355-0.624-11.943c-0.104-1.347,1.062-7.189,3.515-17.207c1.321-5.543,1.971-10.287,1.806-14.205
						c1.605-1.887,3.983-5.035,7.146-9.26c-0.485-0.56,11.26,10.564,14.899,10.322c0.292-0.018,0.584-0.039,0.875-0.057l0.228,2.625
						C520.243,67.249,518.804,72.787,515.417,77.963z M497.945,127.402c-0.256-3.287-2.063-9.312-5.41-18.017l-18.649,19.294
						c1.587,1.357,2.824,1.963,3.873,2c0.748,0.028,2.759-1.021,3.507-0.994c0.602,0.021,2.592,2.733,3.338,2.763
						c0.45,0.018,0.857-0.531,1.455-0.507c1.352,0.051,9.267,4.01,10.915,4.086c0.602,0.024,1.454-0.514,1.604-0.506
						L497.945,127.402z"/>
				</g>
			</g>
		</g>
		<g>
			<g>
				<g>
					<path fill="#1BE8ED" d="M277.358,53.793l1.91,0.487l1.087,1.245l0.396,2.992l-0.444,6.395l-1.814,3.864l-1.961,3.967
						l-5.126,13.245l-4.764,11.312l-1.18,3.705l-1.157,1.979l-0.458,2.074l-1.019,1.836l-0.603,2.062l-1.551,7.244l-1.066,3.594
						l-0.935,3.938l-2.093,4.238l-1.899,1.594l-2.32,0.97l-1.558-0.771l-0.287-5.416l0.302-0.695l-0.258-0.948l0.089-3.404
						l0.354-2.698l-0.267-0.59l0.007-5.761l0.251-4.235l0.929-3.315l1.098-4.642l1.042-2.646l1.983-7.354l0.865-1.486l1.624-4.545
						l2.619-6.603l0.169-1.707l1.272-1.821l1.284-2.683l1.833-2.888l0.15-0.872l2.947-4.779l0.69-0.457l1.259-2.27l2.76-2.611
						l2.881-1.408L277.358,53.793z"/>
				</g>
				<g>
					<path fill="#1BE8ED" d="M335.035,76.489c-8.528,19.823-8.998,17.459-13.765,26.487c-0.625,4.983-2.676,9.668-2.669,10.217
						c0.07,4.67,2.528,7.056,7.231,7.152c0.712,0.012,2.419-0.232,3.131-0.22c0.998,0.021,1.713,0.176,2.292,0.608
						c0.713,0.019,1.562-0.245,2.401-0.938c0.016,0.709,0.188,1.988,0.658,3.838c-0.289-0.148-0.578-0.297-1.012-0.592
						c0.006,0.283-0.126,0.703-0.403,1.123c-9.651,3.322-8.955,2.236-12.244,2.129c-4.718-0.154-4.758-3.156-10.729-14.766
						c-0.143-0.133-0.426-0.133-0.71-0.133c-0.426,0-0.849,0.133-1.411,0.668c-6.068,5.152-12.883,11.588-22.606,16.051
						c-1.002,0.344-0.711-0.789-3.736,2.391c-0.144-0.006-0.431-0.018-0.716-0.029c-1.29-0.055-8.03,0.039-9.985-4.11
						c-0.984-1.142-3.519-3.782-3.478-6.476c0.053-3.547,1.224-5.99,3.373-7.588c0.616-4.078,5.191-9.623,8.742-13.736
						c1.129-0.668,1.826,0.32,4.799-5.385c3.788-1.58,2.811-3.074,9.654-9.424c1.531-0.883,3.476-2.59,5.831-5.14
						c-0.279,0.022-0.558,0.043-0.559-0.089c-0.003-0.527,7.49-2.708,7.629-2.719c0.973-0.078,2.782,0.052,5.432,0.525
						c1.267,1.137,2.387,1.463,7.697,2.33c2.926-7.595,1.353-2.318,8.053-21.314c0.633-2.623,1.573-9.84,4.312-10.208
						c0.548-0.074,2.771,0.78,3.319,0.708c0.413-0.055,0.681-0.234,0.815-0.395c1.149,1.875,4.785,3.742,6.296,3.559l0.138-0.016
						C342.3,57.199,342.61,58.334,335.035,76.489z M315.927,84.98c-0.845-0.363-1.406-0.604-1.546-0.597
						c-0.697,0.039-1.394,0.353-2.225,0.943l-1.664,1.178c-2.089,0.922-6.677,4.634-13.802,10.862
						c-2.105,1.896-2.384,3.207-4.214,4.294c-12.044,11.016-17.668,20.229-17.68,21.475c-0.005,0.498,0.702,1.142,0.702,1.267
						l0.856,0.022c10.864-3.661,4.142,0.242,20.532-10.933c0.424-0.521,0.988-1.178,1.695-1.969l2.119-1.319
						c0.28-0.529,0.703-1.06,1.406-1.728c2.681-1.084,3.232-2.959,7.842-7.881c2.1-1.269,3.488-2.8,4.512-10.341
						c0.131-0.688,1.482-4.181,1.479-4.317L315.927,84.98z"/>
				</g>
				<g>
					<path fill="#1BE8ED" d="M368.654,100.482c-7.202,0.11-11.75-0.705-13.925-2.444c-3.335,6.112-5.029,10.819-4.932,14.047
						c0.026,0.877,0.779,2.203,2.115,4.127c2.681,3.729,2.823,3.731,7.978,4.44c0.727,0.465,2.359,2.3,6.502,2.414
						c2.997,0.082,7.513-1.168,13.235-3.961c6.267-3.16,11.292-8.149,12.146-8.146c0.424,0.004,0.719,0.162,1.011,0.326
						c-0.074,1.428-0.407,3.33-1.021,5.385c-0.676,0.777-11.496,17.312-28.434,16.506c-6.314-0.295-14.896-9.57-19.181-14.898
						c-4.852-6.104-6.376-15.982-6.468-19.707c0.534-1.161,1.042-3.329,1.667-6.371c-0.042-1.583,1.677-0.352,2.789-5.896
						c2.475-1.722,0.612-3.225,4.97-7.273l2.443-2.361c1.333-2.013,3.472-4.837,6.553-8.512l4.208-2.912
						c1.498-0.888,2.285-2.172,2.505-3.712l1.106-0.104c0.554-0.051,2.438,1.916,3.136,2.01c6.283,0.531,9.637,0.867,9.777,0.855
						c6.188,1.221,15.187,8.367,15.478,14.28C393.269,98.053,370.771,100.447,368.654,100.482z M371.73,75.532l-3.937,3.002
						c-6.965,4.78-8.884,9.979-13.032,16.233c1.852,0.547,2.847,0.815,2.987,0.813c0.986-0.029,3.196-1.289,6.9-3.968
						c9.008-6.776,8.841-10.785,9.67-14.39C373.149,76.057,372.287,75.499,371.73,75.532z"/>
				</g>
				<g>
					<path fill="#1BE8ED" d="M450.425,80.996c-0.053,1.242-0.071,3.018-0.167,5.673c-2.06,2.881-3.185,15.379-5.563,24.28
						c-0.812,2.771-1.355,7.447-1.777,14.017l-0.929,14.272c-0.088,0.854-0.032,1.72,0.035,2.754
						c0.076,1.206,0.168,2.588,0.558,4.16c-0.488-0.896-1.586-2.336-3.293-4.329c-3.255-3.773-3.824-6.021-4.179-11.658
						c-0.313-4.957-0.093-8.192,0.361-10.062c-0.473-0.693-0.923-1.047-1.352-1.061c-1.566-0.035-3.07,3.324-11.812,12.258
						c-0.8,3.457-3.276,5.158-12.746,10.359c-1.739,2.322-3.552,3.496-5.716,3.35c-0.289-0.02-4.575-2.385-5.934-6.611
						c-1.88-6.15-5.686-7.901-5.973-13.926c-0.084-1.744,0.218-4.428,1.021-8.381c1.114-0.461,2.344-1.56,3.816-3.301
						c0.369-4.005,0.669-3.682,7.853-17.984c3.089-2.856,2.104-5.455,7.271-11.248c6.979-12.729,12.468-21.414,17.334-21.786
						c1.527-0.115,3.426,1.125,5.979,3.892c3.345-0.227,2.103,2.119,9.38,4.125c-0.149-0.164,6.355,2.652,6.681,7.264
						C451.314,77.586,450.364,80.113,450.425,80.996z M432.054,81.896c-0.7,0.028-2.17,1.287-4.136,3.58
						c-3.089,2.479-6.707,7.979-17.005,23.358c-1.027,1.97-8.438,15.164-8.295,17.909c0.049,0.97,0.353,1.306,1.064,1.333
						c2.149,0.082,5.968-5.979,11.785-11.438c0.882-1.976,2.383-3.115,9.381-11.949c-0.1-1.687,4.155-10.726,6.414-12.996
						c1.363-5.178,2.188-7.789,2.323-7.793C433.502,82.529,433.04,81.857,432.054,81.896z M434.396,81.114
						c0.149,0.167,0.45,0.501,0.887,0.653c0.13-0.179,0.232-0.7,0.343-1.224C435.483,80.549,434.536,81.109,434.396,81.114z"/>
				</g>
				<g>
					<path fill="#1BE8ED" d="M499.614,76.381c-3.333,3.951-14.647,14.069-13.608,27.129c0.029,0.375,1.143,5.42,3.34,15.164
						l3.36,15.248c0.09,1.125-0.387,4.084-1.438,8.863c-2.319,10.583-3.494,8.46-4.508,8.385c-3.899-0.293-8.083-0.422-14.459-3.061
						c-2.499-4.664-8.906-4.004-12.932-16.301c-0.544-1.617-1.598-2.373-3.317-2.443c-1.575-0.062-10.689,11.167-15.233,11.932
						c0.312-1.873,1.006-4.412,2.086-7.631c2.128-4.576,16.518-13.227,17.622-13.73c6.616-6.854,13.677-13.143,16.59-21.402
						c-0.187-2.396-0.328-6.083-0.603-11.43c-0.099-1.287,1.021-6.875,3.363-16.459c1.266-5.305,1.887-9.844,1.729-13.59
						c1.532-1.805,3.81-4.816,6.835-8.858c-0.467-0.536,10.771,10.108,14.258,9.876c0.275-0.021,0.56-0.04,0.837-0.057l0.214,2.513
						C504.232,66.129,502.855,71.428,499.614,76.381z M482.899,123.68c-0.246-3.146-1.979-8.908-5.179-17.236l-17.843,18.459
						c1.521,1.3,2.7,1.88,3.706,1.916c0.714,0.023,2.638-0.979,3.355-0.95c0.568,0.019,2.475,2.612,3.189,2.642
						c0.434,0.02,0.82-0.508,1.395-0.484c1.29,0.051,8.861,3.836,10.438,3.91c0.574,0.023,1.396-0.488,1.537-0.483L482.899,123.68z"
						/>
				</g>
			</g>
		</g>
	</g>
</g>
<g enable-background="new    ">
	<path fill="#FFFFFF" d="M536.192,121.998v-17.797h-13.316v17.797h-8.898V77.507h8.898v17.797h13.316V77.507h8.898v44.491H536.192z"
		/>
	<path fill="#FFFFFF" d="M569.856,75.889h0.934l18.73,46.109h-10.019l-1.805-4.791H562.95l-1.742,4.791h-10.081L569.856,75.889z
		 M574.399,108.868l-4.045-11.573l-4.169,11.573H574.399z"/>
	<path fill="#FFFFFF" d="M595.743,121.998V77.569h17.484c17.299,0,17.236,27.441,0,27.441h-8.586v16.987H595.743z M612.481,96.361
		c5.974,0,5.974-9.956,0-9.956h-7.84v9.956H612.481z"/>
	<path fill="#FFFFFF" d="M633.265,121.998V77.569h17.486c17.299,0,17.236,27.441,0,27.441h-8.588v16.987H633.265z M650.004,96.361
		c5.974,0,5.974-9.956,0-9.956h-7.841v9.956H650.004z"/>
	<path fill="#FFFFFF" d="M670.787,121.998V77.507h22.276v8.898h-13.378v8.898h11.698v8.897h-11.698v8.898h14.125v8.898H670.787z"/>
	<path fill="#FFFFFF" d="M711.048,121.998h-8.898V76.573h2.364l22.464,26.135V77.569h8.96v45.362h-2.364l-22.525-25.14V121.998z"/>
</g>
</svg>
