<?xml version="1.0" encoding="utf-8"?>
<!-- Generator: Adobe Illustrator 16.0.0, SVG Export Plug-In . SVG Version: 6.00 Build 0)  -->
<!DOCTYPE svg PUBLIC "-//W3C//DTD SVG 1.1//EN" "http://www.w3.org/Graphics/SVG/1.1/DTD/svg11.dtd">
<svg version="1.1" id="Layer_1" xmlns="http://www.w3.org/2000/svg" xmlns:xlink="http://www.w3.org/1999/xlink" x="0px" y="0px"
	 width="749.775px" height="161.676px" viewBox="0 0 749.775 161.676" enable-background="new 0 0 749.775 161.676"
	 xml:space="preserve">
<g>
	<g>
		<g>
			<path fill="#FFFFFF" d="M52.368,34.929c-21.017,0-21.017,32.379,0,32.379c4.604,0,8.243-1.337,10.248-2.376l1.411,10.991
				c-3.268,1.337-7.946,2.228-11.659,2.228c-36.019,0-35.944-53.916,0-53.916c3.713,0,7.278,0.668,10.471,2.079L61.577,37.23
				C59.572,36.191,56.972,34.929,52.368,34.929z"/>
			<path fill="#FFFFFF" d="M99.669,78.002L88.975,57.728h-5.124v20.274h-10.62v-53.1h20.942c18.938,0,20.794,26.661,5.198,31.191
				L111.7,78.002H99.669z M83.851,47.405h9.357c7.204,0,7.204-11.883,0-11.883h-9.357V47.405z"/>
			<path fill="#FFFFFF" d="M119.493,78.002v-53.1h26.586v10.62h-15.967v10.62h13.962v10.62h-13.962v10.619h16.858v10.62H119.493z"/>
			<path fill="#FFFFFF" d="M175.261,22.972h1.114l22.354,55.03h-11.957l-2.153-5.719h-17.601l-2.079,5.719h-12.031L175.261,22.972z
				 M180.683,62.332l-4.828-13.813l-4.976,13.813H180.683z"/>
			<path fill="#FFFFFF" d="M212.166,78.002V35.522h-13.219V24.978h37.058v10.545h-13.219v42.479H212.166z"/>
			<path fill="#FFFFFF" d="M244.763,78.002v-53.1h10.62v53.1H244.763z"/>
			<path fill="#FFFFFF" d="M278.699,78.002h-10.62V23.789h2.822l26.81,31.19V24.978h10.694v54.139h-2.822l-26.884-30.003V78.002z"/>
			<path fill="#FFFFFF" d="M345.68,78.299c-35.053,0-36.835-52.505,0-53.842c6.312-0.223,11.437,1.634,12.402,1.931l-1.262,10.769
				c-2.08-0.891-5.496-2.079-11.14-1.931c-21.463,0.742-20.497,32.453,0,32.453c0.965,0,2.005-0.148,2.97-0.297V51.415h10.769
				v23.319C355.334,77.036,350.729,78.299,345.68,78.299z"/>
			<path fill="#FFFFFF" d="M402.409,78.002V35.522H389.19V24.978h37.058v10.545h-13.219v42.479H402.409z"/>
			<path fill="#FFFFFF" d="M461.52,78.002V56.763h-15.893v21.239h-10.619v-53.1h10.619v21.24h15.893v-21.24h10.62v53.1H461.52z"/>
			<path fill="#FFFFFF" d="M484.834,78.002v-53.1h26.587v10.62h-15.968v10.62h13.962v10.62h-13.962v10.619h16.858v10.62H484.834z"/>
		</g>
	</g>
	<g opacity="0.3">
		<g>
			<path d="M312.907,81.387c-0.687,0.389-1.704,0.047-2.879,0.805c-0.104-0.1-0.304-0.081-0.404-0.072l-0.977,0.738
				c-0.578,0.7-0.686,0.492-1.479,0.779c-0.1,0.009-0.3,0.026-0.504-0.062c0.003,0.107-0.594,0.268-1.882,0.81l-1.389,0.551
				l-0.896,0.291c-0.103-0.098-0.304-0.08-0.404-0.071c-0.388,0.46-2.196,0.509-3.196,0.7l-0.401,0.035
				c-0.3,0.025-1.092,0.518-1.192,0.526c-4.793,1.457,0.037-2.441-8.948,5.344c-0.099,0.113-1.995,1.399-3.283,3.151
				c-0.386,1.271-3.37,6.005-3.33,9.5c0.002,0.207,0.107,0.406,0.21,0.504l3.261-0.382c1.12-0.164,2.445-0.235,4.177-0.435
				c0.713-0.039,1.328,0.033,2.143-0.011c0.714-0.039,1.527-0.188,2.343-0.233c0.922,0.161,1.636,0.123,3.472,0.024l0.414,0.188
				c1.824-0.522,2.735-0.785,2.735-0.785s0,0-0.102,0.006c0.815-0.045,1.43,0.028,1.745,0.332l0.006,0.213
				c0.105,0.101,0.124,0.74,0.162,2.018l-1.102,0.801l-0.81,0.358l-0.297,0.332l-1.424,0.387c-0.1,0.111-0.604,0.452-1.415,0.807
				l-1.418,0.697c-0.399,0.44-2.338,0.945-7.654,2.112c-1.208,1.504-4.354,4.724-5.785,5.802c-0.301,0.73-0.809,1.568-1.42,2.305
				c-0.722,0.226-3.309,0.194-3.299,1.521c0.036,4.798,1.611,6.409,5.363,6.562l0.12,1.234l0.527,0.407l2.191-0.024l3.227-0.452
				l4.053-0.781l1.864-0.55l3.83-1.006l0.112,0.315c0.107,0.104,0.11,0.211,0.113,0.317c-0.096,0.318-0.09,0.529-0.087,0.636
				l0.107,0.104c0.003,0.106,0.006,0.213,0.006,0.213c0.005,0.212,0.008,0.317,0.119,0.527c-0.204,0.214-0.406,0.429-0.505,0.642
				l-0.11-0.211c0.005,0.212,0.011,0.423,0.121,0.633c-0.522,0.006,0.127,0.846-0.993,2.017l0.005,0.212
				c-0.196,0.528,0.021,0.844-1.199,2.325l0.01,0.422c-4.049,1.995-4.673,2.309-9.921,2.713l-1.367-0.004
				c0,0-0.104,0.104-0.314,0.103c-0.315-0.001-0.948-0.105-2.001-0.314c-3.053-0.52-1.885,0.612-6.95-2.356l-0.528-0.608
				c-1.893-1.819-3.15-2.217-5.557-11.668c0.104-0.304,0.104-0.606,0.104-1.009c0-0.403-0.104-1.307-0.207-2.009
				c0.31-2.226,0.514-5.457,1.229-9.724c-0.003-2.725,0.814-2.664,3.82-14.708l-0.306-0.588c-0.407-0.782-0.713-1.773-1.02-2.967
				c0.301-0.227,0.501-0.446,0.802-0.774l-0.001-0.305l0.5-0.549c-0.101-0.094-0.102-0.296-0.102-0.397
				c0.197-0.729,0.793-1.695,1.688-2.995l0.201-0.018l0.695-0.776c0.695-0.778,1.987-1.819,2.676-2.909
				c-0.201-0.084-0.305-0.587-0.314-1.51c2.865-2.24,3.57-1.691,4.565-1.791c0.3,0.074,0.598,0.043,0.899,0.117l0.298-0.03
				c0.299-0.03,0.898,0.014,0.998,0.004c1.095-0.109,2.981-0.61,5.668-0.879l3.483-0.349c0.6,0.045,1.197-0.014,1.896,0.022
				l6.77-0.675c0.501,0.058,0.999,0.008,1.596-0.051l-0.1,0.01c-0.014-0.429,10.468-0.712,12.348,1.083l0.029,0.656
				C316.992,80.684,314.103,81.168,312.907,81.387z"/>
		</g>
		<g>
			<path d="M326.423,76.579l1.77,1.283l1.859,2.854l2.563,4.502l2.072,4.463l1.704,3.156l4.44-7.035l4.458-5.995l2.731-2.789
				l0.168-0.479l1.058-0.679l1.581-0.383l1.604-0.037l0.532,0.416l1.701,2.648l0.628,1.699l-0.022,2.459l-0.275,0.373l-0.619,2.619
				l-1.085,3.229l-1.081,1.938l-0.069,0.47l-0.736,1.096l-3.707,6.932l-0.581,0.493l-2.742,5.074l-0.103,1.606l2.819,5.38
				l4.063,8.154l5.949,10.544l2.016,3.241l-0.003,1.396l-0.814,0.349h-0.63l-0.967,1.159l-1.254-1.39l-16.104-18.411l-1.692-0.627
				l-0.516,0.016l-5.176,7.648l-4.296,5.626l-1.746,2.779l-1.497,1.552l-1.946,3.302l-0.306,0.218l-2.362,3.712l-1.252,0.316
				l-0.844-0.008l-1.24,0.641l-0.299,0.432l-2.007-0.021l0.3-0.431l0.782-4.225l3.17-9.489l2.837-6.513l4.321-9.286l0.39-0.458
				l0.545-1.463l4.024-7.541l-0.03-0.559l-1.924-3.58l-1.936-4.002l-2.734-8.136l-0.209-4.311l-0.188-3.868l0.833-1.413l0.787-0.299
				l1.03,0.569l0.183-0.352l-0.128-0.546L326.423,76.579z"/>
		</g>
		<g>
			<path d="M394.909,98.365l-0.348,0.638c-0.82,1.032-2.941,3.481-6.938,6.854l-1.266,0.786c-1.506,1.525-2.98,2.312-8.527,4.937
				l-0.73-0.095c-0.082,0.244-4.419,7.668-5.993,7.47c-0.08,1.547-0.151,3.21-0.545,4.76c-0.591,2.971,0.162,0.708-1.778,10.308
				l-0.248,0.826c-0.595,1.767-1.067,3.767-1.638,5.879c-0.105-0.001-0.628,1.404-0.724,1.521l-0.211-0.002
				c-0.304,1.52-2.055,3.485-3.131,3.236c-3.572-2.605-3.112-7.831-3.423-16.326c0.541-6.771,2.403-24.521,3.872-35.918
				c0.166-0.483,1.282-5.651,1.321-8.976c-0.129-0.346-0.075-0.943-0.204-1.289l-0.232-1.643c-0.175-0.935-0.322-1.515-0.26-1.995
				l0.072-0.362c-0.219-0.218-0.466-0.79-0.613-1.369c0.135-0.843,0.75-1.969,2.162-3.172c0.821-1.032,6.334-5.901,10.054-5.8
				c0.816,0.159,3.203-0.085,4.297-0.197c1.414,0.1,2.285-0.233,7.281,1.601c5.338,3.08,8.584,3.277,11.393,12.913
				c-0.088,0.132-0.062,0.379-0.049,0.504l0.391,0.845c0.039,0.373,0.164,0.614,0.217,1.11c0.062,0.621,0.039,1.372,0.002,2
				c0.014,0.124,0.025,0.248,0.152,0.488C398.835,88.676,400.091,91.966,394.909,98.365z M392.362,85.036
				c-0.264-0.6-1.416-1.996-5.309-4.521c-1.811-0.955-4.555-1.091-4.656-1.082c-0.412-0.087-0.713-0.062-1.002,0.084l-2.209,0.187
				c-0.914-0.044-4.197-0.612-4.277,5.428c0.053,0.6,0.004,1.206,0.088,2.163c-0.189,1.34-0.043,3.015-0.07,5.062
				c-0.35,3.029-0.755,4.254-1.362,15.189c0.308-0.014,1.211-0.291,2.709-0.835c6.117-2.932,6.982-3.581,11.746-8.585l2.096-2.698
				c0.562-0.526,2.967-4.133,3.016-6.734C393.073,87.088,392.862,85.988,392.362,85.036z"/>
		</g>
		<g>
			<path d="M441.584,69.622c-0.649,0.459-1.717,0.024-2.816,0.922c-0.116-0.122-0.316-0.104-0.416-0.095l-0.899,0.879
				c-0.501,0.842-0.635,0.587-1.402,0.921c-0.1,0.009-0.3,0.026-0.517-0.087c0.017,0.131-0.568,0.315-1.805,0.952l-1.338,0.645
				l-0.87,0.338c-0.116-0.122-0.316-0.104-0.416-0.096c-0.338,0.555-2.158,0.58-3.146,0.795l-0.4,0.035
				c-0.302,0.026-1.041,0.612-1.142,0.621c-4.664,1.692-0.258-2.982-8.381,6.38c-0.087,0.136-1.841,1.682-2.923,3.81
				c-0.233,1.553-2.649,7.322-2.173,11.618c0.028,0.254,0.158,0.5,0.275,0.621l3.234-0.429c1.106-0.188,2.433-0.259,4.15-0.481
				c0.714-0.039,1.341,0.057,2.157,0.013c0.714-0.039,1.513-0.213,2.329-0.257c0.948,0.209,1.662,0.17,3.497,0.071l0.439,0.236
				c1.772-0.618,2.658-0.927,2.658-0.927s0,0-0.102,0.006c0.815-0.045,1.443,0.052,1.797,0.426l0.032,0.26
				c0.117,0.124,0.214,0.905,0.406,2.465l-1.012,0.966l-0.771,0.429l-0.26,0.403l-1.386,0.457c-0.086,0.134-0.551,0.546-1.323,0.971
				l-1.342,0.839c-0.348,0.534-2.234,1.134-7.436,2.512c-1.028,1.834-3.788,5.76-5.09,7.073c-0.21,0.895-0.615,1.921-1.138,2.821
				c-0.695,0.273-3.295,0.218-3.117,1.852c0.64,5.904,2.42,7.892,6.198,8.091l0.275,1.518l0.577,0.501l2.191-0.024l3.177-0.547
				l3.962-0.946l1.8-0.667l3.714-1.217l0.151,0.386c0.119,0.128,0.135,0.259,0.15,0.388c-0.057,0.389-0.025,0.647-0.01,0.776
				l0.12,0.128c0.016,0.129,0.031,0.26,0.031,0.26c0.031,0.259,0.047,0.388,0.183,0.645c-0.178,0.262-0.354,0.523-0.428,0.783
				L432.9,127.4c0.031,0.259,0.062,0.517,0.197,0.774c-0.522,0.005,0.229,1.033-0.748,2.463l0.031,0.26
				c-0.133,0.646,0.124,1.031-0.917,2.843l0.062,0.515c-3.805,2.443-4.39,2.827-9.586,3.325l-1.367-0.003
				c0,0-0.09,0.126-0.301,0.125c-0.315,0-0.961-0.129-2.04-0.384c-3.117-0.638-1.809,0.753-7.247-2.898l-0.604-0.75
				c-2.125-2.242-3.434-2.734-7.051-14.396c0.066-0.375,0.027-0.749-0.024-1.245c-0.051-0.497-0.271-1.612-0.464-2.479
				c0.025-2.743-0.182-6.728-0.007-11.982c-0.351-3.36,0.479-3.276,1.979-18.073l-0.383-0.729c-0.511-0.971-0.945-2.197-1.407-3.673
				c0.276-0.273,0.45-0.54,0.713-0.939l-0.04-0.375l0.436-0.667c-0.114-0.117-0.141-0.367-0.154-0.492
				c0.107-0.893,0.588-2.071,1.328-3.654l0.201-0.018l0.604-0.941c0.605-0.943,1.781-2.195,2.341-3.521
				c-0.213-0.107-0.381-0.728-0.506-1.862c2.621-2.687,3.402-1.997,4.397-2.096c0.313,0.097,0.611,0.067,0.925,0.164l0.299-0.03
				c0.299-0.03,0.91,0.038,1.009,0.028c1.096-0.109,2.943-0.681,5.631-0.95l3.483-0.349c0.612,0.069,1.21,0.01,1.922,0.069
				l6.77-0.675c0.515,0.081,1.012,0.031,1.609-0.028l-0.1,0.01c-0.065-0.523,10.506-0.642,12.617,1.577l0.106,0.797
				C445.63,68.849,442.766,69.38,441.584,69.622z"/>
		</g>
		<g>
			<path d="M503.001,127.182c-0.329,0.569-1.686,0.583-2.262,1.578c-0.522,0.004-0.837,0.007-0.963-0.133l-0.143,0.424
				c-0.291,0.145-0.501,0.146-0.814,0.149c-0.126-0.142-0.23-0.141-0.335-0.14l-0.523,0.004c-1.031-1.257-4.418-2.203-8.2-4.395
				l-2.001-0.809c-1.665-0.669-5.199-2.69-10.336-5.761l-0.682-0.398c-2.355-1.182-5.178-2.753-8.429-4.438l-2.303-0.885
				l-0.873,0.434c-1.925,1.819-3.235,3.611-6.044,4.354l-0.073,1.75l0.146,1.073c0.292,2.145-0.385,4.84-0.753,7.524l0.055,0.401
				c0.072,0.535-0.445,6.021-0.445,6.021l0.018,0.134c-0.676,2.002-0.709,2.535-1.703,5.329l-0.701,1.06
				c-0.088,0.132-0.509,0.13-1.141,0.126c-0.105-0.001-1.702-0.938-3.643-3.723l-0.245-0.266l-0.24-1.849
				c-0.123-0.132-0.245-0.264-0.401-0.661l-0.704-5.416c0.053-0.397,0.001-0.794-0.067-1.321c-0.069-0.529-0.138-1.058-0.311-1.585
				c0.211-1.592,0.022-4.635-0.133-7.417c-0.017-0.133-0.017-0.133-0.034-0.265c-0.121-0.926-0.035-2.653,0.171-5.05
				c0.572-6.678-0.041-5.054,0.29-9.6c0.519-6.975,0.433-10.721,1.383-20.455l-0.107-0.8c0.065-0.275,0.213-0.689,0.344-1.238
				l-0.125-0.935c-0.126-0.935,0.043-2.702,0.523-5.172c0.238-1.237-0.361-2.674,4.508-4.868c0.32,0.108,0.62,0.081,1.039,0.18
				l1.201-0.106c0.281-0.162,0.664-0.333,1.345-0.53c1.33-1.354,8.913-8.437,11.104-8.655c-0.1,0.01,4.373-1.841,5.566-1.962
				c1.393-0.142,2.946,0.123,4.984,0.908c-0.582-0.507,6.817,2.89,8.39,13.015c0.283,1.828,0.401,3.241,0.23,4.108l0.064,0.421
				c-0.806,6.02-0.098,3.985-10.1,15.727c0.265-0.293-5.864,4.886-5.645,6.396c0.04,0.273,0.163,0.406,0.266,0.401l-0.763,1.139
				c-0.493,0.16-0.579,0.991-0.381,2.36l0.099,0.684c-0.205,0.009-0.248,0.424-0.109,1.381l-0.084,0.142
				c0.118,0.82,7.334,4.154,28.156,17.948c1.197,0.976,1.809,3.52,2.121,3.517c0,0,0,0-0.022-0.142L503.001,127.182z
				 M478.259,70.206c0.396-0.738-4.909,2.515-6.517,2.649c-0.764,1.035-2.149,1.288-7.207,7.203
				c-0.71,0.738-1.401,3.805-2.802,10.59c-0.167,3.96-0.293,6.008-0.293,6.008c1.845-0.777,3.79-1.563,7.067-3.8
				c1.33-1.453,2.421,0.415,10.055-13.138c1.92-3.511,2.249-8.745,2.229-8.884C480.591,70.851,479.303,70.396,478.259,70.206z"/>
		</g>
		<g>
			<path d="M510.412,56.268l1.538,0.73l1.064,1.519l0.885,3.46l0.921,7.294l-0.602,4.315l-0.687,4.454l-1.188,15.109l-1.257,13.098
				l-0.123,4.332l-0.453,2.317l0.085,2.443l-0.377,2.165l-0.022,2.44l0.343,8.589l-0.042,4.286l0.128,4.708l-0.652,5.12
				l-1.055,1.978l-1.487,1.258l-1.297-0.863l-1.344-6.515l0.076-0.85l-0.389-1.133l-0.647-4.104l-0.305-3.256l-0.321-0.707
				l-1.199-6.933l-0.699-5.098l-0.006-3.98l-0.152-5.552l0.225-3.147l-0.047-8.725l0.34-1.737l0.277-5.331l0.609-7.678l-0.222-2.005
				l0.585-2.068l0.421-3.074l0.795-3.259l-0.063-1.011l1.259-5.354l0.428-0.479l0.497-2.532l1.565-2.789l1.898-1.366L510.412,56.268
				z"/>
		</g>
		<g>
			<path d="M558.863,58.899c-0.613,0.524-1.729,0.002-2.757,1.029c-0.129-0.144-0.328-0.125-0.429-0.116l-0.829,1.007
				c-0.43,0.971-0.587,0.673-1.331,1.05c-0.101,0.009-0.3,0.026-0.528-0.108c0.028,0.152-0.545,0.357-1.734,1.08l-1.291,0.73
				l-0.847,0.381c-0.128-0.143-0.328-0.125-0.428-0.117c-0.291,0.64-2.124,0.644-3.099,0.881l-0.4,0.034
				c-0.302,0.026-0.994,0.698-1.095,0.707c-4.547,1.907-0.528-3.475-7.865,7.323c-0.075,0.158-1.701,1.939-2.595,4.411
				c-0.091,1.81-1.992,8.523-1.116,13.548c0.052,0.297,0.205,0.587,0.332,0.729l3.212-0.471c1.096-0.209,2.422-0.281,4.127-0.525
				c0.714-0.039,1.354,0.079,2.169,0.034c0.713-0.038,1.502-0.233,2.317-0.278c0.972,0.252,1.686,0.214,3.521,0.114l0.462,0.279
				c1.726-0.703,2.588-1.056,2.588-1.056s0,0-0.102,0.006c0.815-0.045,1.455,0.073,1.844,0.512l0.056,0.303
				c0.13,0.146,0.297,1.056,0.63,2.873l-0.931,1.115l-0.735,0.493l-0.224,0.468l-1.351,0.521c-0.074,0.155-0.504,0.631-1.241,1.12
				l-1.271,0.969c-0.301,0.62-2.141,1.305-7.236,2.876c-0.863,2.134-3.271,6.703-4.456,8.23c-0.13,1.045-0.439,2.243-0.88,3.294
				c-0.673,0.316-3.283,0.239-2.954,2.152c1.192,6.911,3.16,9.242,6.962,9.484l0.414,1.774l0.626,0.587l2.191-0.023l3.129-0.633
				l3.88-1.097l1.741-0.774l3.608-1.41l0.187,0.45c0.131,0.149,0.159,0.302,0.187,0.452c-0.022,0.453,0.032,0.755,0.06,0.905
				l0.132,0.149c0.027,0.15,0.055,0.303,0.055,0.303c0.056,0.301,0.083,0.451,0.241,0.752c-0.153,0.304-0.307,0.608-0.356,0.911
				l-0.159-0.3c0.055,0.301,0.109,0.602,0.269,0.901c-0.522,0.006,0.323,1.206-0.526,2.871l0.056,0.303
				c-0.074,0.753,0.218,1.203-0.659,3.314l0.108,0.601c-3.581,2.851-4.132,3.3-9.281,3.883l-1.366-0.003c0,0-0.08,0.147-0.29,0.147
				c-0.315-0.001-0.972-0.151-2.075-0.449c-3.176-0.745-1.737,0.882-7.516-3.392l-0.676-0.878
				c-2.336-2.629-3.691-3.207-8.409-16.886c0.03-0.438-0.044-0.877-0.143-1.459s-0.423-1.891-0.699-2.908
				c-0.231-3.216-0.813-7.886-1.132-14.041c-0.668-3.939,0.175-3.834,0.303-21.14l-0.453-0.858
				c-0.604-1.142-1.157-2.583-1.759-4.315c0.252-0.316,0.403-0.626,0.629-1.09l-0.075-0.439l0.378-0.774
				c-0.126-0.138-0.176-0.431-0.2-0.578c0.024-1.043,0.4-2.414,1-4.254l0.2-0.018l0.523-1.092c0.521-1.093,1.593-2.539,2.036-4.079
				c-0.227-0.128-0.454-0.857-0.685-2.184c2.398-3.094,3.251-2.275,4.246-2.375c0.325,0.118,0.624,0.088,0.948,0.207l0.299-0.03
				c0.299-0.03,0.923,0.059,1.021,0.049c1.096-0.109,2.907-0.745,5.595-1.014l3.483-0.349c0.624,0.09,1.222,0.031,1.946,0.112
				l6.769-0.675c0.526,0.103,1.023,0.053,1.621-0.007l-0.1,0.01c-0.112-0.608,10.542-0.577,12.864,2.027l0.177,0.926
				C562.875,58.062,560.034,58.636,558.863,58.899z"/>
		</g>
		<g>
			<path d="M611.151,31.891l0.079,1.334c0.074,0.832,0.158,2.668,0.279,5.169l0.104,0.491c-0.064,0.175,0.005,0.502-0.025,0.839
				c0.168,0.318,0.336,0.635,0.539,1.115c0.173,0.82,0.449,2.13,0.697,4.279c0.957,7.924,2.425,8.124,4.636,34.219
				c0.17,0.32,0.374,0.803,0.578,1.288c0.618,3.931,1.171,10.504,1.819,13.604l0.479,2.283c0.612,5.404,1.361,9.977,1.813,20.12
				c0.679,3.254,1.454,14.003-0.535,14.014l-0.494,0.652c-0.213,0.487-1.97,1.627-3.757,2.116l-0.071,0.161
				c-1.295,2.902-2.168,5.312-4.587,5.304c-1.076-0.645-1.578-0.006-5.028-5.122c-5.889-7.933-10.497-13.751-16.626-26.297
				l-0.899-1.397l-5.123-10.256c-0.492-0.928-3.006-7.45-5.065-7.972c-0.013,2.055,0.084,5.205,0.287,9.448
				c-0.076,1.733-0.229,6.294,0.096,14.43l0.181,0.933c-0.157,1.881-0.328,6.409,0.459,19.771c-0.826,1.707,1.199,7.903-2.586,12.35
				l-0.135-0.155c-0.212-0.002-0.312,1.688-1.686,1.671c-0.107-0.001-0.241-0.156-0.376-0.311l-0.538-0.621
				c-0.826-0.468-1.536-2.007-2.026-4.615c0.525,0.003-1.104-3.069-1.132-9.361c0.362-5.854-0.194-7.696-0.381-13.095l-0.177-4.789
				c-0.326-7.742-1.191-19.374-1.905-34.971c-0.14-2.343-2.161-21.395,0.937-21.682l0.6-0.056c0.27-0.184,0.47-0.202,0.569-0.211
				c2.259,0.109,2.411,0.892,4.109,2.809l2.902,3.896c1.646,3.698,1.159,2.778,9.981,19.42c1.592,4.389-0.346-1.739,9.713,20.193
				c0.904,1.41,2.592,3.601,6.058,12.011l1.218,1.901c0.37,0.795,0.844,1.59,1.317,2.383c0.5-1.133,0.39-0.649,2.803-2.629
				l0.6-1.144c-0.107-3.068-0.629-2.571-0.555-10.832c0.06-3.249-2.069-27.127-2.896-35.604c-0.033-1.149-1.274-11.592-1.78-32.601
				c-1.188-5.698,1.592-7.37,3.585-8.451c0.886-0.108,1.324,1.014,1.735,2.478C610.974,30.567,611.078,31.061,611.151,31.891z"/>
		</g>
		<g>
			<path d="M663.033,62.372l-1.101-0.79l0.562,2.93l-0.241-0.157l0.412,1.368l-1.536-1.806l0.132,1.038l-2.24-1.75
				c-0.062,0.179-0.265,0.194-0.365,0.202c0.039,0.173-0.062,0.181-0.062,0.181l-0.402,0.031c-0.428,0.38-0.932,0.418-0.932,0.418
				l-0.705,0.054l-0.797-0.809c-0.038-0.17-0.594-0.821-1.188-1.644l-0.492-0.828c-0.139-0.164-0.315-0.497-0.315-0.497
				l-0.239-0.154l-0.102,0.008l-0.35,0.723l0.114,0.511l-0.868,0.242l-0.101,0.008c-0.1,0.008-0.1,0.008-0.125,0.356
				c-0.289,0.543-0.918,0.938-1.674,1.686l-0.996,1.973l-1.201,1.983c-0.736,1.771-1.401,3.875-1.978,5.456l-1.13,2.809l-1.295,5.36
				l-0.317,5.621l-0.805,5.793l-0.528,1.374l0.025,4.889l-0.414,2.873l-0.263,4.541l0.018,5.86l0.002,4.843l0.662,5.989l0.929,4.316
				l1.238,3.317l1.866,2.821l2.353,1.662l2.313,0.502h2.834l6.1-1.857l0.464,0.676l0.42-0.001l-0.13,0.844l0.848,0.507l-0.203,0.506
				l0.358,0.676l-0.42-0.001l-0.166,0.676l0.458,0.169l0.434,1.015l-0.383,0.167l-0.762,0.839l-2.642,2.34l-0.247-0.169
				l-2.791,2.154l-7.486,0.93l-4.118-1.527l-3.656-2.336l-3.26-2.976l-2.481-3.288l-3.027-5.897l-1.489-4.581l-0.998-5.735
				l0.035-1.81l-0.483-1.8l0.069-0.661l-0.484-3.283l0.205-1.983l-0.075-4.293l0.814-11.308l0.203-0.509l0.397-2.017l-0.074-0.831
				l0.494-2.526c0.134-0.341,0.267-0.683,0.298-1.019c0.171-4.022,1.068-6.088,1.652-8.642l0.58-2.561l0.452-1.715l-0.071-0.332
				l1.831-6.725l0.633-0.386l-0.153-1.177l1.581-5.908l0.875-1.609l0.446-1.234l1.371-4.917l0.501-0.046l0.014-0.861l1.19-2.002
				l0.464-1.595l0.523-0.395l0.074,0.337c0.226-0.366,0.425-0.386,0.425-0.386l-0.137-0.159l2.016-1.925l4.775-1.865l0.995-0.1
				l1.348,0.562l1.426,0.908l0.689,0.806l0.1-0.01c0.039,0.172,0.177,0.333,0.277,0.324c0.139,0.162,0.276,0.323,0.514,0.475
				l1.291,0.752l0.715,0.457l0.138,0.162l0.871,1.145l0.948,1.49l0.851,1.501l1.385,2.506l-0.223,0.372l0.513,1.358L663.033,62.372z
				"/>
		</g>
		<g>
			<path d="M698.638,46.12c-0.572,0.601-1.743-0.023-2.688,1.157c-0.143-0.169-0.343-0.151-0.442-0.142l-0.745,1.161
				c-0.347,1.124-0.531,0.775-1.248,1.203c-0.1,0.009-0.3,0.027-0.542-0.133c0.042,0.178-0.517,0.408-1.65,1.233l-1.235,0.833
				l-0.818,0.432c-0.142-0.168-0.342-0.151-0.442-0.143c-0.234,0.742-2.081,0.721-3.042,0.983l-0.401,0.034
				c-0.301,0.026-0.938,0.801-1.038,0.809c-4.407,2.163-0.85-4.063-7.25,8.448c-0.062,0.184-1.533,2.246-2.203,5.126
				c0.076,2.117-1.21,9.956,0.141,15.849c0.08,0.349,0.261,0.689,0.402,0.856l3.185-0.522c1.081-0.234,2.407-0.306,4.099-0.576
				c0.714-0.039,1.367,0.104,2.183,0.061c0.714-0.039,1.488-0.26,2.304-0.305c1,0.304,1.714,0.265,3.55,0.166l0.489,0.33
				c1.67-0.806,2.505-1.209,2.505-1.209s0,0-0.103,0.006c0.815-0.045,1.47,0.099,1.9,0.614l0.083,0.354
				c0.144,0.172,0.395,1.234,0.896,3.358l-0.832,1.295l-0.693,0.569l-0.183,0.544l-1.309,0.599
				c-0.061,0.181-0.448,0.733-1.144,1.299l-1.188,1.122c-0.245,0.723-2.029,1.509-6.999,3.311c-0.667,2.492-2.656,7.828-3.701,9.611
				c-0.031,1.224-0.229,2.627-0.572,3.855c-0.645,0.368-3.27,0.265-2.758,2.51c1.849,8.113,4.04,10.854,7.87,11.146l0.582,2.081
				l0.682,0.689l2.19-0.023l3.074-0.735l3.782-1.275l1.671-0.902l3.483-1.64l0.228,0.526c0.146,0.175,0.188,0.353,0.229,0.529
				c0.02,0.529,0.103,0.882,0.144,1.058l0.146,0.175c0.041,0.177,0.083,0.354,0.083,0.354c0.083,0.353,0.124,0.528,0.312,0.88
				c-0.126,0.354-0.252,0.711-0.273,1.064l-0.187-0.352c0.083,0.353,0.165,0.705,0.352,1.056c-0.522,0.006,0.436,1.41-0.26,3.356
				l0.083,0.354c-0.005,0.881,0.329,1.408-0.352,3.878l0.164,0.702c-3.315,3.336-3.824,3.862-8.918,4.548l-1.366-0.004
				c0,0-0.065,0.174-0.275,0.173c-0.315-0.001-0.986-0.176-2.117-0.525c-3.246-0.873-1.654,1.035-7.838-3.979l-0.76-1.031
				c-2.587-3.089-3.998-3.77-10.03-19.851c-0.012-0.516-0.128-1.03-0.282-1.715c-0.153-0.685-0.604-2.223-0.979-3.419
				c-0.539-3.778-1.568-9.267-2.474-16.495c-1.045-4.63-0.188-4.498-1.696-24.795l-0.537-1.011
				c-0.716-1.346-1.408-3.043-2.178-5.082c0.225-0.368,0.347-0.729,0.531-1.269l-0.117-0.516l0.308-0.902
				c-0.139-0.164-0.217-0.508-0.256-0.68c-0.073-1.222,0.177-2.824,0.608-4.97l0.2-0.018l0.426-1.271
				c0.424-1.272,1.369-2.947,1.673-4.743c-0.24-0.154-0.538-1.01-0.894-2.568c2.133-3.58,3.068-2.607,4.063-2.707
				c0.34,0.144,0.638,0.114,0.977,0.258l0.299-0.03c0.299-0.03,0.937,0.084,1.036,0.075c1.095-0.109,2.864-0.821,5.552-1.09
				l3.484-0.349c0.638,0.116,1.235,0.056,1.974,0.163l6.769-0.675c0.54,0.128,1.037,0.078,1.635,0.019l-0.099,0.01
				c-0.169-0.71,10.583-0.5,13.157,2.564l0.26,1.08C702.606,45.206,699.794,45.831,698.638,46.12z"/>
		</g>
	</g>
	<g>
		<g>
			<path fill="#1BE8ED" d="M303.361,81.387c-0.687,0.389-1.704,0.047-2.879,0.805c-0.104-0.1-0.304-0.081-0.404-0.072l-0.977,0.738
				c-0.578,0.7-0.686,0.492-1.479,0.779c-0.1,0.009-0.3,0.026-0.504-0.062c0.003,0.107-0.594,0.268-1.882,0.81l-1.389,0.551
				l-0.896,0.291c-0.104-0.098-0.304-0.08-0.404-0.071c-0.388,0.46-2.196,0.509-3.196,0.7l-0.401,0.035
				c-0.3,0.025-1.092,0.518-1.192,0.526c-4.793,1.457,0.037-2.441-8.948,5.344c-0.099,0.113-1.995,1.399-3.283,3.151
				c-0.386,1.271-3.37,6.005-3.33,9.5c0.002,0.207,0.107,0.406,0.21,0.504l3.261-0.382c1.12-0.164,2.445-0.235,4.177-0.435
				c0.713-0.039,1.328,0.033,2.143-0.011c0.714-0.039,1.527-0.188,2.342-0.233c0.923,0.161,1.637,0.123,3.472,0.024l0.414,0.188
				c1.824-0.522,2.735-0.785,2.735-0.785s0,0-0.102,0.006c0.815-0.045,1.431,0.028,1.746,0.332l0.006,0.213
				c0.105,0.101,0.124,0.74,0.162,2.018l-1.102,0.801l-0.809,0.358l-0.298,0.332l-1.424,0.387c-0.1,0.111-0.604,0.452-1.414,0.807
				l-1.419,0.697c-0.399,0.44-2.338,0.945-7.654,2.112c-1.208,1.504-4.354,4.724-5.785,5.802c-0.301,0.73-0.808,1.568-1.421,2.305
				c-0.722,0.226-3.308,0.194-3.298,1.521c0.036,4.798,1.61,6.409,5.363,6.562l0.12,1.234l0.527,0.407l2.191-0.024l3.227-0.452
				l4.053-0.781l1.864-0.55l3.83-1.006l0.112,0.315c0.107,0.104,0.11,0.211,0.113,0.317c-0.096,0.318-0.09,0.529-0.087,0.636
				l0.107,0.104c0.003,0.106,0.005,0.213,0.005,0.213c0.006,0.212,0.009,0.317,0.119,0.527c-0.204,0.214-0.406,0.429-0.505,0.642
				l-0.11-0.211c0.005,0.212,0.011,0.423,0.121,0.633c-0.522,0.006,0.127,0.846-0.993,2.017l0.005,0.212
				c-0.196,0.528,0.021,0.844-1.199,2.325l0.01,0.422c-4.049,1.995-4.673,2.309-9.921,2.713l-1.367-0.004
				c0,0-0.104,0.104-0.314,0.103c-0.315-0.001-0.948-0.105-2.001-0.314c-3.053-0.52-1.885,0.612-6.95-2.356l-0.528-0.608
				c-1.893-1.819-3.15-2.217-5.557-11.668c0.104-0.304,0.104-0.606,0.104-1.009c0-0.403-0.104-1.307-0.207-2.009
				c0.31-2.226,0.514-5.457,1.229-9.724c-0.003-2.725,0.813-2.664,3.819-14.708l-0.306-0.588c-0.407-0.782-0.713-1.773-1.02-2.967
				c0.301-0.227,0.501-0.446,0.802-0.774l-0.001-0.305l0.5-0.549c-0.101-0.094-0.102-0.296-0.102-0.397
				c0.197-0.729,0.793-1.695,1.688-2.995l0.201-0.018l0.695-0.776c0.695-0.778,1.987-1.819,2.676-2.909
				c-0.201-0.084-0.305-0.587-0.314-1.51c2.865-2.24,3.569-1.691,4.565-1.791c0.3,0.074,0.599,0.043,0.899,0.117l0.298-0.03
				c0.299-0.03,0.897,0.014,0.997,0.004c1.095-0.109,2.981-0.61,5.668-0.879l3.483-0.349c0.6,0.045,1.197-0.014,1.896,0.022
				l6.77-0.675c0.501,0.058,0.999,0.008,1.596-0.051l-0.1,0.01c-0.014-0.429,10.468-0.712,12.348,1.083l0.029,0.656
				C307.446,80.684,304.556,81.168,303.361,81.387z"/>
		</g>
		<g>
			<path fill="#1BE8ED" d="M316.876,76.579l1.771,1.283l1.859,2.854l2.563,4.502l2.072,4.463l1.704,3.156l4.44-7.035l4.458-5.995
				l2.731-2.789l0.168-0.479l1.058-0.679l1.581-0.383l1.604-0.037l0.532,0.416l1.701,2.648l0.628,1.699l-0.022,2.459l-0.275,0.373
				l-0.619,2.619l-1.085,3.229l-1.081,1.938l-0.069,0.47l-0.736,1.096l-3.707,6.932l-0.581,0.493l-2.742,5.074l-0.103,1.606
				l2.819,5.38l4.063,8.154l5.949,10.544l2.016,3.241l-0.003,1.396l-0.814,0.349h-0.63l-0.967,1.159l-1.254-1.39l-16.104-18.411
				l-1.692-0.627l-0.516,0.016l-5.176,7.648l-4.296,5.626l-1.745,2.779l-1.498,1.552l-1.946,3.302l-0.306,0.218l-2.362,3.712
				l-1.252,0.316l-0.844-0.008l-1.24,0.641l-0.299,0.432l-2.007-0.021l0.3-0.431l0.782-4.225l3.17-9.489l2.837-6.513l4.321-9.286
				l0.39-0.458l0.545-1.463l4.024-7.541l-0.03-0.559l-1.924-3.58l-1.936-4.002l-2.734-8.136l-0.209-4.311l-0.188-3.868l0.833-1.413
				l0.787-0.299l1.03,0.569l0.183-0.352l-0.128-0.546L316.876,76.579z"/>
		</g>
		<g>
			<path fill="#1BE8ED" d="M385.362,98.365l-0.348,0.638c-0.82,1.032-2.941,3.481-6.938,6.854l-1.266,0.786
				c-1.506,1.525-2.98,2.312-8.526,4.937l-0.731-0.095c-0.082,0.244-4.419,7.668-5.993,7.47c-0.081,1.547-0.151,3.21-0.544,4.76
				c-0.592,2.971,0.162,0.708-1.778,10.308l-0.249,0.826c-0.595,1.767-1.067,3.767-1.638,5.879
				c-0.105-0.001-0.628,1.404-0.724,1.521l-0.211-0.002c-0.304,1.52-2.055,3.485-3.131,3.236c-3.573-2.605-3.112-7.831-3.423-16.326
				c0.541-6.771,2.403-24.521,3.872-35.918c0.166-0.483,1.282-5.651,1.321-8.976c-0.129-0.346-0.075-0.943-0.204-1.289l-0.232-1.643
				c-0.176-0.935-0.323-1.515-0.26-1.995l0.072-0.362c-0.219-0.218-0.466-0.79-0.613-1.369c0.135-0.843,0.75-1.969,2.162-3.172
				c0.821-1.032,6.335-5.901,10.054-5.8c0.816,0.159,3.203-0.085,4.296-0.197c1.415,0.1,2.287-0.234,7.284,1.601
				c5.336,3.08,8.582,3.277,11.391,12.913c-0.088,0.132-0.062,0.379-0.049,0.505l0.391,0.844c0.039,0.373,0.166,0.614,0.217,1.109
				c0.064,0.622,0.039,1.373,0.004,2.001c0.012,0.124,0.025,0.248,0.15,0.488C389.288,88.676,390.544,91.966,385.362,98.365z
				 M382.815,85.036c-0.262-0.6-1.416-1.995-5.309-4.521c-1.811-0.955-4.554-1.091-4.656-1.082
				c-0.412-0.087-0.712-0.062-1.002,0.084l-2.208,0.187c-0.914-0.044-4.198-0.612-4.278,5.428c0.052,0.6,0.003,1.206,0.087,2.163
				c-0.189,1.34-0.043,3.015-0.069,5.062c-0.351,3.029-0.756,4.254-1.362,15.189c0.308-0.014,1.211-0.291,2.708-0.835
				c6.117-2.932,6.982-3.581,11.746-8.585l2.096-2.698c0.562-0.526,2.967-4.133,3.016-6.734
				C383.528,87.088,383.315,85.988,382.815,85.036z"/>
		</g>
		<g>
			<path fill="#1BE8ED" d="M432.037,69.622c-0.649,0.459-1.717,0.024-2.815,0.922c-0.116-0.122-0.316-0.104-0.417-0.095
				l-0.899,0.879c-0.5,0.841-0.634,0.586-1.401,0.921c-0.1,0.009-0.301,0.026-0.518-0.086c0.017,0.13-0.567,0.314-1.805,0.951
				l-1.337,0.645l-0.87,0.338c-0.117-0.122-0.317-0.104-0.417-0.096c-0.337,0.555-2.157,0.58-3.145,0.795l-0.401,0.035
				c-0.301,0.026-1.041,0.612-1.141,0.621c-4.665,1.692-0.26-2.982-8.382,6.38c-0.086,0.136-1.841,1.682-2.922,3.81
				c-0.233,1.553-2.649,7.322-2.173,11.618c0.028,0.254,0.158,0.5,0.274,0.621l3.235-0.429c1.106-0.188,2.432-0.259,4.15-0.481
				c0.713-0.039,1.341,0.057,2.156,0.013c0.714-0.039,1.514-0.213,2.33-0.257c0.948,0.209,1.662,0.17,3.497,0.071l0.439,0.236
				c1.772-0.618,2.658-0.927,2.658-0.927s0,0-0.102,0.006c0.815-0.045,1.442,0.052,1.797,0.426l0.032,0.26
				c0.117,0.124,0.214,0.905,0.406,2.465l-1.012,0.966l-0.771,0.429l-0.261,0.403l-1.385,0.457
				c-0.086,0.134-0.552,0.546-1.324,0.971l-1.341,0.839c-0.348,0.534-2.235,1.134-7.437,2.512c-1.027,1.834-3.787,5.76-5.089,7.073
				c-0.211,0.895-0.616,1.921-1.138,2.821c-0.696,0.273-3.296,0.218-3.118,1.852c0.64,5.904,2.421,7.892,6.199,8.091l0.274,1.518
				l0.578,0.501l2.191-0.024l3.176-0.547l3.962-0.946l1.8-0.667l3.715-1.217l0.151,0.386c0.119,0.128,0.135,0.259,0.15,0.388
				c-0.057,0.389-0.025,0.647-0.01,0.776l0.12,0.128c0.016,0.129,0.031,0.26,0.031,0.26c0.031,0.259,0.047,0.388,0.183,0.645
				c-0.178,0.262-0.355,0.523-0.429,0.783l-0.135-0.258c0.031,0.259,0.062,0.517,0.197,0.774c-0.521,0.005,0.229,1.033-0.748,2.463
				l0.031,0.26c-0.132,0.646,0.124,1.031-0.916,2.843l0.062,0.515c-3.805,2.443-4.39,2.827-9.586,3.325l-1.367-0.003
				c0,0-0.091,0.126-0.301,0.125c-0.316,0-0.961-0.129-2.041-0.384c-3.117-0.638-1.809,0.753-7.245-2.898l-0.606-0.75
				c-2.125-2.242-3.434-2.734-7.049-14.396c0.064-0.375,0.025-0.749-0.025-1.245c-0.051-0.497-0.271-1.612-0.465-2.479
				c0.027-2.743-0.18-6.728-0.006-11.982c-0.352-3.36,0.479-3.276,1.98-18.073l-0.385-0.729c-0.51-0.971-0.945-2.197-1.406-3.673
				c0.275-0.273,0.449-0.54,0.713-0.939l-0.041-0.374l0.438-0.667c-0.115-0.117-0.143-0.367-0.156-0.492
				c0.107-0.893,0.59-2.071,1.33-3.654l0.201-0.018l0.604-0.941c0.605-0.943,1.781-2.195,2.342-3.521
				c-0.213-0.107-0.383-0.728-0.508-1.862c2.621-2.687,3.404-1.997,4.399-2.097c0.312,0.097,0.611,0.067,0.925,0.165l0.298-0.03
				c0.3-0.03,0.91,0.038,1.01,0.028c1.096-0.109,2.942-0.68,5.63-0.949l3.484-0.349c0.612,0.069,1.209,0.01,1.921,0.069l6.771-0.675
				c0.514,0.081,1.012,0.031,1.609-0.028l-0.101,0.01c-0.065-0.523,10.507-0.642,12.618,1.577l0.106,0.797
				C436.084,68.849,433.219,69.38,432.037,69.622z"/>
		</g>
		<g>
			<path fill="#1BE8ED" d="M493.455,127.182c-0.328,0.569-1.686,0.583-2.262,1.578c-0.522,0.004-0.836,0.007-0.963-0.133
				l-0.143,0.424c-0.291,0.145-0.501,0.146-0.814,0.149c-0.126-0.142-0.23-0.141-0.335-0.14l-0.523,0.004
				c-1.031-1.257-4.418-2.203-8.2-4.395l-2.001-0.809c-1.665-0.669-5.199-2.69-10.336-5.761l-0.682-0.398
				c-2.355-1.182-5.178-2.753-8.429-4.438l-2.303-0.885l-0.873,0.434c-1.925,1.819-3.235,3.611-6.044,4.354l-0.073,1.75l0.146,1.073
				c0.292,2.145-0.385,4.84-0.753,7.524l0.055,0.401c0.072,0.535-0.445,6.021-0.445,6.021l0.018,0.134
				c-0.676,2.002-0.709,2.535-1.703,5.329l-0.701,1.06c-0.088,0.132-0.509,0.13-1.141,0.126c-0.105-0.001-1.702-0.938-3.643-3.723
				l-0.244-0.266l-0.241-1.849c-0.123-0.132-0.245-0.264-0.401-0.661l-0.704-5.416c0.053-0.397,0.001-0.794-0.067-1.321
				c-0.069-0.529-0.138-1.058-0.311-1.585c0.211-1.592,0.022-4.635-0.133-7.417c-0.017-0.133-0.017-0.133-0.034-0.265
				c-0.121-0.926-0.035-2.653,0.171-5.05c0.572-6.678-0.041-5.054,0.29-9.6c0.519-6.975,0.433-10.721,1.383-20.455l-0.107-0.8
				c0.065-0.275,0.213-0.689,0.344-1.238l-0.125-0.935c-0.126-0.935,0.043-2.702,0.523-5.172c0.238-1.237-0.361-2.674,4.508-4.868
				c0.32,0.108,0.62,0.081,1.039,0.18l1.201-0.106c0.281-0.162,0.664-0.333,1.345-0.53c1.33-1.354,8.913-8.437,11.104-8.655
				c-0.1,0.01,4.373-1.841,5.566-1.962c1.393-0.142,2.946,0.123,4.984,0.908c-0.582-0.507,6.817,2.89,8.39,13.015
				c0.283,1.828,0.401,3.241,0.23,4.108l0.064,0.421c-0.806,6.02-0.098,3.985-10.1,15.727c0.265-0.294-5.864,4.886-5.645,6.396
				c0.04,0.273,0.163,0.406,0.266,0.401l-0.763,1.139c-0.493,0.16-0.579,0.991-0.381,2.36l0.099,0.684
				c-0.205,0.009-0.248,0.424-0.109,1.381l-0.084,0.142c0.118,0.82,7.334,4.154,28.156,17.948c1.197,0.976,1.809,3.52,2.121,3.517
				c0,0,0,0-0.022-0.142L493.455,127.182z M468.713,70.206c0.396-0.738-4.909,2.515-6.517,2.649
				c-0.764,1.035-2.149,1.288-7.207,7.203c-0.71,0.738-1.401,3.805-2.802,10.59c-0.167,3.96-0.293,6.008-0.293,6.008
				c1.845-0.777,3.79-1.563,7.067-3.8c1.33-1.453,2.421,0.415,10.055-13.138c1.92-3.511,2.249-8.745,2.229-8.884
				C471.045,70.851,469.757,70.396,468.713,70.206z"/>
		</g>
		<g>
			<path fill="#1BE8ED" d="M500.865,56.268l1.538,0.729l1.064,1.519l0.885,3.46l0.921,7.294l-0.602,4.315l-0.687,4.454
				l-1.188,15.109l-1.257,13.098l-0.123,4.332l-0.453,2.317l0.085,2.443l-0.377,2.165l-0.022,2.44l0.343,8.589l-0.042,4.286
				l0.128,4.708l-0.652,5.12l-1.055,1.978l-1.487,1.258l-1.297-0.863l-1.344-6.515l0.076-0.85l-0.389-1.133l-0.647-4.104
				l-0.305-3.256l-0.321-0.707l-1.199-6.933l-0.699-5.098l-0.006-3.98l-0.152-5.552l0.225-3.147l-0.047-8.725l0.34-1.737
				l0.277-5.331l0.609-7.678l-0.222-2.005l0.585-2.068l0.421-3.074l0.795-3.259l-0.063-1.011l1.259-5.354l0.428-0.479l0.497-2.532
				l1.565-2.789l1.898-1.366L500.865,56.268z"/>
		</g>
		<g>
			<path fill="#1BE8ED" d="M549.316,58.899c-0.613,0.524-1.729,0.002-2.757,1.03c-0.129-0.144-0.328-0.126-0.429-0.117l-0.829,1.008
				c-0.43,0.97-0.587,0.672-1.331,1.05c-0.101,0.009-0.3,0.026-0.528-0.108c0.028,0.152-0.545,0.357-1.734,1.08l-1.291,0.73
				l-0.847,0.381c-0.128-0.143-0.328-0.125-0.428-0.117c-0.291,0.64-2.124,0.644-3.099,0.881l-0.4,0.034
				c-0.302,0.026-0.994,0.698-1.095,0.707c-4.547,1.907-0.528-3.476-7.865,7.323c-0.075,0.158-1.701,1.939-2.595,4.411
				c-0.091,1.81-1.992,8.523-1.116,13.548c0.051,0.297,0.205,0.587,0.332,0.729l3.212-0.471c1.096-0.209,2.422-0.281,4.127-0.525
				c0.714-0.039,1.354,0.079,2.169,0.034c0.713-0.038,1.502-0.233,2.317-0.278c0.972,0.252,1.686,0.214,3.521,0.114l0.462,0.279
				c1.726-0.703,2.588-1.056,2.588-1.056s0,0-0.102,0.006c0.815-0.045,1.455,0.073,1.844,0.512l0.056,0.303
				c0.13,0.146,0.297,1.056,0.63,2.873l-0.931,1.115l-0.735,0.493l-0.224,0.468l-1.351,0.521c-0.074,0.155-0.504,0.631-1.241,1.12
				l-1.271,0.969c-0.301,0.62-2.141,1.305-7.236,2.876c-0.863,2.134-3.271,6.703-4.456,8.23c-0.13,1.045-0.439,2.243-0.88,3.294
				c-0.673,0.316-3.283,0.239-2.954,2.152c1.192,6.911,3.16,9.242,6.962,9.484l0.414,1.774l0.626,0.587l2.191-0.023l3.129-0.633
				l3.88-1.097l1.741-0.774l3.608-1.41l0.187,0.45c0.131,0.149,0.159,0.302,0.187,0.452c-0.022,0.453,0.032,0.755,0.06,0.905
				l0.132,0.149c0.027,0.15,0.055,0.303,0.055,0.303c0.056,0.301,0.083,0.451,0.241,0.752c-0.153,0.304-0.307,0.608-0.356,0.911
				l-0.159-0.3c0.055,0.301,0.109,0.602,0.269,0.902c-0.522,0.005,0.323,1.205-0.526,2.87l0.056,0.303
				c-0.074,0.753,0.218,1.203-0.659,3.314l0.108,0.601c-3.581,2.851-4.132,3.3-9.281,3.883l-1.366-0.003c0,0-0.08,0.147-0.29,0.147
				c-0.315-0.001-0.972-0.151-2.075-0.449c-3.176-0.745-1.737,0.882-7.516-3.392l-0.676-0.878
				c-2.336-2.629-3.691-3.207-8.409-16.886c0.03-0.438-0.044-0.877-0.143-1.459s-0.423-1.891-0.699-2.908
				c-0.231-3.216-0.813-7.886-1.132-14.041c-0.668-3.939,0.175-3.834,0.303-21.14l-0.453-0.858
				c-0.604-1.142-1.157-2.583-1.759-4.315c0.252-0.316,0.403-0.626,0.629-1.09l-0.075-0.439l0.378-0.774
				c-0.126-0.138-0.176-0.431-0.2-0.577c0.024-1.043,0.4-2.415,1-4.254l0.2-0.018l0.523-1.092c0.521-1.093,1.593-2.538,2.036-4.079
				c-0.227-0.128-0.454-0.857-0.685-2.184c2.398-3.094,3.251-2.275,4.246-2.375c0.325,0.118,0.624,0.088,0.948,0.207l0.299-0.03
				c0.299-0.03,0.923,0.059,1.021,0.049c1.096-0.109,2.907-0.745,5.595-1.014l3.483-0.349c0.624,0.09,1.222,0.031,1.946,0.112
				l6.769-0.675c0.526,0.103,1.023,0.053,1.621-0.006l-0.1,0.01c-0.112-0.608,10.542-0.577,12.864,2.027l0.177,0.926
				C553.328,58.062,550.487,58.636,549.316,58.899z"/>
		</g>
		<g>
			<path fill="#1BE8ED" d="M601.604,31.891l0.079,1.335c0.074,0.832,0.158,2.667,0.279,5.169l0.104,0.491
				c-0.064,0.174,0.005,0.501-0.025,0.839c0.168,0.318,0.336,0.634,0.539,1.114c0.173,0.82,0.449,2.13,0.697,4.279
				c0.957,7.924,2.425,8.124,4.636,34.219c0.17,0.32,0.374,0.803,0.578,1.288c0.618,3.931,1.171,10.504,1.819,13.604l0.479,2.283
				c0.612,5.404,1.361,9.977,1.813,20.12c0.679,3.254,1.454,14.003-0.535,14.014l-0.494,0.652c-0.213,0.487-1.97,1.627-3.757,2.116
				l-0.071,0.161c-1.295,2.902-2.168,5.312-4.587,5.304c-1.076-0.645-1.578-0.006-5.028-5.122
				c-5.889-7.933-10.497-13.751-16.626-26.297l-0.899-1.397l-5.123-10.256c-0.492-0.928-3.006-7.45-5.065-7.972
				c-0.013,2.055,0.084,5.205,0.287,9.448c-0.076,1.733-0.229,6.294,0.096,14.431l0.181,0.932
				c-0.157,1.881-0.328,6.409,0.459,19.771c-0.826,1.707,1.199,7.903-2.586,12.35l-0.135-0.155
				c-0.212-0.002-0.312,1.688-1.686,1.671c-0.107-0.001-0.241-0.156-0.376-0.311l-0.538-0.621c-0.826-0.468-1.536-2.007-2.026-4.615
				c0.525,0.003-1.104-3.069-1.132-9.361c0.362-5.854-0.194-7.696-0.381-13.095l-0.177-4.789
				c-0.326-7.742-1.191-19.374-1.905-34.971c-0.14-2.344-2.161-21.396,0.937-21.682l0.6-0.056c0.27-0.184,0.47-0.202,0.569-0.211
				c2.259,0.109,2.411,0.892,4.108,2.809l2.903,3.896c1.646,3.698,1.159,2.778,9.981,19.42c1.592,4.389-0.346-1.739,9.713,20.193
				c0.904,1.41,2.592,3.601,6.058,12.011l1.218,1.901c0.37,0.795,0.844,1.59,1.317,2.383c0.5-1.133,0.39-0.649,2.803-2.629
				l0.6-1.144c-0.107-3.068-0.629-2.571-0.555-10.832c0.06-3.249-2.069-27.127-2.896-35.604c-0.033-1.149-1.274-11.592-1.78-32.601
				c-1.188-5.698,1.592-7.37,3.585-8.451c0.886-0.108,1.324,1.014,1.735,2.478C601.427,30.567,601.531,31.061,601.604,31.891z"/>
		</g>
		<g>
			<path fill="#1BE8ED" d="M653.486,62.372l-1.101-0.79l0.561,2.93l-0.24-0.157l0.412,1.368l-1.536-1.806l0.132,1.038l-2.24-1.75
				c-0.062,0.179-0.265,0.194-0.365,0.202c0.039,0.173-0.062,0.181-0.062,0.181l-0.402,0.031c-0.428,0.38-0.932,0.418-0.932,0.418
				l-0.705,0.054l-0.797-0.809c-0.038-0.17-0.594-0.821-1.188-1.644l-0.492-0.828c-0.139-0.164-0.315-0.497-0.315-0.497
				l-0.239-0.154l-0.102,0.008l-0.35,0.723l0.114,0.51l-0.868,0.242l-0.101,0.008c-0.1,0.008-0.1,0.008-0.125,0.356
				c-0.289,0.543-0.918,0.938-1.674,1.687l-0.996,1.973l-1.201,1.983c-0.736,1.771-1.401,3.875-1.978,5.456l-1.13,2.809l-1.295,5.36
				l-0.317,5.621l-0.805,5.793l-0.528,1.374l0.025,4.889l-0.414,2.873l-0.263,4.541l0.018,5.86l0.002,4.843l0.662,5.989l0.929,4.316
				l1.238,3.317l1.866,2.821l2.353,1.662l2.313,0.502h2.834l6.1-1.857l0.464,0.676l0.42-0.001l-0.13,0.844l0.848,0.507l-0.203,0.506
				l0.358,0.676l-0.42-0.001l-0.166,0.676l0.458,0.169l0.434,1.015l-0.383,0.167l-0.762,0.839l-2.642,2.34l-0.247-0.169
				l-2.791,2.154l-7.486,0.93l-4.118-1.527l-3.656-2.336l-3.26-2.976l-2.481-3.288l-3.027-5.897l-1.489-4.581l-0.998-5.735
				l0.035-1.81l-0.483-1.8l0.069-0.661l-0.484-3.283l0.205-1.983l-0.075-4.293l0.814-11.308l0.203-0.509l0.397-2.017l-0.074-0.831
				l0.494-2.526c0.134-0.34,0.267-0.683,0.298-1.019c0.171-4.022,1.068-6.088,1.652-8.641l0.58-2.562l0.452-1.715l-0.071-0.332
				l1.831-6.725l0.633-0.386l-0.153-1.177l1.581-5.908l0.875-1.609l0.446-1.234l1.371-4.917l0.5-0.046l0.015-0.86l1.19-2.003
				l0.464-1.595l0.523-0.395l0.074,0.337c0.226-0.366,0.425-0.385,0.425-0.385l-0.138-0.159l2.017-1.926l4.775-1.865l0.995-0.1
				l1.348,0.562l1.426,0.907l0.689,0.806l0.1-0.01c0.039,0.172,0.177,0.333,0.277,0.324c0.139,0.162,0.276,0.323,0.514,0.475
				l1.291,0.752l0.715,0.457l0.138,0.162l0.871,1.145l0.948,1.49l0.851,1.501l1.385,2.507l-0.223,0.371l0.513,1.358L653.486,62.372z
				"/>
		</g>
		<g>
			<path fill="#1BE8ED" d="M689.092,46.12c-0.572,0.601-1.743-0.023-2.688,1.157c-0.143-0.169-0.343-0.151-0.442-0.142l-0.745,1.161
				c-0.347,1.124-0.531,0.775-1.248,1.203c-0.1,0.009-0.3,0.027-0.542-0.133c0.042,0.178-0.517,0.408-1.65,1.233l-1.235,0.833
				l-0.818,0.432c-0.142-0.168-0.342-0.151-0.442-0.143c-0.234,0.742-2.081,0.721-3.042,0.983l-0.401,0.034
				c-0.302,0.026-0.938,0.801-1.038,0.809c-4.407,2.163-0.85-4.063-7.25,8.448c-0.062,0.184-1.533,2.246-2.203,5.126
				c0.076,2.117-1.21,9.956,0.141,15.849c0.08,0.349,0.261,0.689,0.402,0.856l3.185-0.522c1.081-0.234,2.407-0.306,4.099-0.576
				c0.714-0.039,1.367,0.104,2.183,0.061c0.713-0.039,1.488-0.26,2.304-0.305c1,0.304,1.714,0.265,3.549,0.166l0.49,0.33
				c1.67-0.806,2.504-1.209,2.504-1.209s0,0-0.102,0.006c0.815-0.045,1.47,0.099,1.9,0.614l0.083,0.354
				c0.144,0.172,0.395,1.234,0.896,3.358l-0.832,1.295l-0.693,0.569l-0.183,0.544l-1.309,0.599
				c-0.061,0.181-0.448,0.733-1.144,1.299l-1.188,1.122c-0.244,0.723-2.029,1.509-6.998,3.311c-0.668,2.492-2.657,7.828-3.702,9.611
				c-0.031,1.224-0.229,2.627-0.572,3.855c-0.645,0.368-3.27,0.265-2.758,2.51c1.849,8.113,4.04,10.854,7.87,11.146l0.582,2.081
				l0.682,0.689l2.191-0.023l3.073-0.735l3.782-1.275l1.671-0.902l3.483-1.64l0.228,0.526c0.146,0.175,0.188,0.353,0.229,0.529
				c0.02,0.529,0.103,0.882,0.144,1.058l0.146,0.175c0.042,0.177,0.083,0.354,0.083,0.354c0.083,0.353,0.124,0.528,0.312,0.88
				c-0.126,0.354-0.251,0.711-0.273,1.064l-0.187-0.352c0.083,0.353,0.165,0.705,0.352,1.056c-0.521,0.006,0.436,1.41-0.26,3.356
				l0.083,0.354c-0.005,0.881,0.329,1.408-0.352,3.878l0.164,0.702c-3.315,3.336-3.824,3.862-8.918,4.548l-1.366-0.004
				c0,0-0.065,0.174-0.275,0.173c-0.315-0.001-0.986-0.176-2.117-0.525c-3.246-0.873-1.654,1.035-7.838-3.979l-0.76-1.031
				c-2.587-3.089-3.998-3.77-10.029-19.851c-0.013-0.516-0.129-1.03-0.283-1.715s-0.604-2.223-0.979-3.419
				c-0.539-3.778-1.568-9.267-2.474-16.495c-1.045-4.63-0.188-4.498-1.696-24.795l-0.537-1.011
				c-0.716-1.346-1.408-3.043-2.178-5.082c0.225-0.368,0.347-0.729,0.531-1.269l-0.117-0.516l0.308-0.902
				c-0.139-0.164-0.217-0.508-0.256-0.68c-0.073-1.222,0.177-2.824,0.608-4.97l0.2-0.018l0.426-1.271
				c0.424-1.272,1.369-2.947,1.673-4.743c-0.24-0.154-0.538-1.01-0.894-2.568c2.133-3.58,3.068-2.607,4.063-2.707
				c0.34,0.144,0.638,0.114,0.977,0.258l0.299-0.03c0.299-0.03,0.937,0.084,1.036,0.075c1.095-0.109,2.864-0.821,5.552-1.09
				l3.484-0.349c0.638,0.116,1.234,0.056,1.973,0.163l6.77-0.675c0.54,0.128,1.037,0.078,1.635,0.019l-0.099,0.01
				c-0.169-0.71,10.583-0.5,13.157,2.564l0.26,1.08C693.061,45.206,690.248,45.831,689.092,46.12z"/>
		</g>
	</g>
</g>
</svg>
