<?xml version="1.0" encoding="utf-8"?>
<!-- Generator: Adobe Illustrator 16.0.0, SVG Export Plug-In . SVG Version: 6.00 Build 0)  -->
<!DOCTYPE svg PUBLIC "-//W3C//DTD SVG 1.1//EN" "http://www.w3.org/Graphics/SVG/1.1/DTD/svg11.dtd">
<svg version="1.1" id="Layer_1" xmlns="http://www.w3.org/2000/svg" xmlns:xlink="http://www.w3.org/1999/xlink" x="0px" y="0px"
	 width="749.775px" height="161.676px" viewBox="0 0 749.775 161.676" enable-background="new 0 0 749.775 161.676"
	 xml:space="preserve">
<g>
	<g>
		<g>
			<path fill="#FFFFFF" d="M66.79,76.843V32.352h22.277v8.898H75.688v8.898h11.698v8.897H75.688v8.898h14.125v8.898H66.79z"/>
			<path fill="#FFFFFF" d="M108.169,53.135L96.098,32.289h10.765l6.72,12.383l6.658-12.383h10.516l-12.134,20.846l14,23.708h-10.516
				l-8.525-15.245l-8.587,15.245H94.169L108.169,53.135z"/>
			<path fill="#FFFFFF" d="M138.66,76.843V32.414h17.485c17.299,0,17.236,27.441,0,27.441h-8.587v16.987H138.66z M155.399,51.206
				c5.974,0,5.974-9.956,0-9.956h-7.84v9.956H155.399z"/>
			<path fill="#FFFFFF" d="M176.805,76.843V32.352h22.277v8.898h-13.378v8.898h11.698v8.897h-11.698v8.898h14.125v8.898H176.805z"/>
			<path fill="#FFFFFF" d="M230.941,76.843l-8.96-16.987h-4.293v16.987h-8.898V32.352h17.547c15.868,0,17.423,22.339,4.356,26.135
				l10.33,18.356H230.941z M217.687,51.206h7.84c6.036,0,6.036-9.956,0-9.956h-7.84V51.206z"/>
			<path fill="#FFFFFF" d="M247.555,76.843V32.352h8.898v44.491H247.555z"/>
			<path fill="#FFFFFF" d="M267.093,76.843V32.352h22.277v8.898h-13.378v8.898h11.698v8.897h-11.698v8.898h14.125v8.898H267.093z"/>
			<path fill="#FFFFFF" d="M307.976,76.843h-8.898V31.418h2.365l22.463,26.135V32.414h8.96v45.362h-2.365l-22.525-25.14V76.843z"/>
			<path fill="#FFFFFF" d="M364.103,40.752c-17.61,0-17.61,27.13,0,27.13c3.858,0,6.907-1.119,8.587-1.99l1.182,9.209
				c-2.738,1.12-6.658,1.866-9.769,1.866c-30.179,0-30.117-45.175,0-45.175c3.111,0,6.098,0.56,8.774,1.742l-1.058,9.146
				C370.139,41.81,367.961,40.752,364.103,40.752z"/>
			<path fill="#FFFFFF" d="M381.588,76.843V32.352h22.276v8.898h-13.378v8.898h11.698v8.897h-11.698v8.898h14.125v8.898H381.588z"/>
			<path fill="#FFFFFF" d="M446.614,30.733h0.933l18.729,46.109h-10.018l-1.805-4.791h-14.748l-1.742,4.791h-10.08L446.614,30.733z
				 M451.156,63.713l-4.045-11.573l-4.169,11.573H451.156z"/>
			<path fill="#FFFFFF" d="M491.417,32.289h17.609c7.902,0,12.818,5.663,12.632,13.503c-0.125,3.36-1.307,6.845-4.107,8.774
				c2.925,1.991,4.605,5.413,4.605,8.897c0,7.468-5.912,13.379-13.13,13.379h-17.609V32.289z M500.377,50.148h5.352h2.551
				c2.552,0,4.107-2.054,4.107-4.48c0-2.489-1.556-4.48-4.107-4.48h-7.902V50.148z M500.377,67.944h5.352h2.551
				c2.552,0,4.48-1.991,4.48-4.48c0-2.488-1.929-4.418-4.48-4.418h-7.902V67.944z"/>
			<path fill="#FFFFFF" d="M530.681,76.843V32.352h22.276v8.898h-13.379v8.898h11.698v8.897h-11.698v8.898h14.125v8.898H530.681z"/>
			<path fill="#FFFFFF" d="M570.007,76.843V41.25h-11.076v-8.836h31.051v8.836h-11.076v35.593H570.007z"/>
			<path fill="#FFFFFF" d="M604.667,76.843V41.25h-11.076v-8.836h31.051v8.836h-11.076v35.593H604.667z"/>
			<path fill="#FFFFFF" d="M631.983,76.843V32.352h22.277v8.898h-13.379v8.898h11.698v8.897h-11.698v8.898h14.125v8.898H631.983z"/>
			<path fill="#FFFFFF" d="M686.12,76.843l-8.96-16.987h-4.294v16.987h-8.898V32.352h17.548c15.867,0,17.423,22.339,4.356,26.135
				l10.329,18.356H686.12z M672.866,51.206h7.841c6.036,0,6.036-9.956,0-9.956h-7.841V51.206z"/>
		</g>
	</g>
</g>
<g>
	<g>
		<g>
			<path fill="#FFFFFF" d="M516.767,138.34V93.849h22.277v8.898h-13.379v8.898h11.699v8.897h-11.699v8.898h14.125v8.898H516.767z"/>
			<path fill="#FFFFFF" d="M562.565,139.273l-18.419-45.425h10.267l5.912,14.81l3.235,9.21l3.173-8.898l5.975-15.121h10.268
				l-18.42,45.425H562.565z"/>
			<path fill="#FFFFFF" d="M589.011,138.34V93.849h22.277v8.898h-13.379v8.898h11.699v8.897h-11.699v8.898h14.125v8.898H589.011z"/>
			<path fill="#FFFFFF" d="M629.894,138.34h-8.898V92.915h2.365l22.463,26.135V93.911h8.961v45.362h-2.365l-22.525-25.14V138.34z"/>
			<path fill="#FFFFFF" d="M672.767,138.34v-35.593H661.69v-8.836h31.051v8.836h-11.076v35.593H672.767z"/>
		</g>
	</g>
</g>
<g opacity="0.4">
	<g>
		<path d="M99.874,83.322l-0.806-0.605l0.046,1.953l-0.178-0.122l0.147,0.924l-1.022-1.302l-0.039,0.688l-1.619-1.325
			c-0.078,0.111-0.249,0.104-0.333,0.102c0.008,0.116-0.078,0.112-0.078,0.112l-0.341-0.013c-0.41,0.215-0.836,0.198-0.836,0.198
			l-0.597-0.022l-0.551-0.599c-0.008-0.115-0.38-0.591-0.761-1.182l-0.294-0.588c-0.093-0.118-0.194-0.354-0.194-0.354l-0.178-0.121
			l-0.085-0.004l-0.395,0.444l0.024,0.349l-0.759,0.085l-0.085-0.004c-0.085-0.003-0.085-0.003-0.155,0.225
			c-0.317,0.334-0.898,0.542-1.633,0.975l-1.106,1.229l-1.274,1.225c-0.857,1.126-1.698,2.485-2.392,3.505l-1.318,1.811
			l-1.791,3.541l-1.008,3.807l-1.423,3.916l-0.614,0.917l-0.612,3.364l-0.709,1.966l-0.796,3.134l-0.73,4.073l-0.608,3.38
			l-0.211,4.208l0.215,3.044l0.588,2.347l1.155,1.998l1.689,1.183l1.8,0.365l2.283,0.018l5.153-1.238l0.286,0.468l0.339,0.003
			l-0.214,0.578l0.616,0.353l-0.23,0.347l0.202,0.466l-0.338-0.002l-0.222,0.463l0.347,0.118l0.217,0.697l-0.33,0.115l-0.72,0.576
			l-2.422,1.615l-0.177-0.118l-2.513,1.502l-6.117,0.679l-3.115-1.066l-2.651-1.654l-2.264-2.13l-1.605-2.363l-1.741-4.254
			l-0.66-3.305l-0.126-4.122l0.246-1.292l-0.177-1.297l0.135-0.469l0.001-2.354l0.408-1.403l0.459-3.047l2.061-7.937l0.23-0.346
			l0.579-1.392l0.043-0.585l0.725-1.737c0.153-0.229,0.307-0.46,0.375-0.692c0.65-2.789,1.657-4.161,2.468-5.889l0.812-1.726
			l0.598-1.146l-0.017-0.234l2.405-4.461l0.58-0.212l0.028-0.814l2.109-3.873l0.95-1.006l0.541-0.791l1.821-3.171l0.427,0.02
			l0.13-0.574l1.277-1.219l0.611-1.015l0.497-0.207l0.016,0.23c0.24-0.219,0.411-0.211,0.411-0.211l-0.093-0.121l1.969-1.064
			l4.292-0.721l0.854,0.04l1.056,0.512l1.072,0.74l0.466,0.597l0.085,0.004c0.008,0.114,0.101,0.234,0.187,0.238
			c0.093,0.119,0.187,0.239,0.365,0.362l0.978,0.619l0.536,0.369l0.093,0.119l0.567,0.83l0.582,1.059l0.497,1.056l0.798,1.755
			l-0.24,0.22l0.232,0.928L99.874,83.322z"/>
	</g>
	<g>
		<path d="M137.518,108.776l-0.106,2.354c0.085,0.002,0.085,0.002,0.177,0.117c0.056,0.898-0.431,2.573-0.875,4.923
			c-1.416,7.062-1.607,6.722-3.811,10.635l0.029,0.452c-1.084,1.566-0.985,1.793-5.115,5.938c-1.886,0.893-0.629,2.033-9.247,4.602
			l-0.76-0.003c-0.253-0.001-0.822,0.338-1.076,0.337c-3.801-0.015-7.847-1.178-12.88-5.685c-1.623-1.508-2.699-2.438-5.227-7.302
			c-0.317-0.927-1.304-3.015-2.784-9.843c0.008,0.115,0.008,0.115,0.093,0.116c-0.254-0.005,0.167-2.534-0.171-7.498l0.482-4.137
			c0.624-2.057,0.591-3.784,2.451-8.904c0.866-2.27,2.847-8.169,6.568-13.521l0.606-1.118c0.163-0.108,0.481-0.438,0.869-0.993
			c1.251-1.659,2.648-2.397,4.183-2.331l0.886-0.759c1.024,0.045,0.141-0.448,5.056-2.048l0.156-0.22l0.769,0.034
			c0.078-0.109,0.249-0.102,0.412-0.207c0.256,0.012,0.69,0.145,1.388,0.402l0.854,0.039c0.634,0.594,1.625,1.43,2.721,2.608
			c0.619,0.365,1.732,3.122,4.08,5.249c0.377,0.578,0.861,1.499,1.572,1.978l1.386,1.742c0.292,0.574,0.676,1.265,1.251,2.297
			l0.646,0.812c0.207,0.569,0.413,1.139,0.704,1.711l0.028,0.451c0.461,0.578,0.703,1.71,1.739,3.317l0.326,1.133
			c0.234,1.018,0.957,3.062,2.005,10.274l0.092,1.461c0.007,0.112,0.099,0.228,0.276,0.344l0.269,0.23
			C137.553,107.991,137.575,108.328,137.518,108.776z M124.276,90.03l-2.22-2.793c-0.718-0.593-1.792-1.426-3.136-2.497
			c-0.56,0.546-1.219,0.86-2.071,0.828l-2.556-0.097c-0.767-0.028-2.228,2.309-3.865,4.529c-1.216,0.87-2.14,3.58-4.667,10.25
			c-0.365,2.165-3.153,8.632-2.705,15.299c0.208,3.104-0.531,3.438,2.727,9.108c0.377,0.579,2.214,4.038,9.236,4.109
			c-0.592-0.006,2.938-0.312,3.686-0.532c0.584-0.108,3.902-1.094,6.84-5.365l1.77-4.046c0.155-0.224,1.034-2.356,2.228-7.526
			l-0.043-0.678c0.309-1.799,0.378-3.375,0.291-4.73C129.387,99.563,128.248,95.019,124.276,90.03z"/>
	</g>
	<g>
		<path d="M165.501,134.574l-0.227,0.44l0.345,0.112l0.13,0.773l-0.338-0.002l-0.728,0.549l-2.546,1.204l-0.176-0.112l-2.636,1.098
			l-2.753,0.545l-3.497-0.569l-3.039-1.351l-2.483-1.912l-2.174-2.361l-1.422-2.475l-0.316-1.011l-0.169-0.002l-0.028-0.447
			c-0.282-0.451-0.507-1.35-0.838-2.586l-0.028-0.447c-0.12-0.562-0.247-1.236-0.373-1.909l-0.197-0.451
			c-0.021-0.337-0.035-0.562,0.029-0.896l-0.24-1.124l-0.077-1.234c0.043-0.671,0.015-1.12,0.008-1.231l-0.028-0.449
			c0.235-3.02,0.145-5.82,0.971-12.962c0.967-10.365,0.827-5.79,3.866-28.092c-0.007-0.111,1.484-4.938,1.354-7.056
			c0.007,0.112-0.117-4.672,1.063-6.276l-0.068-1.114l0.165-0.102c0.157-0.214,0.859-1.285,0.945-1.28l0.428,0.022
			c0.177,0.12,0.349,0.129,0.52,0.139c0.455,0.468,5.175,3.814,5.529,9.689c0.294,4.877-0.303,4.851-1.176,14.331
			c-0.314,0.43-0.87,1.074-2.138,9.567l0.041,0.667c-0.616,2.423,0.106,0.337-2.264,10.158l-0.079,0.108
			c-0.078,0.11-0.149,0.33-0.214,0.663l0.034,0.557c-0.257,1.33-1.6,8.43-1.277,13.674c0.014,0.224,0.027,0.445-0.044,0.667
			l0.119,0.56c0.007,0.112,0.007,0.112,0.092,0.113l0.089,1.45l1.121,4.472l1.061,2.127l1.604,1.351l1.725,0.569l2.296,0.24
			l7.569-0.606l0.507,0.004l0.066,1.104l0.358,0.334l-0.234,0.33l0.11,0.441L165.501,134.574z"/>
	</g>
	<g>
		<path d="M191.111,134.742l-0.229,0.433l0.344,0.11l0.127,0.761l-0.338-0.002l-0.729,0.539l-2.551,1.184l-0.175-0.11l-2.641,1.078
			l-2.755,0.535l-3.495-0.56l-3.033-1.328l-2.475-1.879l-2.164-2.322l-1.411-2.433l-0.312-0.994l-0.169-0.002l-0.026-0.439
			c-0.28-0.444-0.501-1.327-0.827-2.543l-0.026-0.44c-0.117-0.552-0.241-1.215-0.365-1.877l-0.195-0.443
			c-0.02-0.331-0.033-0.552,0.033-0.881l-0.235-1.104l-0.072-1.214c0.045-0.659,0.02-1.101,0.013-1.211l-0.026-0.441
			c0.248-2.969,0.169-5.722,1.025-12.743c1.012-10.189,0.852-5.691,3.987-27.614c-0.006-0.109,1.505-4.853,1.385-6.935
			c0.006,0.11-0.096-4.594,1.091-6.17l-0.063-1.095l0.165-0.1c0.158-0.21,0.865-1.263,0.951-1.259l0.427,0.023
			c0.177,0.118,0.349,0.127,0.52,0.137c0.453,0.461,5.16,3.754,5.489,9.529c0.273,4.794-0.324,4.768-1.239,14.085
			c-0.315,0.423-0.875,1.056-2.179,9.404l0.038,0.655c-0.627,2.382,0.104,0.332-2.308,9.984l-0.079,0.107
			c-0.079,0.107-0.151,0.324-0.217,0.651l0.032,0.548c-0.263,1.307-1.637,8.285-1.336,13.441c0.013,0.219,0.025,0.438-0.047,0.656
			l0.117,0.55c0.007,0.11,0.007,0.11,0.091,0.111l0.083,1.426l1.102,4.396l1.052,2.092l1.598,1.327l1.723,0.561l2.295,0.236
			l7.572-0.595l0.507,0.004l0.061,1.085l0.356,0.328l-0.235,0.325l0.108,0.434L191.111,134.742z"/>
	</g>
	<g>
		<path d="M214.96,70.876c4.348,3.292,3.535,5.692,4.561,9.026l0.199,3.825c-0.156,1.902,0.383,2.455-0.207,13.997
			c0.117,2.233-0.882,2.627-0.531,9.331l-0.08,0.104c-0.074,0.211-0.137,0.636-0.182,1.377c0.09,0.109,0.096,0.216,0.101,0.322
			c0.006,0.106-0.068,0.317-0.136,0.634l-0.137,0.636c0.022,0.425,1.006,1.404,1.028,1.829c-0.068,0.318-0.057,0.53-0.052,0.638
			c0.085,0.002,0.085,0.002,0.09,0.107c-0.051,0.638-0.437,1.373-0.753,1.791c0.113,0.534,0.129,0.854,0.146,1.174
			c-0.079,0.104-0.068,0.317-0.142,0.528c0.017,0.319,0.028,0.532,0.129,0.854c-0.062,0.424,0.174,1.703-0.222,2.229
			c0.119,0.641,0.073,1.385,0.36,2.027c-0.068,0.317-0.051,0.638-0.029,1.062c0.096,0.215,0.113,0.534,0.214,0.855
			c-0.079,0.104-0.073,0.211-0.068,0.318c0.011,0.213,0.022,0.425,0.124,0.746c-0.068,0.318-0.052,0.637-0.024,1.169
			c0.168,1.598,0.708,3.838,0.825,6.072l0.028,0.532c0.113,0.532,0.146,1.172,0.264,1.811c0.005,0.106,0.022,0.426-0.046,0.744
			l0.033,0.638c0.028,0.532-0.052,2.234-0.024,2.767c0.096,0.214,0.112,0.532,0.129,0.852c0.394-0.53-1.353,3.189-1.314,3.936
			c0,0-0.078,0.107-0.163,0.107c-0.169-0.001-0.259-0.108-0.439-0.321l-0.057,0.533l0.225,1.066
			c-0.079,0.105-0.158,0.212-0.242,0.212c-0.253,0-1.125-3.732-1.666-5.974l-0.017-0.32c-0.873-3.738-1.866-8.121-2.629-12.935
			l-0.796-0.65c-0.943-1.83-2.3-3.454-4.544-5.847c0.412-0.207-2.671,0.704-2.671,0.704l-0.085-0.001
			c-1.35,0.083-2.943,0.379-4.79,0.672c-1.009,3.215-1.502,6.549-2.236,10.101l-0.201,0.969c-0.079,0.108-0.066,0.324-0.133,0.647
			l-0.261,1.4c-0.067,0.323-0.127,0.755-0.339,1.51l-0.49,1.834c-0.211,0.756-0.405,1.836-0.574,3.348
			c-1.255,1.729-1.9,2.269-2.744,2.268c-1.351-0.003-3.029-2.828-3.127-4.564c-0.128-2.28,0.583-4.663,1.759-10.829l1.119-5.722
			c0.133-0.647,0.727-2.151,0.818-3.555c-0.115-0.543-0.235-1.193-0.362-1.953c0.103-1.188,0.2-0.969,0.729-3.659l-0.006-0.107
			c0.8-0.848,1.292-1.159,2.003-3.624c0.055-0.537,0.591-3.111,2.335-8.446c1.882-5.961,4.194-11.887,5.354-17.197l0.289-0.952
			c0.147-0.421,0.737-2.108,1.68-5.167c0.068-0.317,0.222-0.631,0.461-0.94c0.511-1.578,2.066-5.983,3.519-5.909
			C212.334,69.573,213.052,70.248,214.96,70.876z M206.532,97.949c-0.152,0.317-2.151,5.726-2.753,11.83l1.867,0.044
			c1.273,0.03,3.378-0.242,6.423-0.382c0.555-0.734-0.195-16.443-0.264-17.726c-0.017-0.32-0.08-1.497-0.272-3.53
			c-0.034-0.642-0.807-3.979-0.807-3.979c-0.006-0.108-0.006-0.108-0.006-0.108C210.209,84.078,209.124,87.665,206.532,97.949z"/>
	</g>
	<g>
		<path d="M249.014,75.183l1.904,0.611l1.813,0.502l2.721,1.681l2.307,1.966l0.826,1.276l1.002,3.242l0.143,1.244l-0.308,0.708
			l0.266,0.218l0.101,2.171l-0.213,0.919l-0.936,1.824l-0.411,0.294l-0.046,0.824L257.8,93.58l-0.837,0.279l-1.396,2.85l-1.383,1.3
			l-0.306,0.716l-0.746,0.391l-0.787,1.325l-2.006,2.431l-0.985,0.7l-0.64,0.813l-0.055,0.624l-0.969,1.015l3.608,0.928l3.032,1.324
			l0.958,0.543l1.158,1.169l0.767,1.881l0.72,2.706l-0.05,0.724l-0.23,0.513l-0.722,2.679L256,120.338l-0.489,0.406l-0.069,0.31
			l-1.731,2.775l-0.33,0.203l-0.055,0.622l-0.578,0.304l-0.313,0.515l-1.215,1.129l-0.389,0.725l-0.995,0.403l-0.791,1.138
			l0.01,0.209l-0.677-0.008l-0.403,0.412l-0.035,1.043l-0.9,0.618l-1.169,0.303l-0.223,0.624l-1.328,0.512l-1.263,0.095
			l-0.714,0.938l-0.417,0.101l-0.566,0.521l-0.819,0.519l-0.84,0.099l-0.55,0.837l-0.492,0.312l-0.258-0.107l-0.328,0.209
			l-0.792-0.635l-1.199,1.36l-0.681-0.109l-0.101-0.315l-0.682-0.11l-0.564,0.523l0.016,0.316l-0.254-0.001l-0.444-0.424
			l-0.417,0.104l-0.194,1.159l-0.682-0.109l-0.812,0.631l-1.065,0.629l-0.27-0.317l0.137-0.635l0.438,0.32l0.194-1.162l0.417-0.103
			l0.074-0.212l0.834-0.207l-0.037-0.738l0.3-0.737l0.75-0.205l0.232-0.421l1.374-1.255l1.839-2.089l0.661-0.31l1.688-1.769
			l2.535-1.755l1.575-2.388l0.572-0.411l1.378-1.235l1.523-1.752l0.986-0.609l0.06-0.521l0.339,0.006l-0.015-0.312l0.882-1.028
			l0.748-0.299l0.643-0.718l2.245-2.659l0.31-0.617l-0.374-0.734l-3.084-0.69l-0.589,0.092l-1.527-0.033l-2.63-0.057l-3.029,0.458
			l-1.326,0.6l-0.854-0.122l-2.439,0.368l-0.732,0.616l-1.002,1.977l-0.339-0.006l-0.863,1.353l-0.217,0.732l-0.678,1.675
			l0.042,0.843l-0.571,2.099l-0.317,0.418l-0.555,2.418l-0.194,2.847l-0.238,0.315l-0.256,3.27l-0.606,1.369l-0.104,1.268
			l-1.028,1.369l-0.142,0.528l-0.957-0.533l-0.94-0.217l-1.169-1.385l-0.235-4.558l1.194-16.285l-0.092-1.798l0.47-2.422
			l-0.108-2.116l0.322-2l-0.101-0.319l0.275-1.26l0.031-1.056l0.78-9.686l-0.389-0.963l-0.921-1.404l-0.161-1.484l-0.384-0.858
			l-0.134-0.956l0.633-0.925l0.292-0.938l-0.272-0.327l1.262-1.953l0.656-0.499l1.183-1.846l2.763-2.612l0.507-0.082l2.055-1.48
			l0.672-0.179l1.314-0.986l3.354-1.096l1.356-0.145l0.498-0.289l1.18-0.255l1.025,0.049l0.673-0.176L249.014,75.183z
			 M246.694,88.911l-2.255,0.852l-1.654,0.98l-2.862,2.299l-1.251,0.479l-0.487,2.184l0.207,0.741l0.094,1.889l-0.219,0.727
			l-0.424,3.446l1.69-0.161l1.164-0.488l6.5-4.285l1.462-1.409l2.609-2.299l1.916-2.628l0.623-1.219l-0.115-0.627l-0.536-0.539
			l-1.303-0.569l-1.875-0.074L246.694,88.911z"/>
	</g>
	<g>
		<path d="M303.795,112.641l-0.17,2.099c0.085,0.002,0.085,0.002,0.174,0.104c0.032,0.802-0.501,2.293-1.011,4.386
			c-1.61,6.294-1.792,5.99-4.103,9.478l0.016,0.403c-1.127,1.396-1.034,1.598-5.277,5.292c-1.911,0.795-0.685,1.813-9.373,4.103
			l-0.76-0.004c-0.253-0.001-0.832,0.302-1.085,0.301c-3.801-0.016-7.816-1.056-12.729-5.088c-1.583-1.349-2.635-2.181-5.033-6.533
			c-0.292-0.829-1.224-2.697-2.522-8.807c0.005,0.103,0.005,0.103,0.09,0.104c-0.254-0.005,0.234-2.266,0.029-6.705l0.593-3.698
			c0.679-1.837,0.693-3.382,2.691-7.953c0.927-2.026,3.068-7.291,6.938-12.058l0.637-0.996c0.166-0.097,0.493-0.39,0.897-0.883
			c1.297-1.477,2.716-2.13,4.251-2.063l0.907-0.674c1.024,0.045,0.153-0.399,5.118-1.804l0.162-0.195l0.769,0.034
			c0.081-0.097,0.251-0.089,0.418-0.183c0.256,0.012,0.687,0.132,1.378,0.366l0.854,0.038c0.619,0.533,1.587,1.284,2.653,2.34
			c0.61,0.329,1.649,2.794,3.941,4.701c0.362,0.518,0.821,1.341,1.52,1.771l1.34,1.56c0.276,0.513,0.642,1.13,1.189,2.053
			l0.625,0.726c0.19,0.509,0.381,1.017,0.657,1.528l0.016,0.402c0.446,0.517,0.657,1.526,1.649,2.964l0.295,1.011
			c0.206,0.908,0.874,2.732,1.725,9.165l0.052,1.303c0.004,0.1,0.093,0.203,0.267,0.307l0.263,0.207
			C303.853,111.941,303.865,112.242,303.795,112.641z M291.055,95.883l-2.146-2.5c-0.703-0.532-1.755-1.279-3.071-2.241
			c-0.575,0.484-1.243,0.763-2.095,0.73l-2.556-0.097c-0.767-0.028-2.292,2.053-3.991,4.029c-1.241,0.772-2.239,3.189-4.947,9.141
			c-0.423,1.934-3.387,7.705-3.117,13.664c0.125,2.775-0.624,3.072,2.483,8.146c0.361,0.519,2.106,3.612,9.128,3.683
			c-0.592-0.006,2.948-0.274,3.701-0.471c0.587-0.096,3.933-0.972,6.988-4.78l1.881-3.607c0.161-0.199,1.098-2.1,2.434-6.709
			l-0.025-0.604c0.358-1.604,0.47-3.01,0.42-4.219C295.911,104.404,294.895,100.347,291.055,95.883z"/>
	</g>
	<g>
		<path d="M351.209,128.438c-0.326,0.384-1.427,0.371-1.997,1.042c-0.423-0.005-0.677-0.008-0.765-0.105l-0.159,0.289
			c-0.251,0.094-0.42,0.092-0.674,0.089c-0.088-0.097-0.172-0.098-0.257-0.099l-0.423-0.005c-0.706-0.882-3.352-1.595-6.199-3.189
			l-1.544-0.606c-1.287-0.507-3.963-2.013-7.856-4.33l-0.519-0.305c-1.812-0.915-3.974-2.136-6.479-3.465l-1.807-0.728l-0.753,0.281
			c-1.733,1.251-2.956,2.516-5.311,2.969l-0.205,1.286l0.03,0.795c0.06,1.589-0.711,3.563-1.228,5.544l0.012,0.298
			c0.015,0.398-0.844,4.465-0.844,4.465l0.004,0.101c-0.704,1.486-0.773,1.884-1.791,3.968l-0.646,0.794
			c-0.081,0.1-0.418,0.098-0.926,0.096c-0.084-0.001-1.294-0.706-2.645-2.812l-0.177-0.2l-0.055-1.399
			c-0.088-0.102-0.177-0.201-0.273-0.502l-0.162-4.099c0.073-0.299,0.061-0.599,0.045-0.999s-0.031-0.8-0.132-1.201
			c0.291-1.194,0.371-3.49,0.457-5.587c-0.004-0.1-0.004-0.1-0.008-0.199c-0.027-0.699,0.176-1.993,0.53-3.783
			c0.993-4.965,0.361-3.783,0.992-7.158c0.988-5.153,1.22-7.936,2.815-15.042l-0.023-0.597c0.078-0.196,0.237-0.488,0.392-0.881
			l-0.027-0.696c-0.027-0.696,0.265-1.977,0.878-3.738c0.307-0.882-0.076-1.989,4.226-3.094c0.26,0.11,0.515,0.122,0.86,0.235
			l1.024,0.044c0.252-0.088,0.589-0.173,1.183-0.245c1.247-0.834,8.339-5.034,10.218-4.945c-0.085-0.004,3.894-0.792,4.919-0.743
			c1.195,0.058,2.487,0.411,4.133,1.172c-0.44-0.411,5.46,2.681,5.691,9.67c0.042,1.261-0.011,2.229-0.248,2.802l0.01,0.291
			c-1.312,4.027-0.506,2.697-10.03,10.076c0.248-0.188-5.326,3.078-5.288,4.158c0.007,0.196,0.095,0.298,0.181,0.3l-0.737,0.766
			c-0.421,0.087-0.57,0.673-0.535,1.656l0.018,0.492c-0.17-0.005-0.244,0.288-0.22,0.977l-0.081,0.097
			c0.021,0.591,5.627,3.266,21.22,13.473c0.869,0.689,1.095,2.434,1.349,2.437c0,0,0,0-0.003-0.097L351.209,128.438z
			 M336.701,88.018c0.41-0.471-4.383,1.283-5.747,1.228c-0.743,0.656-1.933,0.706-6.733,4.452c-0.664,0.469-1.521,2.606-3.299,7.383
			c-0.489,2.851-0.773,4.325-0.773,4.325c1.597-0.448,3.279-0.892,6.201-2.281c1.24-0.945,1.97,0.454,9.645-8.496
			c1.964-2.268,2.778-5.842,2.775-5.939C338.598,88.682,337.561,88.249,336.701,88.018z"/>
	</g>
	<g>
		<path d="M373.669,78.851c4.263,2.957,3.384,5.091,4.319,8.067l0.094,3.409c-0.209,1.694,0.315,2.188-0.592,12.472
			c0.056,1.99-0.954,2.338-0.788,8.313l-0.082,0.093c-0.08,0.188-0.154,0.565-0.221,1.227c0.088,0.098,0.09,0.191,0.093,0.287
			c0.003,0.095-0.077,0.282-0.153,0.564l-0.154,0.566c0.01,0.379,0.968,1.254,0.979,1.633c-0.077,0.283-0.072,0.473-0.069,0.567
			c0.085,0.002,0.085,0.002,0.088,0.097c-0.069,0.567-0.476,1.223-0.804,1.595c0.098,0.476,0.106,0.761,0.114,1.046
			c-0.082,0.093-0.077,0.283-0.157,0.471c0.009,0.285,0.014,0.475,0.107,0.761c-0.074,0.379,0.127,1.52-0.283,1.986
			c0.1,0.571,0.034,1.234,0.304,1.808c-0.077,0.283-0.069,0.568-0.058,0.947c0.09,0.191,0.098,0.477,0.19,0.763
			c-0.082,0.094-0.079,0.188-0.077,0.283c0.006,0.19,0.011,0.379,0.104,0.666c-0.076,0.283-0.068,0.567-0.056,1.042
			c0.124,1.424,0.604,3.422,0.659,5.413l0.014,0.475c0.098,0.475,0.113,1.044,0.213,1.613c0.004,0.096,0.012,0.38-0.065,0.664
			l0.016,0.568c0.014,0.475-0.113,1.991-0.101,2.466c0.09,0.19,0.098,0.475,0.105,0.759c0.41-0.473-1.439,2.843-1.421,3.508
			c0,0-0.081,0.096-0.166,0.096c-0.169,0-0.256-0.096-0.43-0.286l-0.071,0.476l0.195,0.95c-0.081,0.095-0.163,0.189-0.248,0.189
			c-0.253,0-1.023-3.328-1.502-5.326l-0.008-0.286c-0.771-3.334-1.644-7.243-2.275-11.535l-0.778-0.582
			c-0.894-1.633-2.207-3.084-4.387-5.222c0.418-0.185-2.692,0.623-2.692,0.623l-0.085-0.002c-1.353,0.072-2.955,0.333-4.81,0.591
			c-1.096,2.869-1.68,5.845-2.51,9.016l-0.227,0.864c-0.082,0.097-0.075,0.289-0.15,0.577l-0.299,1.251
			c-0.076,0.289-0.147,0.674-0.38,1.348l-0.54,1.638c-0.231,0.675-0.454,1.639-0.665,2.989c-1.301,1.543-1.961,2.025-2.805,2.024
			c-1.351-0.002-2.953-2.527-3.004-4.079c-0.067-2.037,0.708-4.165,2.051-9.673l1.273-5.108c0.151-0.578,0.786-1.921,0.915-3.174
			c-0.101-0.485-0.204-1.066-0.31-1.745c0.135-1.061,0.226-0.865,0.828-3.267l-0.003-0.096c0.824-0.755,1.324-1.032,2.103-3.23
			c0.07-0.48,0.676-2.776,2.565-7.534c2.046-5.312,4.521-10.592,5.827-15.324l0.315-0.848c0.159-0.375,0.796-1.878,1.823-4.602
			c0.077-0.282,0.239-0.562,0.487-0.836c0.555-1.404,2.232-5.325,3.686-5.251C371.075,77.676,371.775,78.28,373.669,78.851z
			 M364.491,102.954c-0.161,0.283-2.309,5.101-3.077,10.547l1.868,0.044c1.273,0.03,3.387-0.208,6.437-0.324
			c0.575-0.653,0.254-14.663,0.221-15.808c-0.008-0.285-0.039-1.334-0.176-3.147c-0.017-0.573-0.699-3.552-0.699-3.552
			c-0.003-0.096-0.003-0.096-0.003-0.096C368.55,90.597,367.366,93.791,364.491,102.954z"/>
	</g>
	<g>
		<path d="M427.83,89.488c-1.181,0.677-2.629,0.705-6.011,2.113l-1.792-0.076c-0.084,0.088-0.505,0.346-0.588,0.434l-0.17-0.007
			c-0.087-0.095-0.258-0.103-0.43-0.201c-0.257-0.011-0.512-0.021-0.937,0.053l-0.25,0.265c-0.259-0.104-0.518-0.297-0.86-0.403
			c-0.255,0.082-0.68,0.155-1.104,0.229l-0.506,0.256c-0.511-0.021-1.109-0.046-1.874,0.014l-0.424,0.074l-2.047-0.084
			c-0.341-0.015-0.683-0.028-1.106,0.047l-0.512-0.021c-0.999,1.068-0.764,3.942-3.902,19.393c-0.533,2.675-2.402,13.5-3.248,17.113
			c-0.155,0.649-0.944,3.06-0.914,4.362l0.046,1.955c0.003,0.094,0.005,0.187,0.007,0.28c0.011,0.465-0.135,1.395-0.362,2.511
			l0.013,0.559c-0.235,0.744-0.478,1.208-0.56,1.302c-0.083,0.093-2.409,1.671-2.493,1.671h-0.085
			c-0.248,0.186-0.582,0.372-0.918,0.465l-0.253-0.001c-0.081,0.093-0.081,0.093-0.166,0.093h-0.168
			c-0.353-0.562-0.726-5.425-0.739-5.986c0.079-0.186,0.075-0.373,0.153-0.653c-0.007-0.281-0.186-0.655-0.192-0.937l-0.064-2.618
			c-0.019-0.748,0.205-1.961,0.257-3.269c-0.087-0.096-0.091-0.282-0.096-0.469c0.022-2.523,0.229-4.483,0.426-6.815l-0.014-0.56
			c0.075-0.373,0.233-0.837,0.304-1.396c-0.002-0.094-0.007-0.281-0.096-0.469c0.149-0.838,0.297-1.769,0.352-2.98l0.16-0.37
			c0.108-2.518,0.524-2.881,1.381-9.571c0.392-1.385-0.118-1.401,2.115-11.192c-0.342-0.014-0.639-1.793-0.895-1.804
			c-0.457-1.321-0.792-1.056-2.16-1.299c-0.083,0.089-0.255,0.082-0.509,0.071l-2.133-0.088c-3.497-0.145-11.256-0.465-12.851-5.908
			c-0.016-0.565,1.323-1.541,2.007-1.51c0.171,0.008,0.429,0.115,0.775,0.319c0.677-0.251,1.95-0.474,3.914-0.382l1.451,0.068
			c0.425-0.073,0.85-0.147,1.443-0.213l0.258,0.012c0.256,0.013,0.427,0.021,0.681-0.061c0.26,0.198,0.606,0.401,1.036,0.516
			c0.34-0.078,0.767-0.058,1.361-0.123l3.849,0.46c2.045-0.091,4.008-0.091,5.972,0.001c1.794,0.084,2.907,0.321,6.071,0.653
			c-0.085-0.004-0.085-0.004-0.085-0.004s1.276-0.124,3.834-0.188c-0.002-0.093,0.855,0.132,2.393,0.204l2.391,0.111
			c0.257,0.013,1.281,0.061,2.991,0.232c0.768,0.036,3.172,0.786,4.11,0.829c0.257,0.013,2.427,2.023,2.43,2.205
			C428.413,88.695,428.246,88.961,427.83,89.488z"/>
	</g>
	<g>
		<path d="M436.97,85.374l1.204,0.599l0.699,1.024l0.292,2.179l-0.183,4.501l-1.064,2.575l-1.146,2.666l-2.903,9.225l-2.657,8.095
			l-0.631,2.713l-0.651,1.441l-0.226,1.541l-0.568,1.354l-0.312,1.542l-0.745,5.453l-0.541,2.729l-0.45,3.005l-1.121,3.278
			l-1.073,1.273l-1.335,0.819l-0.939-0.551l-0.337-4.213l0.159-0.548l-0.185-0.733l-0.053-2.655l0.129-2.104l-0.18-0.459
			l-0.173-4.487l0.02-3.295l0.458-2.553l0.524-3.556l0.555-1.998l0.997-5.544l0.488-1.081l0.871-3.348l1.441-4.781l0.062-1.272
			l0.742-1.246l0.732-1.882l1.072-1.957l0.073-0.633l1.732-3.193l0.422-0.253l0.741-1.508l1.679-1.553l1.78-0.64L436.97,85.374z"/>
	</g>
	<g>
		<path d="M476.63,81.312l-1.826,5.687c-0.842,1.362-0.68,0.405-4.154,11.229l-0.486,2.356c-0.728,3.67,0.013,1.232-3.677,13.808
			c-2.062,5.341,2.59-3.898-6.831,17.138c-0.974,3.276-3.077,4.062-4.261,4.053c-1.438-0.011-1.185-0.098-3.474-0.65l-0.426-0.183
			c0.678,0.185-3.568-1.104-4.57-5.956c-1.266-5.225-0.835-4.769-1.916-9.009c-0.482-3.783,0.003,0.18-3.731-26.554
			c-0.093-0.454-0.812-2.737-0.822-3.367c-0.027-1.714,0.913-1.581,1.597-1.55c-0.516-0.204,6.601,2.269,7.868,13.322l0.727,3.153
			c0.542,2.341,0.657,4.489,1.026,6.554c-0.083,0.087-0.083,0.087-0.082,0.177c0.372,2.331,0.651,4.125,0.84,5.468
			c0.009,0.625,0.028,2.054,0.48,4.027c0.449,1.881,0.633,2.866,0.717,2.868c1.356,0.022,2.729-5.205,7.501-17.158l0.415-0.873
			c0.739-2.189,7.033-18.271,7.698-19.999c0.167-0.344,1.006-1.798,1.834-4.392c0.419-0.77,1.67-3.95,2.27-3.916
			c-0.085-0.005,3.324-1.303,3.324-1.303c0.085,0.005,0.085,0.005,0.257,0.015c0.171,0.009,0.513-0.059,1.11-0.199
			c0.087,0.092,0.173,0.271,0.347,0.543C478.214,76.767,476.963,80.369,476.63,81.312z"/>
	</g>
	<g>
		<path d="M515.035,93.155c-0.597,0.228-1.45-0.149-2.474,0.314c-0.085-0.089-0.256-0.097-0.342-0.1l-0.853,0.473
			c-0.511,0.487-0.597,0.313-1.278,0.454c-0.085-0.003-0.256-0.011-0.427-0.103c0,0.085-0.511,0.148-1.62,0.441l-1.192,0.29
			l-0.768,0.139c-0.085-0.09-0.256-0.097-0.342-0.101c-0.34,0.328-1.876,0.178-2.728,0.228l-0.341-0.015
			c-0.256-0.011-0.938,0.303-1.022,0.3c-4.09,0.689,0.077-1.967-7.654,3.475c-0.085,0.084-1.698,0.972-2.797,2.313
			c-0.335,1.025-2.864,4.747-2.845,7.693c0.002,0.174,0.088,0.35,0.174,0.438l2.719-0.093c0.935-0.058,2.041-0.025,3.485-0.067
			c0.595,0.018,1.105,0.118,1.785,0.139c0.596,0.018,1.275-0.048,1.955-0.027c0.767,0.194,1.361,0.212,2.892,0.257l0.341,0.182
			c1.529-0.296,2.294-0.444,2.294-0.444s0,0-0.085-0.003c0.681,0.021,1.19,0.121,1.446,0.385v0.171
			c0.086,0.089,0.088,0.601,0.091,1.626l-0.934,0.572l-0.679,0.237l-0.254,0.249l-1.188,0.225c-0.084,0.084-0.508,0.329-1.187,0.568
			l-1.188,0.483c-0.339,0.334-1.951,0.637-6.362,1.301c-1.013,1.183-3.627,3.718-4.81,4.558c-0.25,0.601-0.67,1.286-1.175,1.884
			c-0.592,0.161-2.712,0.034-2.703,1.164c0.029,4.085,1.31,5.493,4.358,5.708l0.092,1.04l0.426,0.352l1.777,0.022l2.622-0.313
			l3.299-0.56l1.521-0.409l3.13-0.729l0.086,0.258c0.085,0.087,0.086,0.173,0.086,0.258c-0.084,0.257-0.084,0.427-0.083,0.514
			l0.085,0.086c0.001,0.086,0.001,0.172,0.001,0.172c0,0.171,0.001,0.257,0.086,0.429c-0.169,0.17-0.337,0.339-0.422,0.51
			l-0.085-0.173c0.001,0.172,0.002,0.342,0.087,0.515c-0.424-0.005,0.088,0.687-0.84,1.619v0.172
			c-0.167,0.427,0.003,0.686-1.007,1.877l0.001,0.343c-3.29,1.606-3.795,1.861-8.02,2.178l-1.1-0.007c0,0-0.083,0.085-0.253,0.084
			c-0.253-0.002-0.762-0.091-1.607-0.27c-2.454-0.451-1.518,0.509-5.594-2.039l-0.427-0.527c-1.535-1.582-2.554-1.941-4.57-10.177
			c0.082-0.26,0.08-0.521,0.076-0.872c-0.003-0.35-0.094-1.137-0.184-1.751c0.237-1.917,0.384-4.709,0.946-8.362
			c-0.02-2.357,0.661-2.251,3.131-12.367l-0.26-0.532c-0.347-0.71-0.609-1.591-0.873-2.646c0.254-0.164,0.424-0.331,0.677-0.583
			l-0.002-0.261l0.423-0.419c-0.086-0.09-0.087-0.265-0.088-0.352c0.165-0.602,0.671-1.364,1.431-2.376l0.171,0.007l0.593-0.583
			c0.593-0.582,1.696-1.313,2.288-2.154c-0.172-0.096-0.26-0.533-0.266-1.313c2.466-1.53,3.066-0.983,3.921-0.942
			c0.257,0.099,0.513,0.111,0.77,0.209l0.256,0.012c0.257,0.013,0.77,0.124,0.854,0.128c0.939,0.044,2.562-0.139,4.867-0.029
			l2.989,0.142c0.512,0.11,1.025,0.135,1.623,0.248l5.807,0.274c0.428,0.106,0.854,0.126,1.367,0.15l-0.086-0.004
			c-0.001-0.341,8.967,0.676,10.504,2.267v0.506C518.533,93.055,516.06,93.115,515.035,93.155z"/>
	</g>
</g>
<g>
	<g>
		<path fill="#1BE8ED" d="M93.874,83.322l-0.806-0.605l0.046,1.953l-0.178-0.122l0.147,0.924l-1.022-1.302l-0.039,0.688
			l-1.619-1.325c-0.078,0.111-0.249,0.104-0.333,0.102c0.008,0.116-0.078,0.112-0.078,0.112l-0.341-0.013
			c-0.41,0.215-0.836,0.198-0.836,0.198l-0.597-0.022l-0.551-0.599c-0.008-0.115-0.38-0.591-0.761-1.182l-0.294-0.588
			c-0.093-0.118-0.194-0.354-0.194-0.354l-0.178-0.121l-0.085-0.004l-0.395,0.444l0.024,0.349l-0.759,0.085l-0.085-0.004
			c-0.085-0.003-0.085-0.003-0.155,0.225c-0.317,0.334-0.898,0.542-1.633,0.975l-1.106,1.229l-1.274,1.225
			c-0.857,1.126-1.698,2.485-2.392,3.505l-1.318,1.811l-1.791,3.541l-1.008,3.807l-1.423,3.916l-0.614,0.917l-0.612,3.364
			l-0.709,1.966l-0.796,3.134l-0.73,4.073l-0.608,3.38l-0.211,4.208l0.215,3.044l0.588,2.347l1.155,1.998l1.689,1.183l1.8,0.365
			l2.283,0.018l5.153-1.238l0.286,0.468l0.339,0.003l-0.214,0.578l0.616,0.353l-0.23,0.347l0.202,0.466l-0.338-0.002l-0.222,0.463
			l0.347,0.118l0.217,0.697l-0.33,0.115l-0.72,0.576l-2.422,1.615l-0.177-0.118l-2.513,1.502l-6.117,0.679l-3.115-1.066
			l-2.651-1.654l-2.264-2.13l-1.605-2.363l-1.741-4.254l-0.66-3.305l-0.126-4.122l0.246-1.292l-0.177-1.297l0.135-0.469l0.001-2.354
			l0.408-1.403l0.459-3.047l2.061-7.937l0.23-0.346l0.579-1.392l0.043-0.585l0.725-1.737c0.153-0.229,0.307-0.46,0.375-0.692
			c0.65-2.789,1.657-4.161,2.468-5.889l0.812-1.726l0.598-1.146l-0.017-0.234l2.405-4.461l0.58-0.212l0.028-0.814l2.109-3.873
			l0.95-1.006l0.541-0.791l1.821-3.171l0.427,0.02l0.13-0.574l1.277-1.219l0.611-1.015l0.497-0.207l0.016,0.23
			c0.24-0.219,0.411-0.211,0.411-0.211l-0.093-0.121l1.969-1.064l4.292-0.721l0.854,0.04l1.056,0.512l1.072,0.74l0.466,0.597
			l0.085,0.004c0.008,0.114,0.101,0.234,0.187,0.238c0.093,0.119,0.187,0.239,0.365,0.362l0.978,0.619l0.536,0.369l0.093,0.119
			l0.567,0.83l0.582,1.059l0.497,1.056l0.798,1.755l-0.24,0.22l0.232,0.928L93.874,83.322z"/>
	</g>
	<g>
		<path fill="#1BE8ED" d="M131.518,108.776l-0.106,2.354c0.085,0.002,0.085,0.002,0.177,0.117c0.056,0.898-0.431,2.573-0.875,4.923
			c-1.416,7.062-1.607,6.722-3.811,10.635l0.029,0.452c-1.084,1.566-0.985,1.793-5.115,5.938c-1.886,0.893-0.629,2.033-9.247,4.602
			l-0.76-0.003c-0.253-0.001-0.822,0.338-1.076,0.337c-3.801-0.015-7.847-1.178-12.88-5.685c-1.623-1.508-2.699-2.438-5.227-7.302
			c-0.317-0.927-1.304-3.015-2.784-9.843c0.008,0.115,0.008,0.115,0.093,0.116c-0.254-0.005,0.167-2.534-0.171-7.498l0.482-4.137
			c0.624-2.057,0.591-3.784,2.451-8.904c0.866-2.27,2.847-8.169,6.568-13.521l0.606-1.118c0.163-0.108,0.481-0.438,0.869-0.993
			c1.251-1.659,2.648-2.397,4.183-2.331l0.886-0.759c1.024,0.045,0.141-0.448,5.056-2.048l0.156-0.22l0.769,0.034
			c0.078-0.109,0.249-0.102,0.412-0.207c0.256,0.012,0.69,0.145,1.388,0.402l0.854,0.039c0.634,0.594,1.625,1.43,2.721,2.608
			c0.619,0.365,1.732,3.122,4.08,5.249c0.377,0.578,0.861,1.499,1.572,1.978l1.386,1.742c0.292,0.574,0.676,1.265,1.251,2.297
			l0.646,0.812c0.207,0.569,0.413,1.139,0.704,1.711l0.028,0.451c0.461,0.578,0.703,1.71,1.739,3.317l0.326,1.133
			c0.234,1.018,0.957,3.062,2.005,10.274l0.092,1.461c0.007,0.112,0.099,0.228,0.276,0.344l0.269,0.23
			C131.553,107.991,131.575,108.328,131.518,108.776z M118.276,90.03l-2.22-2.793c-0.718-0.593-1.792-1.426-3.136-2.497
			c-0.56,0.546-1.219,0.86-2.071,0.828l-2.556-0.097c-0.767-0.028-2.228,2.309-3.865,4.529c-1.216,0.87-2.14,3.58-4.667,10.25
			c-0.365,2.165-3.153,8.632-2.705,15.299c0.208,3.104-0.531,3.438,2.727,9.108c0.377,0.579,2.214,4.038,9.236,4.109
			c-0.592-0.006,2.938-0.312,3.686-0.532c0.584-0.108,3.902-1.094,6.84-5.365l1.77-4.046c0.155-0.224,1.034-2.356,2.228-7.526
			l-0.043-0.678c0.309-1.799,0.378-3.375,0.291-4.73C123.387,99.563,122.248,95.019,118.276,90.03z"/>
	</g>
	<g>
		<path fill="#1BE8ED" d="M159.501,134.574l-0.227,0.44l0.345,0.112l0.13,0.773l-0.338-0.002l-0.728,0.549l-2.546,1.204
			l-0.176-0.112l-2.636,1.098l-2.753,0.545l-3.497-0.569l-3.039-1.351l-2.483-1.912l-2.174-2.361l-1.422-2.475l-0.316-1.011
			l-0.169-0.002l-0.028-0.447c-0.282-0.451-0.507-1.35-0.838-2.586l-0.028-0.447c-0.12-0.562-0.247-1.236-0.373-1.909l-0.197-0.451
			c-0.021-0.337-0.035-0.562,0.029-0.896l-0.24-1.124l-0.077-1.234c0.043-0.671,0.015-1.12,0.008-1.231l-0.028-0.449
			c0.235-3.02,0.145-5.82,0.971-12.962c0.967-10.365,0.827-5.79,3.866-28.092c-0.007-0.111,1.484-4.938,1.354-7.056
			c0.007,0.112-0.117-4.672,1.063-6.276l-0.068-1.114l0.165-0.102c0.157-0.214,0.859-1.285,0.945-1.28l0.428,0.022
			c0.177,0.12,0.349,0.129,0.52,0.139c0.455,0.468,5.175,3.814,5.529,9.689c0.294,4.877-0.303,4.851-1.176,14.331
			c-0.314,0.43-0.87,1.074-2.138,9.567l0.041,0.667c-0.616,2.423,0.106,0.337-2.264,10.158l-0.079,0.108
			c-0.078,0.11-0.149,0.33-0.214,0.663l0.034,0.557c-0.257,1.33-1.6,8.43-1.277,13.674c0.014,0.224,0.027,0.445-0.044,0.667
			l0.119,0.56c0.007,0.112,0.007,0.112,0.092,0.113l0.089,1.45l1.121,4.472l1.061,2.127l1.604,1.351l1.725,0.569l2.296,0.24
			l7.569-0.606l0.507,0.004l0.066,1.104l0.358,0.334l-0.234,0.33l0.11,0.441L159.501,134.574z"/>
	</g>
	<g>
		<path fill="#1BE8ED" d="M185.111,134.742l-0.229,0.433l0.344,0.11l0.127,0.761l-0.338-0.002l-0.729,0.539l-2.551,1.184
			l-0.175-0.11l-2.641,1.078l-2.755,0.535l-3.495-0.56l-3.033-1.328l-2.475-1.879l-2.164-2.322l-1.411-2.433l-0.312-0.994
			l-0.169-0.002l-0.026-0.439c-0.28-0.444-0.501-1.327-0.827-2.543l-0.026-0.44c-0.117-0.552-0.241-1.215-0.365-1.877l-0.195-0.443
			c-0.02-0.331-0.033-0.552,0.033-0.881l-0.235-1.104l-0.072-1.214c0.045-0.659,0.02-1.101,0.013-1.211l-0.026-0.441
			c0.248-2.969,0.169-5.722,1.025-12.743c1.012-10.189,0.852-5.691,3.987-27.614c-0.006-0.109,1.505-4.853,1.385-6.935
			c0.006,0.11-0.096-4.594,1.091-6.17l-0.063-1.095l0.165-0.1c0.158-0.21,0.865-1.263,0.951-1.259l0.427,0.023
			c0.177,0.118,0.349,0.127,0.52,0.137c0.453,0.461,5.16,3.754,5.489,9.529c0.273,4.794-0.324,4.768-1.239,14.085
			c-0.315,0.423-0.875,1.056-2.179,9.404l0.038,0.655c-0.627,2.382,0.104,0.332-2.308,9.984l-0.079,0.107
			c-0.079,0.107-0.151,0.324-0.217,0.651l0.032,0.548c-0.263,1.307-1.637,8.285-1.336,13.441c0.013,0.219,0.025,0.438-0.047,0.656
			l0.117,0.55c0.007,0.11,0.007,0.11,0.091,0.111l0.083,1.426l1.102,4.396l1.052,2.092l1.598,1.327l1.723,0.561l2.295,0.236
			l7.572-0.595l0.507,0.004l0.061,1.085l0.356,0.328l-0.235,0.325l0.108,0.434L185.111,134.742z"/>
	</g>
	<g>
		<path fill="#1BE8ED" d="M208.96,70.876c4.348,3.292,3.535,5.692,4.561,9.026l0.199,3.825c-0.156,1.902,0.383,2.455-0.207,13.997
			c0.117,2.233-0.882,2.627-0.531,9.331l-0.08,0.104c-0.074,0.211-0.137,0.636-0.182,1.377c0.09,0.109,0.096,0.216,0.101,0.322
			c0.006,0.106-0.068,0.317-0.136,0.634l-0.137,0.636c0.022,0.425,1.006,1.404,1.028,1.829c-0.068,0.318-0.057,0.53-0.052,0.638
			c0.085,0.002,0.085,0.002,0.09,0.107c-0.051,0.638-0.437,1.373-0.753,1.791c0.113,0.534,0.129,0.854,0.146,1.174
			c-0.079,0.104-0.068,0.317-0.142,0.528c0.017,0.319,0.028,0.532,0.129,0.854c-0.062,0.424,0.174,1.703-0.222,2.229
			c0.119,0.641,0.073,1.385,0.36,2.027c-0.068,0.317-0.051,0.638-0.029,1.062c0.096,0.215,0.113,0.534,0.214,0.855
			c-0.079,0.104-0.073,0.211-0.068,0.318c0.011,0.213,0.022,0.425,0.124,0.746c-0.068,0.318-0.052,0.637-0.024,1.169
			c0.168,1.598,0.708,3.838,0.825,6.072l0.028,0.532c0.113,0.532,0.146,1.172,0.264,1.811c0.005,0.106,0.022,0.426-0.046,0.744
			l0.033,0.638c0.028,0.532-0.052,2.234-0.024,2.767c0.096,0.214,0.112,0.532,0.129,0.852c0.394-0.53-1.353,3.189-1.314,3.936
			c0,0-0.078,0.107-0.163,0.107c-0.169-0.001-0.259-0.108-0.439-0.321l-0.057,0.533l0.225,1.066
			c-0.079,0.105-0.158,0.212-0.242,0.212c-0.253,0-1.125-3.732-1.666-5.974l-0.017-0.32c-0.873-3.738-1.866-8.121-2.629-12.935
			l-0.796-0.65c-0.943-1.83-2.3-3.454-4.544-5.847c0.412-0.207-2.671,0.704-2.671,0.704l-0.085-0.001
			c-1.35,0.083-2.943,0.379-4.79,0.672c-1.009,3.215-1.502,6.549-2.236,10.101l-0.201,0.969c-0.079,0.108-0.066,0.324-0.133,0.647
			l-0.261,1.4c-0.067,0.323-0.127,0.755-0.339,1.51l-0.49,1.834c-0.211,0.756-0.405,1.836-0.574,3.348
			c-1.255,1.729-1.9,2.269-2.744,2.268c-1.351-0.003-3.029-2.828-3.127-4.564c-0.128-2.28,0.583-4.663,1.759-10.829l1.119-5.722
			c0.133-0.647,0.727-2.151,0.818-3.555c-0.115-0.543-0.235-1.193-0.362-1.953c0.103-1.188,0.2-0.969,0.729-3.659l-0.006-0.107
			c0.8-0.848,1.292-1.159,2.003-3.624c0.055-0.537,0.591-3.111,2.335-8.446c1.882-5.961,4.194-11.887,5.354-17.197l0.289-0.952
			c0.147-0.421,0.737-2.108,1.68-5.167c0.068-0.317,0.222-0.631,0.461-0.94c0.511-1.578,2.066-5.983,3.519-5.909
			C206.334,69.573,207.052,70.248,208.96,70.876z M200.532,97.949c-0.152,0.317-2.151,5.726-2.753,11.83l1.867,0.044
			c1.273,0.03,3.378-0.242,6.423-0.382c0.555-0.734-0.195-16.443-0.264-17.726c-0.017-0.32-0.08-1.497-0.272-3.53
			c-0.034-0.642-0.807-3.979-0.807-3.979c-0.006-0.108-0.006-0.108-0.006-0.108C204.209,84.078,203.124,87.665,200.532,97.949z"/>
	</g>
	<g>
		<path fill="#1BE8ED" d="M243.014,75.183l1.904,0.611l1.813,0.502l2.721,1.681l2.307,1.966l0.826,1.276l1.002,3.242l0.143,1.244
			l-0.308,0.708l0.266,0.218l0.101,2.171l-0.213,0.919l-0.936,1.824l-0.411,0.294l-0.046,0.824L251.8,93.58l-0.837,0.279
			l-1.396,2.85l-1.383,1.3l-0.306,0.716l-0.746,0.391l-0.787,1.325l-2.006,2.431l-0.985,0.7l-0.64,0.813l-0.055,0.624l-0.969,1.015
			l3.608,0.928l3.032,1.324l0.958,0.543l1.158,1.169l0.767,1.881l0.72,2.706l-0.05,0.724l-0.23,0.513l-0.722,2.679L250,120.338
			l-0.489,0.406l-0.069,0.31l-1.731,2.775l-0.33,0.203l-0.055,0.622l-0.578,0.304l-0.313,0.515l-1.215,1.129l-0.389,0.725
			l-0.995,0.403l-0.791,1.138l0.01,0.209l-0.677-0.008l-0.403,0.412l-0.035,1.043l-0.9,0.618l-1.168,0.303l-0.224,0.624
			l-1.328,0.512l-1.263,0.095l-0.714,0.938l-0.417,0.101l-0.566,0.521l-0.819,0.519l-0.84,0.099l-0.55,0.837l-0.492,0.312
			l-0.258-0.107l-0.328,0.209l-0.792-0.635l-1.199,1.36l-0.681-0.109l-0.101-0.315l-0.682-0.11l-0.564,0.523l0.016,0.316
			l-0.254-0.001l-0.444-0.424l-0.417,0.104l-0.194,1.159l-0.682-0.109l-0.812,0.631l-1.065,0.629l-0.27-0.317l0.137-0.635
			l0.438,0.32l0.194-1.162l0.417-0.103l0.074-0.212l0.834-0.207l-0.037-0.738l0.3-0.737l0.75-0.205l0.232-0.421l1.374-1.255
			l1.839-2.089l0.661-0.31l1.688-1.769l2.535-1.755l1.575-2.388l0.572-0.411l1.378-1.235l1.523-1.752l0.986-0.609l0.06-0.521
			l0.339,0.006l-0.015-0.312l0.882-1.028l0.748-0.299l0.643-0.718l2.245-2.659l0.31-0.617l-0.374-0.734l-3.084-0.69l-0.589,0.092
			l-1.527-0.033l-2.63-0.057l-3.029,0.458l-1.326,0.6l-0.854-0.122l-2.439,0.368l-0.732,0.616l-1.002,1.977l-0.339-0.006
			l-0.863,1.353l-0.217,0.732l-0.678,1.675l0.042,0.843l-0.571,2.099l-0.317,0.418l-0.555,2.418l-0.194,2.847l-0.238,0.315
			l-0.256,3.27l-0.606,1.369l-0.104,1.268l-1.028,1.369l-0.142,0.528l-0.957-0.533l-0.94-0.217l-1.169-1.385l-0.235-4.558
			l1.194-16.285l-0.092-1.798l0.47-2.422l-0.108-2.116l0.322-2l-0.101-0.319l0.275-1.26l0.031-1.056l0.78-9.686l-0.389-0.963
			l-0.921-1.404l-0.161-1.484l-0.384-0.858l-0.134-0.956l0.633-0.925l0.292-0.938l-0.272-0.327l1.262-1.953l0.656-0.499l1.183-1.846
			l2.763-2.612l0.507-0.082l2.055-1.48l0.672-0.179l1.314-0.986l3.354-1.096l1.356-0.145l0.498-0.289l1.18-0.255l1.025,0.049
			l0.673-0.176L243.014,75.183z M240.694,88.911l-2.255,0.852l-1.654,0.98l-2.862,2.299l-1.251,0.479l-0.487,2.184l0.207,0.741
			l0.094,1.889l-0.219,0.727l-0.424,3.446l1.69-0.161l1.164-0.488l6.5-4.285l1.462-1.409l2.609-2.299l1.916-2.628l0.623-1.219
			l-0.115-0.627l-0.536-0.539l-1.303-0.569l-1.875-0.074L240.694,88.911z"/>
	</g>
	<g>
		<path fill="#1BE8ED" d="M297.795,112.641l-0.17,2.099c0.085,0.002,0.085,0.002,0.174,0.104c0.032,0.802-0.501,2.293-1.011,4.386
			c-1.61,6.294-1.792,5.99-4.103,9.478l0.016,0.403c-1.127,1.396-1.034,1.598-5.277,5.292c-1.911,0.795-0.685,1.813-9.373,4.103
			l-0.76-0.004c-0.253-0.001-0.832,0.302-1.085,0.301c-3.801-0.016-7.816-1.056-12.729-5.088c-1.583-1.349-2.635-2.181-5.033-6.533
			c-0.292-0.829-1.224-2.697-2.522-8.807c0.005,0.103,0.005,0.103,0.09,0.104c-0.254-0.005,0.234-2.266,0.029-6.705l0.593-3.698
			c0.679-1.837,0.693-3.382,2.691-7.953c0.927-2.026,3.068-7.291,6.938-12.058l0.637-0.996c0.166-0.097,0.493-0.39,0.897-0.883
			c1.297-1.477,2.716-2.13,4.251-2.063l0.907-0.674c1.024,0.045,0.153-0.399,5.118-1.804l0.162-0.195l0.769,0.034
			c0.081-0.097,0.251-0.089,0.418-0.183c0.256,0.012,0.687,0.132,1.378,0.366l0.854,0.038c0.619,0.533,1.587,1.284,2.653,2.34
			c0.61,0.329,1.649,2.794,3.941,4.701c0.362,0.518,0.821,1.341,1.52,1.771l1.34,1.56c0.276,0.513,0.642,1.13,1.189,2.053
			l0.625,0.726c0.19,0.509,0.381,1.017,0.657,1.528l0.016,0.402c0.446,0.517,0.657,1.526,1.649,2.964l0.295,1.011
			c0.206,0.908,0.874,2.732,1.725,9.165l0.052,1.303c0.004,0.1,0.093,0.203,0.267,0.307l0.263,0.207
			C297.853,111.941,297.865,112.242,297.795,112.641z M285.055,95.883l-2.146-2.5c-0.703-0.532-1.755-1.279-3.071-2.241
			c-0.575,0.484-1.243,0.763-2.095,0.73l-2.556-0.097c-0.767-0.028-2.292,2.053-3.991,4.029c-1.241,0.772-2.239,3.189-4.947,9.141
			c-0.423,1.934-3.387,7.705-3.117,13.664c0.125,2.775-0.624,3.072,2.483,8.146c0.361,0.519,2.106,3.612,9.128,3.683
			c-0.592-0.006,2.948-0.274,3.701-0.471c0.587-0.096,3.933-0.972,6.988-4.78l1.881-3.607c0.161-0.199,1.098-2.1,2.434-6.709
			l-0.025-0.604c0.358-1.604,0.47-3.01,0.42-4.219C289.911,104.404,288.895,100.347,285.055,95.883z"/>
	</g>
	<g>
		<path fill="#1BE8ED" d="M345.209,128.438c-0.326,0.384-1.427,0.371-1.997,1.042c-0.423-0.005-0.677-0.008-0.765-0.105
			l-0.159,0.289c-0.251,0.094-0.42,0.092-0.674,0.089c-0.088-0.097-0.172-0.098-0.257-0.099l-0.423-0.005
			c-0.706-0.882-3.352-1.595-6.199-3.189l-1.544-0.606c-1.287-0.507-3.963-2.013-7.856-4.33l-0.519-0.305
			c-1.812-0.915-3.974-2.136-6.479-3.465l-1.807-0.728l-0.753,0.281c-1.733,1.251-2.956,2.516-5.311,2.969l-0.205,1.286l0.03,0.795
			c0.06,1.589-0.711,3.563-1.228,5.544l0.012,0.298c0.015,0.398-0.844,4.465-0.844,4.465l0.004,0.101
			c-0.704,1.486-0.773,1.884-1.791,3.968l-0.646,0.794c-0.081,0.1-0.418,0.098-0.926,0.096c-0.084-0.001-1.294-0.706-2.645-2.812
			l-0.177-0.2l-0.055-1.399c-0.088-0.102-0.177-0.201-0.273-0.502l-0.162-4.099c0.073-0.299,0.061-0.599,0.045-0.999
			s-0.031-0.8-0.132-1.201c0.291-1.194,0.371-3.49,0.457-5.587c-0.004-0.1-0.004-0.1-0.008-0.199
			c-0.027-0.699,0.176-1.993,0.53-3.783c0.993-4.965,0.361-3.783,0.992-7.158c0.988-5.153,1.22-7.936,2.815-15.042l-0.023-0.597
			c0.078-0.196,0.237-0.488,0.392-0.881l-0.027-0.696c-0.027-0.696,0.265-1.977,0.878-3.738c0.307-0.882-0.076-1.989,4.226-3.094
			c0.26,0.11,0.515,0.122,0.86,0.235l1.024,0.044c0.252-0.088,0.589-0.173,1.183-0.245c1.247-0.834,8.339-5.034,10.218-4.945
			c-0.085-0.004,3.894-0.792,4.919-0.743c1.195,0.058,2.487,0.411,4.133,1.172c-0.44-0.411,5.46,2.681,5.691,9.67
			c0.042,1.261-0.011,2.229-0.248,2.802l0.01,0.291c-1.312,4.027-0.506,2.697-10.03,10.076c0.248-0.188-5.326,3.078-5.288,4.158
			c0.007,0.196,0.095,0.298,0.181,0.3l-0.737,0.766c-0.421,0.087-0.57,0.673-0.535,1.656l0.018,0.492
			c-0.17-0.005-0.244,0.288-0.22,0.977l-0.081,0.097c0.021,0.591,5.627,3.266,21.22,13.473c0.869,0.689,1.095,2.434,1.349,2.437
			c0,0,0,0-0.003-0.097L345.209,128.438z M330.701,88.018c0.41-0.471-4.383,1.283-5.747,1.228c-0.743,0.656-1.933,0.706-6.733,4.452
			c-0.664,0.469-1.521,2.606-3.299,7.383c-0.489,2.851-0.773,4.325-0.773,4.325c1.597-0.448,3.279-0.892,6.201-2.281
			c1.24-0.945,1.97,0.454,9.645-8.496c1.964-2.268,2.778-5.842,2.775-5.939C332.598,88.682,331.561,88.249,330.701,88.018z"/>
	</g>
	<g>
		<path fill="#1BE8ED" d="M367.669,78.851c4.263,2.957,3.384,5.091,4.319,8.067l0.094,3.409c-0.209,1.694,0.315,2.188-0.592,12.472
			c0.055,1.99-0.955,2.338-0.788,8.313l-0.083,0.093c-0.08,0.188-0.154,0.565-0.22,1.227c0.087,0.098,0.09,0.191,0.093,0.287
			c0.002,0.095-0.077,0.282-0.154,0.564l-0.154,0.566c0.01,0.379,0.968,1.254,0.979,1.633c-0.077,0.283-0.072,0.473-0.069,0.567
			c0.085,0.002,0.085,0.002,0.088,0.097c-0.069,0.567-0.475,1.223-0.804,1.595c0.098,0.476,0.106,0.761,0.114,1.046
			c-0.082,0.093-0.077,0.283-0.157,0.471c0.008,0.285,0.014,0.475,0.106,0.761c-0.074,0.379,0.127,1.52-0.283,1.986
			c0.101,0.571,0.035,1.234,0.304,1.808c-0.077,0.283-0.069,0.568-0.058,0.947c0.09,0.191,0.098,0.477,0.191,0.763
			c-0.082,0.094-0.08,0.188-0.077,0.283c0.005,0.19,0.011,0.379,0.104,0.666c-0.077,0.283-0.069,0.567-0.056,1.042
			c0.125,1.424,0.604,3.422,0.659,5.413l0.013,0.475c0.098,0.475,0.114,1.044,0.214,1.613c0.003,0.096,0.011,0.38-0.066,0.664
			l0.016,0.568c0.014,0.475-0.113,1.991-0.1,2.466c0.09,0.19,0.098,0.475,0.105,0.759c0.409-0.473-1.44,2.843-1.421,3.508
			c0,0-0.082,0.096-0.166,0.096c-0.169,0-0.256-0.096-0.43-0.286l-0.071,0.476l0.196,0.95c-0.082,0.095-0.164,0.189-0.248,0.189
			c-0.253,0-1.023-3.328-1.502-5.326l-0.008-0.286c-0.771-3.334-1.644-7.243-2.275-11.535l-0.778-0.582
			c-0.894-1.633-2.207-3.084-4.387-5.222c0.418-0.185-2.692,0.623-2.692,0.623l-0.085-0.002c-1.353,0.072-2.955,0.333-4.81,0.591
			c-1.096,2.869-1.68,5.845-2.51,9.016l-0.227,0.864c-0.082,0.097-0.075,0.289-0.15,0.577l-0.299,1.251
			c-0.076,0.289-0.147,0.674-0.38,1.348l-0.54,1.638c-0.231,0.675-0.454,1.639-0.665,2.989c-1.301,1.543-1.961,2.025-2.805,2.024
			c-1.351-0.002-2.953-2.527-3.004-4.079c-0.067-2.037,0.708-4.165,2.051-9.673l1.273-5.108c0.151-0.578,0.786-1.921,0.915-3.174
			c-0.101-0.485-0.204-1.066-0.31-1.745c0.135-1.061,0.226-0.865,0.828-3.267l-0.003-0.096c0.824-0.755,1.324-1.032,2.103-3.23
			c0.07-0.48,0.676-2.776,2.565-7.534c2.046-5.312,4.521-10.592,5.827-15.324l0.315-0.848c0.159-0.375,0.796-1.878,1.823-4.602
			c0.077-0.282,0.239-0.562,0.487-0.836c0.555-1.404,2.232-5.325,3.686-5.251C365.075,77.676,365.775,78.28,367.669,78.851z
			 M358.491,102.954c-0.161,0.283-2.309,5.101-3.077,10.547l1.868,0.044c1.273,0.03,3.387-0.208,6.437-0.324
			c0.575-0.653,0.254-14.663,0.221-15.808c-0.008-0.285-0.039-1.334-0.176-3.147c-0.017-0.573-0.699-3.552-0.699-3.552
			c-0.003-0.096-0.003-0.096-0.003-0.096C362.55,90.597,361.366,93.791,358.491,102.954z"/>
	</g>
	<g>
		<path fill="#1BE8ED" d="M421.83,89.488c-1.181,0.677-2.629,0.705-6.011,2.113l-1.792-0.076c-0.084,0.088-0.505,0.346-0.588,0.434
			l-0.17-0.007c-0.087-0.095-0.258-0.103-0.43-0.201c-0.257-0.011-0.512-0.021-0.937,0.053l-0.25,0.265
			c-0.259-0.104-0.518-0.297-0.86-0.403c-0.255,0.082-0.68,0.155-1.104,0.229l-0.506,0.256c-0.511-0.021-1.109-0.046-1.874,0.014
			l-0.424,0.074l-2.047-0.084c-0.341-0.015-0.683-0.028-1.106,0.047l-0.512-0.021c-0.999,1.068-0.764,3.942-3.902,19.393
			c-0.533,2.675-2.402,13.5-3.248,17.113c-0.155,0.649-0.944,3.06-0.914,4.362l0.046,1.955c0.003,0.094,0.005,0.187,0.007,0.28
			c0.011,0.465-0.135,1.395-0.362,2.511l0.013,0.559c-0.235,0.744-0.478,1.208-0.56,1.302c-0.083,0.093-2.409,1.671-2.493,1.671
			h-0.085c-0.248,0.186-0.582,0.372-0.918,0.465l-0.253-0.001c-0.081,0.093-0.081,0.093-0.166,0.093h-0.168
			c-0.353-0.562-0.726-5.425-0.739-5.986c0.079-0.186,0.075-0.373,0.153-0.653c-0.007-0.281-0.186-0.655-0.192-0.937l-0.064-2.618
			c-0.019-0.748,0.205-1.961,0.257-3.269c-0.087-0.096-0.091-0.282-0.096-0.469c0.022-2.523,0.229-4.483,0.426-6.815l-0.014-0.56
			c0.075-0.373,0.233-0.837,0.304-1.396c-0.002-0.094-0.007-0.281-0.096-0.469c0.149-0.838,0.297-1.769,0.352-2.98l0.16-0.37
			c0.108-2.518,0.524-2.881,1.381-9.571c0.392-1.385-0.118-1.401,2.115-11.192c-0.342-0.014-0.639-1.793-0.895-1.804
			c-0.457-1.321-0.792-1.056-2.16-1.299c-0.083,0.089-0.255,0.082-0.509,0.071l-2.133-0.088c-3.497-0.145-11.256-0.465-12.851-5.908
			c-0.016-0.565,1.323-1.541,2.007-1.51c0.171,0.008,0.429,0.115,0.775,0.319c0.677-0.251,1.949-0.474,3.913-0.382l1.451,0.068
			c0.426-0.073,0.85-0.147,1.445-0.213l0.257,0.012c0.256,0.013,0.427,0.021,0.681-0.061c0.26,0.198,0.606,0.401,1.036,0.516
			c0.34-0.078,0.767-0.058,1.361-0.123l3.849,0.46c2.045-0.091,4.008-0.091,5.972,0.001c1.794,0.084,2.907,0.321,6.071,0.653
			c-0.085-0.004-0.085-0.004-0.085-0.004s1.276-0.124,3.834-0.188c-0.002-0.093,0.855,0.132,2.393,0.204l2.391,0.111
			c0.257,0.013,1.281,0.061,2.991,0.232c0.768,0.036,3.172,0.786,4.11,0.829c0.257,0.013,2.427,2.023,2.43,2.205
			C422.413,88.695,422.246,88.961,421.83,89.488z"/>
	</g>
	<g>
		<path fill="#1BE8ED" d="M430.97,85.374l1.204,0.599l0.699,1.024l0.292,2.179l-0.183,4.501l-1.064,2.575l-1.146,2.666l-2.903,9.225
			l-2.657,8.095l-0.631,2.713l-0.651,1.441l-0.226,1.541l-0.568,1.354l-0.312,1.542l-0.745,5.453l-0.541,2.729l-0.45,3.005
			l-1.121,3.278l-1.073,1.273l-1.335,0.819l-0.939-0.551l-0.337-4.213l0.159-0.548l-0.185-0.733l-0.053-2.655l0.129-2.104
			l-0.18-0.459l-0.173-4.487l0.02-3.295l0.458-2.553l0.524-3.556l0.555-1.998l0.997-5.544l0.488-1.081l0.871-3.348l1.441-4.781
			l0.062-1.272l0.742-1.246l0.732-1.882l1.072-1.957l0.073-0.633l1.732-3.193l0.422-0.253l0.741-1.508l1.679-1.553l1.78-0.64
			L430.97,85.374z"/>
	</g>
	<g>
		<path fill="#1BE8ED" d="M470.63,81.312l-1.826,5.687c-0.842,1.362-0.68,0.405-4.154,11.229l-0.486,2.356
			c-0.728,3.67,0.013,1.232-3.677,13.808c-2.062,5.341,2.59-3.898-6.831,17.138c-0.974,3.276-3.077,4.062-4.261,4.053
			c-1.438-0.011-1.185-0.098-3.474-0.65l-0.426-0.183c0.678,0.185-3.568-1.104-4.57-5.956c-1.266-5.225-0.835-4.769-1.916-9.009
			c-0.482-3.783,0.003,0.18-3.731-26.554c-0.093-0.454-0.812-2.737-0.822-3.367c-0.027-1.714,0.913-1.581,1.597-1.55
			c-0.516-0.204,6.601,2.269,7.868,13.322l0.727,3.153c0.542,2.341,0.657,4.489,1.026,6.554c-0.083,0.087-0.083,0.087-0.082,0.177
			c0.372,2.331,0.651,4.125,0.84,5.468c0.009,0.625,0.028,2.054,0.48,4.027c0.449,1.881,0.633,2.866,0.717,2.868
			c1.356,0.022,2.729-5.205,7.501-17.158l0.415-0.873c0.739-2.189,7.033-18.271,7.698-19.999c0.167-0.344,1.006-1.798,1.834-4.392
			c0.419-0.77,1.67-3.95,2.27-3.916c-0.085-0.005,3.324-1.303,3.324-1.303c0.085,0.005,0.085,0.005,0.257,0.015
			c0.171,0.009,0.513-0.059,1.11-0.199c0.087,0.092,0.173,0.271,0.347,0.543C472.214,76.767,470.963,80.369,470.63,81.312z"/>
	</g>
	<g>
		<path fill="#1BE8ED" d="M509.035,93.155c-0.597,0.228-1.45-0.149-2.474,0.314c-0.085-0.089-0.256-0.097-0.342-0.1l-0.853,0.473
			c-0.511,0.487-0.597,0.313-1.278,0.454c-0.085-0.003-0.256-0.011-0.427-0.103c0,0.085-0.511,0.148-1.62,0.441l-1.192,0.29
			l-0.768,0.139c-0.085-0.09-0.256-0.097-0.342-0.101c-0.34,0.328-1.876,0.178-2.729,0.228l-0.34-0.015
			c-0.256-0.011-0.938,0.303-1.022,0.3c-4.09,0.689,0.077-1.967-7.654,3.475c-0.085,0.084-1.698,0.972-2.797,2.313
			c-0.335,1.025-2.864,4.747-2.845,7.693c0.002,0.174,0.088,0.35,0.174,0.438l2.719-0.093c0.935-0.058,2.041-0.025,3.485-0.067
			c0.595,0.018,1.105,0.118,1.785,0.139c0.596,0.018,1.275-0.048,1.955-0.027c0.767,0.194,1.361,0.212,2.892,0.257l0.341,0.182
			c1.529-0.296,2.294-0.444,2.294-0.444s0,0-0.085-0.003c0.681,0.021,1.19,0.121,1.446,0.385v0.171
			c0.086,0.089,0.088,0.601,0.091,1.626l-0.934,0.572l-0.679,0.237l-0.254,0.249l-1.188,0.225c-0.084,0.084-0.508,0.329-1.187,0.568
			l-1.188,0.483c-0.339,0.334-1.951,0.637-6.362,1.301c-1.013,1.183-3.627,3.718-4.81,4.558c-0.25,0.601-0.67,1.286-1.175,1.884
			c-0.592,0.161-2.712,0.034-2.703,1.164c0.029,4.085,1.31,5.493,4.358,5.708l0.092,1.04l0.426,0.352l1.777,0.022l2.622-0.313
			l3.299-0.56l1.521-0.409l3.13-0.729l0.086,0.258c0.085,0.087,0.086,0.173,0.086,0.258c-0.084,0.257-0.084,0.427-0.083,0.514
			l0.085,0.086c0.001,0.086,0.001,0.172,0.001,0.172c0,0.171,0.001,0.257,0.086,0.429c-0.169,0.17-0.337,0.339-0.422,0.51
			l-0.085-0.173c0.001,0.172,0.002,0.342,0.087,0.515c-0.424-0.005,0.088,0.687-0.84,1.619v0.172
			c-0.167,0.427,0.003,0.686-1.007,1.877l0.001,0.343c-3.29,1.606-3.795,1.861-8.02,2.178l-1.1-0.007c0,0-0.083,0.085-0.253,0.084
			c-0.253-0.002-0.762-0.091-1.607-0.27c-2.454-0.451-1.518,0.509-5.594-2.039l-0.427-0.527c-1.535-1.582-2.554-1.941-4.57-10.177
			c0.082-0.26,0.08-0.521,0.076-0.872c-0.003-0.35-0.094-1.137-0.184-1.751c0.237-1.917,0.384-4.709,0.946-8.362
			c-0.02-2.357,0.661-2.251,3.131-12.367l-0.26-0.532c-0.347-0.71-0.609-1.591-0.873-2.646c0.254-0.164,0.424-0.331,0.677-0.583
			l-0.002-0.261l0.423-0.419c-0.086-0.09-0.087-0.265-0.088-0.352c0.165-0.602,0.671-1.364,1.431-2.376l0.171,0.007l0.593-0.583
			c0.593-0.582,1.696-1.313,2.288-2.154c-0.172-0.096-0.26-0.533-0.266-1.313c2.466-1.53,3.066-0.983,3.921-0.942
			c0.257,0.099,0.513,0.111,0.77,0.209l0.256,0.012c0.257,0.013,0.77,0.124,0.854,0.128c0.939,0.044,2.562-0.139,4.867-0.029
			l2.989,0.142c0.512,0.11,1.025,0.135,1.623,0.248l5.807,0.274c0.428,0.106,0.854,0.126,1.367,0.15l-0.086-0.004
			c-0.001-0.341,8.967,0.676,10.504,2.267v0.506C512.533,93.055,510.06,93.115,509.035,93.155z"/>
	</g>
</g>
</svg>
