<?xml version="1.0" encoding="utf-8"?>
<!-- Generator: Adobe Illustrator 16.0.0, SVG Export Plug-In . SVG Version: 6.00 Build 0)  -->
<!DOCTYPE svg PUBLIC "-//W3C//DTD SVG 1.1//EN" "http://www.w3.org/Graphics/SVG/1.1/DTD/svg11.dtd">
<svg version="1.1" id="Layer_1" xmlns="http://www.w3.org/2000/svg" xmlns:xlink="http://www.w3.org/1999/xlink" x="0px" y="0px"
	 width="80px" height="80px" viewBox="0 0 80 80" enable-background="new 0 0 80 80" xml:space="preserve">
<g>
	<path d="M50,65.5C50,71.299,45.299,76,39.5,76l0,0C33.701,76,29,71.299,29,65.5v-52C29,7.701,33.701,3,39.5,3l0,0
		C45.299,3,50,7.701,50,13.5V65.5z"/>
	<path d="M76,39.5C76,45.299,71.299,50,65.5,50h-52C7.701,50,3,45.299,3,39.5l0,0C3,33.701,7.701,29,13.5,29h52
		C71.299,29,76,33.701,76,39.5L76,39.5z"/>
</g>
</svg>
